<?xml version="1.0" encoding="utf-8"?>
<!-- Generator: Adobe Illustrator 24.1.1, SVG Export Plug-In . SVG Version: 6.00 Build 0)  -->
<svg version="1.1" id="Layer_1" xmlns="http://www.w3.org/2000/svg" xmlns:xlink="http://www.w3.org/1999/xlink" x="0px" y="0px"
	 viewBox="0 0 50 50" style="enable-background:new 0 0 50 50;" xml:space="preserve">
<style type="text/css">
	.st0{fill:#FFFFFF;}
</style>
<g id="Guides_For_Artboard">
</g>
<g>
	<path class="st0" d="M25.2,12.6c-7.2,0-12.9,5.8-12.9,12.9c0,7.2,5.8,12.9,12.9,12.9s12.9-5.8,12.9-12.9
		C38.2,18.4,32.4,12.6,25.2,12.6z M25.2,34c-4.6,0-8.4-3.8-8.4-8.4s3.8-8.4,8.4-8.4s8.4,3.8,8.4,8.4S29.9,34,25.2,34z"/>
	<path class="st0" d="M38.6,9.1c-1.7,0-3,1.4-3,3c0,1.7,1.4,3,3,3c1.7,0,3-1.4,3-3S40.3,9.1,38.6,9.1z"/>
	<path class="st0" d="M35.8,0.5H14.7c-8,0-14.4,6.4-14.4,14.4V36c0,8,6.4,14.4,14.4,14.4h21.1c8,0,14.4-6.4,14.4-14.4V14.9
		C50.2,6.9,43.7,0.5,35.8,0.5z M45.6,36.4c0,5.3-4.3,9.6-9.6,9.6H14.4c-5.3,0-9.6-4.3-9.6-9.6V14.8c0-5.3,4.3-9.6,9.6-9.6H36
		c5.3,0,9.6,4.3,9.6,9.6V36.4z"/>
</g>
<path class="st0" d="M42.9-47.9c-1.9-0.3-10.9-0.6-18-0.6c-7.2,0-16.2,0.4-18,0.6c-3.3,0.5-5,2-6,5.8C0.5-40.9,0.1-34,0.1-31.3v0.6
	c0,2.7,0.4,9.6,0.8,10.9c0.9,3.8,2.7,5.2,6,5.8c1.9,0.3,10.9,0.6,18.1,0.6l0,0c7.2,0,16.2-0.4,18.1-0.6c3.3-0.5,5-2,6-5.8
	c0.3-1.3,0.8-8.2,0.8-10.9v-0.6c0-2.7-0.4-9.6-0.8-10.9C48-46,46.2-47.4,42.9-47.9z M18.9-24.7v-12.7l11.9,6.2L18.9-24.7z"/>
<path class="st0" d="M48.6-161.3c-1.9,1.1-4.1,2-6.4,2.4c-1.8-1.9-4.4-3.2-7.3-3.2c-5.5,0-10,4.5-10,10c0,0.8,0.1,1.6,0.3,2.3
	c-8.3-0.4-15.7-4.4-20.7-10.5c-0.9,1.5-1.4,3.2-1.4,5c0,3.5,1.8,6.6,4.5,8.4c-1.6-0.1-3.2-0.5-4.5-1.3v0.1c0,4.9,3.5,8.9,8,9.8
	c-0.8,0.2-1.7,0.3-2.6,0.3c-0.7,0-1.3-0.1-1.9-0.2c1.3,4,5,6.9,9.4,7c-3.4,2.7-7.8,4.3-12.5,4.3c-0.8,0-1.6,0-2.4-0.1
	c4.4,2.8,9.7,4.5,15.4,4.5C35-122.5,45-137.8,45-151c0-0.4,0-0.9,0-1.3c2-1.4,3.7-3.2,5-5.2c-1.8,0.8-3.7,1.3-5.8,1.6
	C46.3-157,47.9-158.9,48.6-161.3z"/>
<path class="st0" d="M29.3-64.2v-22.7H37l1.1-8.9h-8.8v-5.7c0-2.6,0.7-4.3,4.4-4.3h4.7v-8c-0.8-0.1-3.6-0.4-6.9-0.4
	c-6.8,0-11.5,4.2-11.5,11.8v6.6h-7.7v8.9H20v22.7H29.3z"/>
</svg>
