<?xml version="1.0" encoding="utf-8"?>
<!-- Generator: Adobe Illustrator 24.1.1, SVG Export Plug-In . SVG Version: 6.00 Build 0)  -->
<svg version="1.1" id="Layer_1" xmlns="http://www.w3.org/2000/svg" xmlns:xlink="http://www.w3.org/1999/xlink" x="0px" y="0px"
	 viewBox="0 0 50 50" style="enable-background:new 0 0 50 50;" xml:space="preserve">
<style type="text/css">
	.st0{fill:#FFFFFF;}
	.st1{fill:#515254;}
	.st2{fill:#F7BF1C;}
	.st3{fill:#72BB77;}
	.st4{fill:#5981C1;}
	.st5{fill:#E54F3B;}
</style>
<g id="Guides_For_Artboard">
</g>
<g>
	<path class="st0" d="M25.1,1.9c-12.7,0-23,10.3-23,23s10.3,23,23,23s23-10.3,23-23S37.8,1.9,25.1,1.9z M25.1,36.5
		c-1.1,0-2.1-0.1-3.2-0.2l-7.1,4.8c-0.1,0.1-0.2,0.1-0.3,0.1s-0.3-0.1-0.4-0.1C14,41,13.9,40.8,14,40.6l1.7-6.2
		c-4.9-2.5-8.2-6.8-8.2-11.8c0-7.7,7.9-13.9,17.6-13.9s17.6,6.2,17.6,13.9C42.7,30.3,34.8,36.5,25.1,36.5z"/>
	<path class="st0" d="M18.3,20.1c0.2-0.2,0.3-0.4,0.3-0.7c0-0.1,0-0.1,0-0.2c0-0.2-0.2-0.4-0.4-0.5c-0.2-0.1-0.4-0.2-0.7-0.2h-5.9
		c-0.3,0-0.6,0.1-0.8,0.2c-0.2,0.2-0.3,0.4-0.3,0.7c0,0.1,0,0.1,0,0.2c0,0.2,0.2,0.4,0.4,0.5s0.4,0.2,0.7,0.2h1.9v6.6
		c0,0.1,0,0.2,0,0.3c0.1,0.2,0.2,0.4,0.3,0.6c0.2,0.1,0.4,0.2,0.6,0.2c0.3,0,0.6-0.1,0.7-0.3c0.2-0.2,0.3-0.4,0.3-0.8v-6.6h1.9
		C17.9,20.4,18.1,20.3,18.3,20.1z"/>
	<path class="st0" d="M24.1,26.3l-2.5-7.1c-0.1-0.3-0.2-0.5-0.4-0.6c-0.2-0.1-0.4-0.2-0.7-0.2H20c-0.3,0-0.5,0-0.6,0.1
		c-0.2,0.1-0.3,0.3-0.4,0.5l-2.6,7.2c-0.1,0.1-0.1,0.3-0.1,0.4s-0.1,0.3-0.1,0.4s0,0.2,0,0.2c0,0.2,0.2,0.4,0.3,0.5
		C16.8,28,17,28,17.2,28c0.5,0,0.8-0.2,0.9-0.6l0.5-1.5h3.3l0.5,1.5c0.1,0.4,0.4,0.6,0.9,0.6c0.3,0,0.5-0.1,0.7-0.3
		c0.2-0.2,0.3-0.4,0.3-0.7c0-0.1,0-0.1,0-0.2C24.3,26.7,24.2,26.5,24.1,26.3z M19.1,24.4l1.2-3.7l0,0l1.2,3.7H19.1z"/>
	<path class="st0" d="M30.8,26.3c-0.2-0.1-0.4-0.2-0.7-0.2h-3.4v-6.6c0-0.1,0-0.2,0-0.3c0-0.2-0.2-0.4-0.3-0.6
		c-0.2-0.1-0.4-0.2-0.7-0.2c-0.3,0-0.6,0.1-0.7,0.3c-0.2,0.2-0.3,0.5-0.3,0.8v7.2c0,0.2,0,0.3,0,0.4c0.1,0.3,0.2,0.5,0.4,0.6
		c0.2,0.1,0.4,0.2,0.8,0.2h4.2c0.3,0,0.6-0.1,0.8-0.2c0.2-0.2,0.3-0.4,0.3-0.7c0-0.1,0-0.1,0-0.2C31.1,26.6,30.9,26.4,30.8,26.3z"/>
	<path class="st0" d="M38.8,26.9c0-0.1-0.1-0.3-0.3-0.6l-0.1-0.1l-2.5-3.9L38,20c0.1-0.1,0.2-0.2,0.2-0.3c0.1-0.1,0.1-0.2,0.1-0.4
		v-0.1v-0.1c0-0.2-0.2-0.4-0.3-0.5c-0.2-0.1-0.4-0.2-0.6-0.2c-0.2,0-0.3,0-0.4,0.1c-0.1,0.1-0.2,0.2-0.4,0.3l-3.2,3.7v-3.1
		c0-0.1,0-0.2,0-0.3c0-0.2-0.2-0.4-0.3-0.6c-0.2-0.1-0.4-0.2-0.6-0.2c-0.3,0-0.6,0.1-0.7,0.3c-0.2,0.2-0.3,0.5-0.3,0.8v7.5
		c0,0.1,0,0.2,0,0.3c0,0.2,0.2,0.4,0.3,0.6c0.2,0.1,0.4,0.2,0.7,0.2s0.6-0.1,0.7-0.3c0.2-0.2,0.3-0.4,0.3-0.8v-2.1l1.1-1.2l2.3,3.8
		c0.1,0.2,0.3,0.4,0.4,0.4c0.1,0.1,0.3,0.1,0.5,0.1c0.3,0,0.5-0.1,0.7-0.2C38.7,27.5,38.8,27.3,38.8,26.9C38.8,27,38.8,27,38.8,26.9
		L38.8,26.9z"/>
</g>
<path class="st1" d="M122.8-8.8V73h68.1V-8.8H122.8z M183.7,45.3c0,5.7-4.6,10.3-10.3,10.3h-36.1c-5.7,0-10.3-4.6-10.3-10.3V9.6
	c0-5.7,4.6-10.3,10.3-10.3h36.1c5.7,0,10.3,4.6,10.3,10.3V45.3z"/>
<path class="st1" d="M172.4,24.1h-16.7c0,2.3,0,4.6,0,6.9l0,0l0,0h9.6c-0.4,2.2-1.7,4.2-3.5,5.5l0,0c-1.2,0.8-2.5,1.3-3.9,1.5
	s-2.8,0.3-4.2,0s-2.8-0.9-3.9-1.7c-1.9-1.3-3.3-3.2-4-5.4l0,0c-0.8-2.2-0.8-4.7,0-6.9l0,0c0.5-1.6,1.4-3,2.6-4.2
	c1.4-1.5,3.3-2.5,5.3-2.9c1.7-0.4,3.5-0.3,5.2,0.2c1.4,0.4,2.7,1.2,3.8,2.2c1.1-1.1,2.2-2.2,3.3-3.3c0.6-0.6,1.2-1.1,1.7-1.7l0,0
	l0,0c-1.7-1.5-3.6-2.8-5.7-3.5c-3.8-1.4-8.1-1.4-11.9-0.1c-4.3,1.5-8,4.7-10,8.8c-0.7,1.4-1.2,2.9-1.5,4.5c-0.8,3.8-0.2,8,1.5,11.5
	c1.2,2.3,2.8,4.3,4.8,5.9c1.9,1.5,4.1,2.6,6.4,3.3c3,0.8,6.1,0.8,9.1,0.1c2.7-0.6,5.2-1.9,7.3-3.8c2.1-2,3.7-4.6,4.5-7.4
	c0.7-2.3,0.9-4.7,0.7-7.1C172.6,25.7,172.5,24.9,172.4,24.1z"/>
<g>
	<path class="st2" d="M98.9,146.3H82.3c0,2.3,0,4.6,0,6.9l0,0l0,0h9.6c-0.4,2.2-1.7,4.2-3.5,5.5l0,0c-1.2,0.8-2.5,1.3-3.9,1.5
		c-1.4,0.2-2.8,0.3-4.2,0c-1.4-0.3-2.8-0.9-3.9-1.7c-1.9-1.3-3.3-3.2-4-5.4l0,0c-0.8-2.2-0.8-4.7,0-6.9l0,0c0.5-1.6,1.4-3,2.6-4.2
		c1.4-1.5,3.3-2.5,5.3-2.9c1.7-0.4,3.5-0.3,5.2,0.2c1.4,0.4,2.7,1.2,3.8,2.2c1.1-1.1,2.2-2.2,3.3-3.3c0.6-0.6,1.2-1.1,1.7-1.7l0,0
		l0,0c-1.7-1.5-3.6-2.8-5.7-3.5c-3.8-1.4-8.1-1.4-11.9-0.1c-4.3,1.5-8,4.7-10,8.8c-0.7,1.4-1.2,2.9-1.5,4.5c-0.8,3.8-0.2,8,1.5,11.5
		c1.2,2.3,2.8,4.3,4.8,5.9c1.9,1.5,4.1,2.6,6.4,3.3c3,0.8,6.1,0.8,9.1,0.1c2.7-0.6,5.2-1.9,7.3-3.8c2.1-2,3.7-4.6,4.5-7.4
		c0.7-2.3,0.9-4.7,0.7-7.1C99.2,147.8,99.1,147,98.9,146.3z"/>
	<path class="st3" d="M94,163c2.1-2,3.7-4.6,4.5-7.4c0.7-2.3,0.9-4.7,0.7-7.1c-0.1-0.8-0.1-1.6-0.3-2.4H83.1l-0.8,0.8c0,2,0,4,0,6.1
		l0,0l0,0h9.6c-0.4,2.2-1.7,4.2-3.5,5.5l0,0c-1.2,0.8-2.5,1.3-3.9,1.5c-1.4,0.2-2.8,0.3-4.2,0c-1.4-0.3-2.8-0.9-3.9-1.7
		c-1-0.7-2-1.7-2.7-2.7l-5.1,5.1c0.8,1,1.7,1.9,2.7,2.6c1.9,1.5,4.1,2.6,6.4,3.3c3,0.8,6.1,0.8,9.1,0.1C89.4,166.2,92,164.9,94,163z
		"/>
	<path class="st4" d="M98.9,146.3H82.3c0,2.3,0,4.6,0,6.9l0,0l0,0h9.6c-0.4,2.2-1.7,4.2-3.5,5.5l0,0c-0.1,0.1-0.2,0.1-0.3,0.1
		L94,163l0,0c2.1-2,3.7-4.6,4.5-7.4c0.7-2.3,0.9-4.7,0.7-7.1C99.2,147.8,99.1,147,98.9,146.3z"/>
	<path class="st5" d="M72,147.1c0.1-0.3,0.2-0.6,0.3-1l0,0c0.5-1.6,1.4-3,2.6-4.2c1.4-1.5,3.3-2.5,5.3-2.9c1.7-0.4,3.5-0.3,5.2,0.2
		c1.4,0.4,2.7,1.2,3.8,2.2c1.1-1.1,2.2-2.2,3.3-3.3c0.6-0.6,1.2-1.1,1.7-1.7l0,0l0,0c-1.7-1.5-3.6-2.8-5.7-3.5
		c-3.8-1.4-8.1-1.4-11.9-0.1c-4.3,1.5-8,4.7-10,8.8c-0.2,0.4-0.4,0.7-0.5,1.1L72,147.1z"/>
</g>
<g>
	<path class="st2" d="M102.8,21.1H83.7c0,2.6,0,5.3,0,7.9l0,0l0,0h11c-0.4,2.5-1.9,4.8-4,6.3l0,0c-1.3,0.9-2.9,1.5-4.5,1.8
		s-3.2,0.3-4.8,0c-1.6-0.3-3.2-1-4.5-2c-2.2-1.5-3.8-3.7-4.6-6.2l0,0c-0.9-2.5-0.9-5.4,0-7.9l0,0c0.6-1.8,1.6-3.4,2.9-4.8
		c1.6-1.7,3.8-2.9,6.1-3.4c2-0.4,4-0.3,6,0.2c1.6,0.5,3.1,1.4,4.4,2.6c1.2-1.2,2.5-2.5,3.7-3.7c0.7-0.7,1.3-1.3,2-2l0,0l0,0
		c-1.9-1.8-4.1-3.2-6.5-4c-4.4-1.6-9.3-1.6-13.7-0.1c-4.9,1.7-9.2,5.4-11.5,10.1c-0.8,1.6-1.4,3.3-1.8,5.1
		c-0.9,4.4-0.3,9.1,1.8,13.1c1.3,2.6,3.2,5,5.5,6.8c2.2,1.7,4.7,3,7.4,3.7c3.4,0.9,7,0.9,10.4,0.1c3.1-0.7,6-2.2,8.3-4.3
		c2.5-2.3,4.2-5.2,5.1-8.4c0.8-2.6,1-5.4,0.8-8.1C103.1,22.9,102.9,22,102.8,21.1z"/>
	<path class="st3" d="M97.1,40.3c2.5-2.3,4.2-5.2,5.1-8.4c0.8-2.6,1-5.4,0.8-8.1c-0.1-0.9-0.2-1.8-0.3-2.7h-18l-1,1
		c0,2.3,0,4.6,0,6.9l0,0l0,0h11c-0.4,2.5-1.9,4.8-4,6.3l0,0c-1.3,0.9-2.9,1.5-4.5,1.8s-3.2,0.3-4.8,0c-1.6-0.3-3.2-1-4.5-2
		c-1.2-0.8-2.2-1.9-3.1-3.1L68,37.8c0.9,1.1,1.9,2.1,3.1,3c2.2,1.7,4.7,3,7.4,3.7c3.4,0.9,7,0.9,10.4,0.1
		C91.9,43.9,94.8,42.4,97.1,40.3z"/>
	<path class="st4" d="M102.8,21.1H83.7c0,2.6,0,5.3,0,7.9l0,0l0,0h11c-0.4,2.5-1.9,4.8-4,6.3l0,0c-0.1,0.1-0.2,0.1-0.3,0.2l6.7,4.9
		l0,0c2.5-2.3,4.2-5.2,5.1-8.4c0.8-2.6,1-5.4,0.8-8.1C103.1,22.9,102.9,22,102.8,21.1z"/>
	<path class="st5" d="M71.9,22.1c0.1-0.4,0.2-0.7,0.3-1.1l0,0c0.6-1.8,1.6-3.4,2.9-4.8c1.6-1.7,3.8-2.9,6.1-3.4c2-0.4,4-0.3,6,0.2
		c1.6,0.5,3.1,1.4,4.4,2.6c1.2-1.2,2.5-2.5,3.7-3.7c0.7-0.7,1.3-1.3,2-2l0,0l0,0c-1.9-1.8-4.1-3.2-6.5-4c-4.4-1.6-9.3-1.6-13.7-0.1
		c-4.9,1.7-9.2,5.4-11.5,10.1c-0.2,0.4-0.4,0.8-0.6,1.3L71.9,22.1z"/>
</g>
</svg>
