<?xml version="1.0" encoding="utf-8"?>
<!-- Generator: Adobe Illustrator 24.1.1, SVG Export Plug-In . SVG Version: 6.00 Build 0)  -->
<svg version="1.1" id="Layer_1" xmlns="http://www.w3.org/2000/svg" xmlns:xlink="http://www.w3.org/1999/xlink" x="0px" y="0px"
	 viewBox="0 0 50 50" style="enable-background:new 0 0 50 50;" xml:space="preserve">
<style type="text/css">
	.st0{stroke:#000000;stroke-width:3;stroke-linejoin:round;stroke-miterlimit:10;}
	.st1{fill:none;stroke:#000000;stroke-width:3;stroke-linejoin:round;stroke-miterlimit:10;}
	.st2{fill:#905247;}
</style>
<text transform="matrix(1 0 0 1 -517.0786 214.9219)"><tspan x="0" y="0" style="font-family:'Arial-BoldMT'; font-size:49.1468px;">PET</tspan><tspan x="95.6" y="0" style="font-family:'ArialMT'; font-size:49.1468px;">cellent</tspan></text>
<text transform="matrix(1 0 0 1 -517.0786 145.2552)"><tspan x="0" y="0" style="font-family:'Arial-BoldMT'; font-size:49.1468px;">PETex</tspan><tspan x="150.2" y="0" style="font-family:'ArialMT'; font-size:49.1468px;">cellent</tspan></text>
<path class="st0" d="M-455.3,263.6c0,3.3-2.7,6-6,6h-15.3c-3.3,0-6-2.7-6-6v-8.3c0-3.3,2.7-6,6-6h15.3c3.3,0,6,2.7,6,6V263.6z"/>
<path class="st1" d="M-487.6,259.6c0,3.3-2.7,6-6,6h-10.3c-3.3,0-6-2.7-6-6v-4.3c0-3.3,2.7-6,6-6h10.3c3.3,0,6,2.7,6,6V259.6z"/>
<path class="st1" d="M-455.3,283.4c0,3.3-2.7,6-6,6h-15.3c-3.3,0-6-2.7-6-6v-22.3c0-3.3,2.7-6,6-6h15.3c3.3,0,6,2.7,6,6"/>
<path class="st1" d="M-509.8,283.4c0,3.3,2.7,6,6,6h15.3c3.3,0,6-2.7,6-6v-7.3"/>
<line class="st1" x1="-510" y1="279.7" x2="-510" y2="253.4"/>
<path class="st1" d="M-426.6,256.6c0,3.3-2.7,6-6,6h-10.3c-3.3,0-6-2.7-6-6"/>
<line class="st1" x1="-437.7" y1="282.2" x2="-437.7" y2="263"/>
<line class="st1" x1="-446.3" y1="269.6" x2="-444.8" y2="263.1"/>
<line class="st1" x1="-428.8" y1="269.6" x2="-430.3" y2="263.1"/>
<circle class="st1" cx="-498.7" cy="257.5" r="4.7"/>
<circle cx="-468.6" cy="280.7" r="1"/>
<g>
	<circle cx="-474" cy="276.1" r="1"/>
	<circle cx="-463.3" cy="276.1" r="1"/>
</g>
<path class="st0" d="M-360.9,263.6c0,3.3-2.7,6-6,6h-15.3c-3.3,0-6-2.7-6-6v-8.3c0-3.3,2.7-6,6-6h15.3c3.3,0,6,2.7,6,6V263.6z"/>
<path class="st1" d="M-401.8,283.4c0,3.3,2.7,6,6,6h15.3c3.3,0,6-2.7,6-6v-14.3"/>
<path class="st1" d="M-347.6,283.4c0,3.3-2.7,6-6,6h-15.3c-3.3,0-6-2.7-6-6v-14.3"/>
<circle cx="-360.6" cy="280.7" r="1"/>
<g>
	<circle cx="-366" cy="276.1" r="1"/>
	<circle cx="-355.3" cy="276.1" r="1"/>
</g>
<circle cx="-388.2" cy="280.7" r="1"/>
<g>
	<circle cx="-393.5" cy="276.1" r="1"/>
	<circle cx="-382.8" cy="276.1" r="1"/>
</g>
<path class="st1" d="M-365,292.8v6c0,4.4-3.6,8-8,8h-3.2c-4.4,0-8-3.6-8-8v-6"/>
<line class="st1" x1="-374.8" y1="302.1" x2="-374.8" y2="287.4"/>
<text transform="matrix(1 0 0 1 -388.0459 265.1716)" style="fill:#FFFFFF; font-family:'Arial-BoldMT'; font-size:13.8058px;">PET</text>
<path id="SVGID_x5F_1_x5F_" style="fill:none;" d="M-337,285.7c0-20.8-16.8-37.6-37.6-37.6c-20.8,0-37.6,16.8-37.6,37.6
	c0,20.8,16.8,37.6,37.6,37.6C-353.8,323.3-337,306.4-337,285.7z"/>
<text><textPath  xlink:href="#SVGID_x5F_1_x5F_" startOffset="-56.7057%">
<tspan  style="font-family:'Arial-BoldMT'; font-size:14.4321px;">petcellent</tspan></textPath>
</text>
<path class="st0" d="M-240.3,266.6c0,3.3-2.7,6-6,6h-15.2c-3.3,0-6-2.7-6-6v-4.3c0-3.3,2.7-6,6-6h15.2c3.3,0,6,2.7,6,6V266.6z"/>
<path class="st1" d="M-281.1,283.4c0,3.3,2.7,6,6,6h15.3c3.3,0,6-2.7,6-6v-14.3"/>
<path class="st1" d="M-226.9,283.4c0,3.3-2.7,6-6,6h-15.2c-3.3,0-6-2.7-6-6v-14.3"/>
<path class="st1" d="M-244.3,292.8v6c0,4.4-3.6,8-8,8h-3.2c-4.4,0-8-3.6-8-8v-6"/>
<line class="st1" x1="-254.1" y1="302.1" x2="-254.1" y2="287.4"/>
<text transform="matrix(1 0 0 1 -267.3794 225.5051)" style="fill:#FFFFFF; font-family:'Arial-BoldMT'; font-size:13.8058px;">PET</text>
<path id="SVGID_x5F_2_x5F_" style="fill:none;" d="M-216.3,287.7c0-20.8-16.8-37.6-37.6-37.6c-20.8,0-37.6,16.8-37.6,37.6
	c0,20.8,16.8,37.6,37.6,37.6C-233.1,325.3-216.3,308.4-216.3,287.7z"/>
<text><textPath  xlink:href="#SVGID_x5F_2_x5F_" startOffset="-56.7057%">
<tspan  style="font-family:'Arial-BoldMT'; font-size:14.4321px;">petcellent</tspan></textPath>
</text>
<g>
	<g>
		<path d="M-550.8,167.5H-563c-3.5,0-6.3,2.8-6.3,6.3v3.4c0,3.5,2.8,6.3,6.3,6.3h12.1c3.5,0,6.3-2.8,6.3-6.3v-3.4
			C-544.5,170.3-547.4,167.5-550.8,167.5z"/>
		<g>
			<path d="M-536.9,190.5c0,1.8-1.5,3.3-3.3,3.3h-12.1c-1.5,0-2.8-1-3.1-2.4c0-0.3,0.1-0.6,0.1-0.9v-11.3h-0.2h-2.8h-0.2v11.3
				c0,0.3,0,0.6,0.1,0.9c-0.4,1.4-1.6,2.4-3.1,2.4h-12.1c-1.8,0-3.3-1.5-3.3-3.3h-3c0,3.5,2.8,6.3,6.3,6.3h12.1
				c1.1,0,2.2-0.3,3.1-0.8v9.5h3v-9.6c1,0.6,2.1,0.9,3.3,0.9h12.1c3.5,0,6.3-2.8,6.3-6.3H-536.9z"/>
			<path d="M-550.7,202.7c0,2.7-2.2,4.9-4.9,4.9h-2.6c-2.7,0-4.9-2.2-4.9-4.9V198h-3v4.8c0,4.3,3.5,7.9,7.9,7.9h2.6
				c4.3,0,7.9-3.5,7.9-7.9V198h-3V202.7z"/>
		</g>
	</g>
	<g>
		<path d="M-578,205.6l0.9,1.2l-0.7,0.5c0.4,0,0.7,0.1,1,0.2c0.3,0.2,0.6,0.4,0.9,0.7c0.4,0.6,0.5,1.2,0.4,1.9
			c-0.2,0.7-0.6,1.3-1.4,1.9c-0.8,0.6-1.6,0.8-2.3,0.7c-0.7-0.1-1.3-0.4-1.7-1c-0.2-0.3-0.3-0.5-0.4-0.8c0-0.3,0-0.7,0.1-1.1
			l-2.4,1.7l-0.9-1.3L-578,205.6z M-579.5,208.5c-0.5,0.4-0.9,0.8-1,1.2c-0.1,0.4,0,0.8,0.2,1.1c0.2,0.3,0.5,0.5,0.9,0.5
			c0.4,0,0.8-0.2,1.4-0.5c0.5-0.4,0.8-0.7,0.9-1.1c0.1-0.4,0-0.7-0.2-1c-0.2-0.3-0.5-0.5-0.9-0.5C-578.5,208-579,208.2-579.5,208.5z
			"/>
		<path d="M-573.7,216.3l1.1,1.2c-0.5,0.3-1,0.5-1.6,0.4c-0.5,0-1-0.3-1.6-0.7c-0.8-0.7-1.2-1.4-1.1-2.2c0-0.7,0.3-1.3,0.8-2
			c0.6-0.8,1.3-1.2,2.1-1.3c0.8-0.1,1.4,0.1,2,0.6c0.7,0.6,1,1.2,1.1,2c0,0.8-0.3,1.6-1.1,2.5l-3.1-2.5c-0.3,0.4-0.4,0.7-0.4,1.1
			c0,0.4,0.2,0.6,0.5,0.9c0.2,0.2,0.4,0.2,0.6,0.2C-574.2,216.6-574,216.5-573.7,216.3z M-572.7,215.2c0.3-0.4,0.4-0.7,0.4-1
			c0-0.3-0.2-0.6-0.4-0.8c-0.3-0.2-0.6-0.3-0.9-0.2c-0.3,0.1-0.6,0.2-0.9,0.6L-572.7,215.2z"/>
		<path d="M-566.4,216l-0.6,1.1l-1-0.5l-1.1,2.1c-0.2,0.4-0.3,0.7-0.4,0.8c0,0.1,0,0.2,0,0.2c0,0.1,0.1,0.1,0.2,0.2
			c0.1,0.1,0.3,0.1,0.6,0.2l-0.4,1.1c-0.4,0-0.8-0.2-1.2-0.4c-0.3-0.1-0.5-0.3-0.6-0.5c-0.2-0.2-0.3-0.4-0.3-0.6
			c0-0.2,0-0.4,0.1-0.6c0.1-0.2,0.2-0.5,0.5-1l1.2-2.3l-0.6-0.3l0.6-1.1l0.6,0.3l0.5-1.1l1.8-0.1l-1,1.9L-566.4,216z"/>
		<path d="M-561.1,219.5l-1.6-0.1c0-0.3,0-0.6-0.2-0.8c-0.1-0.2-0.3-0.3-0.6-0.4c-0.4-0.1-0.7-0.1-1,0.1c-0.3,0.2-0.5,0.6-0.7,1.2
			c-0.2,0.7-0.2,1.2-0.1,1.5c0.2,0.3,0.4,0.6,0.8,0.7c0.3,0.1,0.5,0.1,0.8,0c0.2-0.1,0.4-0.4,0.6-0.7l1.4,0.7
			c-0.3,0.6-0.8,1.1-1.3,1.3c-0.5,0.2-1.2,0.2-1.9,0c-0.8-0.2-1.4-0.7-1.8-1.4c-0.4-0.7-0.4-1.5-0.1-2.4c0.3-0.9,0.7-1.6,1.4-2
			c0.6-0.4,1.4-0.5,2.3-0.2c0.7,0.2,1.2,0.5,1.5,0.9C-561.2,218.3-561.1,218.8-561.1,219.5z"/>
		<path d="M-556.1,222l1.6,0.3c-0.2,0.6-0.5,1-1,1.3c-0.4,0.3-1,0.4-1.6,0.4c-1,0-1.8-0.4-2.3-1.1c-0.4-0.5-0.6-1.2-0.6-2.1
			c0-1,0.3-1.8,0.8-2.3c0.5-0.6,1.2-0.8,2-0.8c0.9,0,1.6,0.3,2.1,0.9c0.5,0.6,0.7,1.5,0.7,2.7l-3.9-0.1c0,0.5,0.1,0.8,0.4,1.1
			c0.2,0.3,0.5,0.4,0.9,0.4c0.2,0,0.5-0.1,0.6-0.2S-556.2,222.3-556.1,222z M-556,220.4c0-0.5-0.1-0.8-0.3-1
			c-0.2-0.2-0.5-0.4-0.8-0.4c-0.3,0-0.6,0.1-0.9,0.4c-0.2,0.2-0.3,0.6-0.3,1L-556,220.4z"/>
		<path d="M-552.3,223.5l-1.5-8.1l1.6-0.3l1.5,8.1L-552.3,223.5z"/>
		<path d="M-548.5,222.7l-2.5-7.8l1.5-0.5l2.5,7.8L-548.5,222.7z"/>
		<path d="M-542.4,218l1.5-0.5c0.1,0.6,0,1.1-0.2,1.6c-0.2,0.5-0.6,0.9-1.2,1.2c-0.9,0.5-1.7,0.6-2.5,0.2c-0.6-0.3-1.1-0.8-1.5-1.5
			c-0.5-0.9-0.6-1.7-0.4-2.4c0.2-0.7,0.6-1.3,1.3-1.7c0.8-0.4,1.5-0.5,2.3-0.2c0.7,0.3,1.4,0.9,1.9,2l-3.5,1.9
			c0.2,0.4,0.5,0.7,0.9,0.8c0.3,0.1,0.7,0.1,1-0.1c0.2-0.1,0.4-0.3,0.4-0.5C-542.4,218.5-542.4,218.3-542.4,218z M-543.1,216.5
			c-0.2-0.4-0.5-0.6-0.8-0.7c-0.3-0.1-0.6-0.1-0.9,0.1c-0.3,0.2-0.5,0.4-0.6,0.7c-0.1,0.3,0,0.7,0.2,1.1L-543.1,216.5z"/>
		<path d="M-534,213.4l-1.1,1.1l-2.1-2.2c-0.4-0.5-0.8-0.7-0.9-0.8c-0.2-0.1-0.4-0.1-0.5-0.1c-0.2,0-0.3,0.1-0.5,0.3
			c-0.2,0.2-0.3,0.4-0.4,0.7c-0.1,0.3,0,0.5,0.1,0.7c0.1,0.2,0.4,0.6,0.9,1.1l1.9,1.9l-1.1,1.1l-4.2-4.3l1-1l0.6,0.6
			c-0.1-0.8,0.1-1.5,0.7-2.1c0.2-0.2,0.5-0.4,0.8-0.5c0.3-0.1,0.6-0.1,0.8-0.1s0.5,0.1,0.7,0.3c0.2,0.1,0.5,0.4,0.8,0.7L-534,213.4z
			"/>
		<path d="M-535.9,205.7l1.1,0.7l-0.6,0.9l2,1.3c0.4,0.3,0.6,0.4,0.7,0.4c0.1,0,0.2,0,0.2,0c0.1,0,0.2-0.1,0.2-0.2
			c0.1-0.1,0.2-0.3,0.2-0.6l1.1,0.6c-0.1,0.4-0.2,0.8-0.5,1.2c-0.2,0.2-0.3,0.4-0.5,0.6c-0.2,0.1-0.4,0.2-0.6,0.2
			c-0.2,0-0.4,0-0.6-0.2c-0.2-0.1-0.5-0.3-1-0.6l-2.2-1.4l-0.4,0.6l-1.1-0.7l0.4-0.6l-1-0.6l0.1-1.8l1.8,1.2L-535.9,205.7z"/>
	</g>
</g>
<g>
	<path d="M-423.7,346.4h-6.5c-1.9,0-3.4,1.5-3.4,3.4v1.8c0,1.9,1.5,3.4,3.4,3.4h6.5c1.9,0,3.4-1.5,3.4-3.4v-1.8
		C-420.4,347.9-421.9,346.4-423.7,346.4z"/>
	<g>
		<path d="M-416.3,358.8c0,1-0.8,1.8-1.8,1.8h-6.5c-0.8,0-1.5-0.5-1.7-1.3c0-0.2,0-0.3,0-0.5v-6.1h-0.1h-1.5h-0.1v6.1
			c0,0.2,0,0.3,0,0.5c-0.2,0.7-0.9,1.3-1.7,1.3h-6.5c-1,0-1.8-0.8-1.8-1.8h-1.6c0,1.9,1.5,3.4,3.4,3.4h6.5c0.6,0,1.2-0.2,1.7-0.4
			v5.1h1.6v-5.1c0.5,0.3,1.1,0.5,1.8,0.5h6.5c1.9,0,3.4-1.5,3.4-3.4H-416.3z"/>
		<path d="M-423.7,365.4c0,1.4-1.2,2.6-2.6,2.6h-1.4c-1.4,0-2.6-1.2-2.6-2.6v-2.6h-1.6v2.6c0,2.3,1.9,4.2,4.2,4.2h1.4
			c2.3,0,4.2-1.9,4.2-4.2v-2.6h-1.6V365.4z"/>
	</g>
</g>
<g>
	<path d="M-384.6,376.9h-6.5c-1.9,0-3.4,1.5-3.4,3.4v1.8c0,1.9,1.5,3.4,3.4,3.4h6.5c1.9,0,3.4-1.5,3.4-3.4v-1.8
		C-381.2,378.4-382.7,376.9-384.6,376.9z"/>
	<g>
		<path d="M-377.1,389.3c0,1-0.8,1.8-1.8,1.8h-6.5c-0.8,0-1.5-0.5-1.7-1.3c0-0.2,0-0.3,0-0.5v-6.1h-0.1h-1.5h-0.1v6.1
			c0,0.2,0,0.3,0,0.5c-0.2,0.7-0.9,1.3-1.7,1.3h-6.5c-1,0-1.8-0.8-1.8-1.8h-1.6c0,1.9,1.5,3.4,3.4,3.4h6.5c0.6,0,1.2-0.2,1.7-0.4
			v5.1h1.6v-5.1c0.5,0.3,1.1,0.5,1.8,0.5h6.5c1.9,0,3.4-1.5,3.4-3.4H-377.1z"/>
		<path d="M-384.6,395.9c0,1.4-1.2,2.6-2.6,2.6h-1.4c-1.4,0-2.6-1.2-2.6-2.6v-2.6h-1.6v2.6c0,2.3,1.9,4.2,4.2,4.2h1.4
			c2.3,0,4.2-1.9,4.2-4.2v-2.6h-1.6V395.9z"/>
	</g>
</g>
<path class="st0" d="M-546,290c0,2.6-2.1,4.8-4.8,4.8H-563c-2.6,0-4.8-2.1-4.8-4.8v-3.4c0-2.6,2.1-4.8,4.8-4.8h12.1
	c2.6,0,4.8,2.1,4.8,4.8V290z"/>
<path class="st1" d="M-578.6,303.3c0,2.6,2.1,4.8,4.8,4.8h12.1c2.6,0,4.8-2.1,4.8-4.8V292"/>
<path class="st1" d="M-535.4,303.3c0,2.6-2.1,4.8-4.8,4.8h-12.1c-2.6,0-4.8-2.1-4.8-4.8V292"/>
<path class="st1" d="M-549.2,310.8v4.8c0,3.5-2.9,6.4-6.4,6.4h-2.6c-3.5,0-6.4-2.9-6.4-6.4v-4.8"/>
<line class="st1" x1="-557.1" y1="318.2" x2="-557.1" y2="306.5"/>
<path id="SVGID_x5F_3_x5F_" style="fill:none;" d="M-527,306.8c0-16.5-13.4-29.9-29.9-29.9c-16.5,0-29.9,13.4-29.9,29.9
	c0,16.5,13.4,29.9,29.9,29.9C-540.4,336.7-527,323.3-527,306.8z"/>
<text><textPath  xlink:href="#SVGID_x5F_3_x5F_" startOffset="-56.7057%">
<tspan  style="font-family:'Arial-BoldMT'; font-size:11.4881px;">petcellent</tspan></textPath>
</text>
<text transform="matrix(1 0 0 1 -417.0066 357.4354)" style="font-family:'Arial-BoldMT'; font-size:11.4881px;">PETcellent</text>
<text transform="matrix(1 0 0 1 -412.8842 363.5176)" style="font-family:'ArialMT'; font-size:4.503px; letter-spacing:1;">EVERY LOVE PET</text>
<g>
	<g>
		<path d="M-429.6,449.3h-6.5c-1.9,0-3.4,1.5-3.4,3.4v1.8c0,1.9,1.5,3.4,3.4,3.4h6.5c1.9,0,3.4-1.5,3.4-3.4v-1.8
			C-426.2,450.8-427.7,449.3-429.6,449.3z"/>
		<g>
			<path d="M-422.1,461.6c0,1-0.8,1.8-1.8,1.8h-6.5c-0.8,0-1.5-0.5-1.7-1.3c0-0.2,0-0.3,0-0.5v-6.1h-0.1h-1.5h-0.1v6.1
				c0,0.2,0,0.3,0,0.5c-0.2,0.7-0.9,1.3-1.7,1.3h-6.5c-1,0-1.8-0.8-1.8-1.8h-1.6c0,1.9,1.5,3.4,3.4,3.4h6.5c0.6,0,1.2-0.2,1.7-0.4
				v5.1h1.6v-5.1c0.5,0.3,1.1,0.5,1.8,0.5h6.5c1.9,0,3.4-1.5,3.4-3.4H-422.1z"/>
			<path d="M-429.6,468.2c0,1.4-1.2,2.6-2.6,2.6h-1.4c-1.4,0-2.6-1.2-2.6-2.6v-2.6h-1.6v2.6c0,2.3,1.9,4.2,4.2,4.2h1.4
				c2.3,0,4.2-1.9,4.2-4.2v-2.6h-1.6V468.2z"/>
		</g>
	</g>
	<g>
		<path d="M-422,460.3v-8.2h2.7c1,0,1.7,0,2,0.1c0.5,0.1,0.9,0.4,1.2,0.8c0.3,0.4,0.5,0.9,0.5,1.6c0,0.5-0.1,0.9-0.3,1.3
			c-0.2,0.3-0.4,0.6-0.7,0.8c-0.3,0.2-0.6,0.3-0.9,0.4c-0.4,0.1-1,0.1-1.7,0.1h-1.1v3.1H-422z M-420.4,453.5v2.3h0.9
			c0.7,0,1.1,0,1.3-0.1c0.2-0.1,0.4-0.2,0.5-0.4c0.1-0.2,0.2-0.4,0.2-0.6c0-0.3-0.1-0.5-0.3-0.7c-0.2-0.2-0.4-0.3-0.7-0.4
			c-0.2,0-0.6-0.1-1.2-0.1H-420.4z"/>
		<path d="M-414.4,460.3v-8.2h6.1v1.4h-4.4v1.8h4.1v1.4h-4.1v2.2h4.6v1.4H-414.4z"/>
		<path d="M-404.9,460.3v-6.8h-2.4v-1.4h6.5v1.4h-2.4v6.8H-404.9z"/>
		<path d="M-395.4,456.1l-1.6,0.3c-0.1-0.3-0.2-0.5-0.4-0.7c-0.2-0.2-0.4-0.2-0.7-0.2c-0.4,0-0.7,0.1-0.9,0.4
			c-0.2,0.3-0.4,0.7-0.4,1.4c0,0.7,0.1,1.2,0.4,1.5c0.2,0.3,0.6,0.4,1,0.4c0.3,0,0.5-0.1,0.7-0.3c0.2-0.2,0.3-0.5,0.4-0.9l1.5,0.3
			c-0.2,0.7-0.5,1.2-0.9,1.6c-0.5,0.4-1.1,0.5-1.8,0.5c-0.9,0-1.6-0.3-2.1-0.8c-0.5-0.5-0.8-1.3-0.8-2.3c0-1,0.3-1.7,0.8-2.3
			c0.5-0.5,1.2-0.8,2.1-0.8c0.7,0,1.3,0.2,1.7,0.5C-395.9,455-395.6,455.5-395.4,456.1z"/>
		<path d="M-390.7,458.4l1.6,0.3c-0.2,0.6-0.5,1-1,1.3c-0.4,0.3-1,0.5-1.6,0.5c-1,0-1.8-0.3-2.3-1c-0.4-0.5-0.6-1.2-0.6-2.1
			c0-1,0.3-1.8,0.8-2.3c0.5-0.6,1.2-0.8,2-0.8c0.9,0,1.6,0.3,2.1,0.9c0.5,0.6,0.8,1.5,0.7,2.7h-3.9c0,0.5,0.1,0.8,0.4,1.1
			c0.2,0.3,0.5,0.4,0.9,0.4c0.2,0,0.5-0.1,0.6-0.2C-390.9,458.9-390.8,458.7-390.7,458.4z M-390.6,456.8c0-0.5-0.1-0.8-0.4-1
			c-0.2-0.2-0.5-0.4-0.8-0.4c-0.3,0-0.6,0.1-0.9,0.4c-0.2,0.3-0.3,0.6-0.3,1H-390.6z"/>
		<path d="M-387.8,460.3v-8.2h1.6v8.2H-387.8z"/>
		<path d="M-384.6,460.3v-8.2h1.6v8.2H-384.6z"/>
		<path d="M-378,458.4l1.6,0.3c-0.2,0.6-0.5,1-1,1.3c-0.4,0.3-1,0.5-1.6,0.5c-1,0-1.8-0.3-2.3-1c-0.4-0.5-0.6-1.2-0.6-2.1
			c0-1,0.3-1.8,0.8-2.3c0.5-0.6,1.2-0.8,2-0.8c0.9,0,1.6,0.3,2.1,0.9c0.5,0.6,0.8,1.5,0.7,2.7h-3.9c0,0.5,0.1,0.8,0.4,1.1
			c0.2,0.3,0.5,0.4,0.9,0.4c0.2,0,0.5-0.1,0.6-0.2C-378.2,458.9-378,458.7-378,458.4z M-377.9,456.8c0-0.5-0.1-0.8-0.4-1
			c-0.2-0.2-0.5-0.4-0.8-0.4c-0.3,0-0.6,0.1-0.9,0.4c-0.2,0.3-0.3,0.6-0.3,1H-377.9z"/>
		<path d="M-369.6,460.3h-1.6v-3c0-0.6,0-1.1-0.1-1.2c-0.1-0.2-0.2-0.3-0.3-0.4c-0.2-0.1-0.3-0.2-0.5-0.2c-0.3,0-0.5,0.1-0.7,0.2
			c-0.2,0.1-0.4,0.3-0.4,0.6c-0.1,0.2-0.1,0.7-0.1,1.4v2.7h-1.6v-6h1.5v0.9c0.5-0.7,1.2-1,2-1c0.3,0,0.7,0.1,1,0.2
			c0.3,0.1,0.5,0.3,0.7,0.5c0.1,0.2,0.3,0.4,0.3,0.7c0.1,0.2,0.1,0.6,0.1,1.1V460.3z"/>
		<path d="M-365.3,454.3v1.3h-1.1v2.4c0,0.5,0,0.8,0,0.8c0,0.1,0.1,0.1,0.1,0.2c0.1,0.1,0.2,0.1,0.3,0.1c0.1,0,0.4-0.1,0.6-0.2
			l0.1,1.2c-0.4,0.2-0.8,0.2-1.2,0.2c-0.3,0-0.5,0-0.8-0.1c-0.2-0.1-0.4-0.2-0.5-0.4c-0.1-0.2-0.2-0.4-0.2-0.6
			c0-0.2-0.1-0.6-0.1-1.1v-2.6h-0.7v-1.3h0.7v-1.2l1.6-0.9v2.1H-365.3z"/>
	</g>
	<g>
		<path d="M-418.3,466.4v-3.2h2.3v0.4h-1.9v1h1.8v0.4h-1.8v1.1h2v0.4H-418.3z"/>
		<path d="M-413.2,466.4l-1.2-3.2h0.5l0.8,2.3c0.1,0.2,0.1,0.4,0.2,0.5c0-0.2,0.1-0.4,0.2-0.5l0.9-2.3h0.4l-1.3,3.2H-413.2z"/>
		<path d="M-409.9,466.4v-3.2h2.3v0.4h-1.9v1h1.8v0.4h-1.8v1.1h2v0.4H-409.9z"/>
		<path d="M-405.8,466.4v-3.2h1.4c0.3,0,0.5,0,0.7,0.1c0.1,0.1,0.3,0.2,0.4,0.3c0.1,0.1,0.1,0.3,0.1,0.5c0,0.2-0.1,0.4-0.2,0.6
			c-0.1,0.2-0.4,0.3-0.7,0.3c0.1,0.1,0.2,0.1,0.3,0.2c0.1,0.1,0.2,0.3,0.4,0.4l0.6,0.9h-0.5l-0.4-0.7c-0.1-0.2-0.2-0.3-0.3-0.4
			c-0.1-0.1-0.2-0.2-0.2-0.2c-0.1,0-0.1-0.1-0.2-0.1c0,0-0.1,0-0.2,0h-0.5v1.4H-405.8z M-405.3,464.6h0.9c0.2,0,0.3,0,0.5-0.1
			c0.1,0,0.2-0.1,0.3-0.2c0.1-0.1,0.1-0.2,0.1-0.3c0-0.2-0.1-0.3-0.2-0.4c-0.1-0.1-0.3-0.1-0.5-0.1h-1V464.6z"/>
		<path d="M-400.5,466.4V465l-1.2-1.9h0.5l0.6,1c0.1,0.2,0.2,0.4,0.3,0.5c0.1-0.2,0.2-0.4,0.4-0.6l0.6-0.9h0.5l-1.3,1.9v1.4H-400.5z
			"/>
		<path d="M-394.9,466.4v-3.2h0.4v2.8h1.6v0.4H-394.9z"/>
		<path d="M-391.4,464.8c0-0.5,0.1-1,0.4-1.3c0.3-0.3,0.7-0.5,1.1-0.5c0.3,0,0.6,0.1,0.8,0.2c0.2,0.1,0.4,0.3,0.5,0.6
			c0.1,0.3,0.2,0.5,0.2,0.9c0,0.3-0.1,0.6-0.2,0.9c-0.1,0.3-0.3,0.5-0.6,0.6c-0.2,0.1-0.5,0.2-0.8,0.2c-0.3,0-0.6-0.1-0.8-0.2
			c-0.2-0.1-0.4-0.3-0.5-0.6C-391.3,465.4-391.4,465.1-391.4,464.8z M-390.9,464.8c0,0.4,0.1,0.7,0.3,0.9c0.2,0.2,0.5,0.3,0.8,0.3
			c0.3,0,0.6-0.1,0.8-0.3c0.2-0.2,0.3-0.5,0.3-1c0-0.3,0-0.5-0.1-0.7c-0.1-0.2-0.2-0.3-0.4-0.5c-0.2-0.1-0.4-0.2-0.6-0.2
			c-0.3,0-0.6,0.1-0.8,0.3C-390.8,464-390.9,464.3-390.9,464.8z"/>
		<path d="M-385.7,466.4l-1.2-3.2h0.5l0.8,2.3c0.1,0.2,0.1,0.4,0.2,0.5c0-0.2,0.1-0.4,0.2-0.5l0.9-2.3h0.4l-1.3,3.2H-385.7z"/>
		<path d="M-382.4,466.4v-3.2h2.3v0.4h-1.9v1h1.8v0.4h-1.8v1.1h2v0.4H-382.4z"/>
		<path d="M-375.8,466.4v-3.2h1.2c0.2,0,0.4,0,0.5,0c0.2,0,0.3,0.1,0.4,0.2c0.1,0.1,0.2,0.2,0.3,0.3s0.1,0.3,0.1,0.4
			c0,0.3-0.1,0.5-0.3,0.7c-0.2,0.2-0.5,0.3-0.9,0.3h-0.8v1.3H-375.8z M-375.4,464.7h0.8c0.3,0,0.5-0.1,0.6-0.2
			c0.1-0.1,0.2-0.2,0.2-0.4c0-0.1,0-0.3-0.1-0.3c-0.1-0.1-0.2-0.2-0.3-0.2c-0.1,0-0.2,0-0.4,0h-0.8V464.7z"/>
		<path d="M-371.6,466.4v-3.2h2.3v0.4h-1.9v1h1.8v0.4h-1.8v1.1h2v0.4H-371.6z"/>
		<path d="M-366.6,466.4v-2.8h-1.1v-0.4h2.6v0.4h-1.1v2.8H-366.6z"/>
	</g>
</g>
<text transform="matrix(1 0 0 1 -403.1977 406.1226)" style="font-family:'Arial-BoldMT'; font-size:6.1526px;">PETcellent</text>
<text transform="matrix(1 0 0 1 -402.1787 409.3804)" style="font-family:'ArialMT'; font-size:2.4117px;">EVERY LOVE PET</text>
<g>
	<g>
		<path d="M-470.6,447.6h-6.5c-1.9,0-3.4,1.5-3.4,3.4v1.8c0,1.9,1.5,3.4,3.4,3.4h6.5c1.9,0,3.4-1.5,3.4-3.4V451
			C-467.3,449.1-468.8,447.6-470.6,447.6z"/>
		<g>
			<path d="M-463.2,460c0,1-0.8,1.8-1.8,1.8h-6.5c-0.8,0-1.5-0.5-1.7-1.3c0-0.2,0-0.3,0-0.5v-6.1h-0.1h-1.5h-0.1v6.1
				c0,0.2,0,0.3,0,0.5c-0.2,0.7-0.9,1.3-1.7,1.3h-6.5c-1,0-1.8-0.8-1.8-1.8h-1.6c0,1.9,1.5,3.4,3.4,3.4h6.5c0.6,0,1.2-0.2,1.7-0.4
				v5.1h1.6v-5.1c0.5,0.3,1.1,0.5,1.8,0.5h6.5c1.9,0,3.4-1.5,3.4-3.4H-463.2z"/>
			<path d="M-470.6,466.6c0,1.4-1.2,2.6-2.6,2.6h-1.4c-1.4,0-2.6-1.2-2.6-2.6V464h-1.6v2.6c0,2.3,1.9,4.2,4.2,4.2h1.4
				c2.3,0,4.2-1.9,4.2-4.2V464h-1.6V466.6z"/>
		</g>
	</g>
	<g>
		<path d="M-489.2,476.8v-4.4h1.4c0.5,0,0.9,0,1.1,0.1c0.3,0.1,0.5,0.2,0.6,0.4c0.2,0.2,0.3,0.5,0.3,0.9c0,0.3,0,0.5-0.1,0.7
			c-0.1,0.2-0.2,0.3-0.4,0.4c-0.2,0.1-0.3,0.2-0.5,0.2c-0.2,0-0.5,0.1-0.9,0.1h-0.6v1.7H-489.2z M-488.3,473.2v1.3h0.5
			c0.4,0,0.6,0,0.7-0.1c0.1,0,0.2-0.1,0.3-0.2c0.1-0.1,0.1-0.2,0.1-0.3c0-0.2,0-0.3-0.1-0.4c-0.1-0.1-0.2-0.2-0.4-0.2
			c-0.1,0-0.3,0-0.6,0H-488.3z"/>
		<path d="M-485.1,476.8v-4.4h3.3v0.7h-2.4v1h2.2v0.7h-2.2v1.2h2.5v0.7H-485.1z"/>
		<path d="M-480,476.8v-3.7h-1.3v-0.7h3.5v0.7h-1.3v3.7H-480z"/>
		<path d="M-474.9,474.6l-0.8,0.2c0-0.2-0.1-0.3-0.2-0.4c-0.1-0.1-0.2-0.1-0.4-0.1c-0.2,0-0.4,0.1-0.5,0.2c-0.1,0.1-0.2,0.4-0.2,0.7
			c0,0.4,0.1,0.6,0.2,0.8c0.1,0.2,0.3,0.2,0.5,0.2c0.2,0,0.3,0,0.4-0.1c0.1-0.1,0.2-0.2,0.2-0.5l0.8,0.1c-0.1,0.4-0.3,0.7-0.5,0.9
			c-0.2,0.2-0.6,0.3-1,0.3c-0.5,0-0.8-0.1-1.1-0.4c-0.3-0.3-0.4-0.7-0.4-1.2c0-0.5,0.1-0.9,0.4-1.2c0.3-0.3,0.7-0.4,1.1-0.4
			c0.4,0,0.7,0.1,0.9,0.3C-475.2,474-475,474.2-474.9,474.6z"/>
		<path d="M-472.4,475.8l0.8,0.1c-0.1,0.3-0.3,0.5-0.5,0.7c-0.2,0.2-0.5,0.2-0.9,0.2c-0.6,0-1-0.2-1.2-0.5c-0.2-0.3-0.3-0.7-0.3-1.1
			c0-0.5,0.1-0.9,0.4-1.2c0.3-0.3,0.6-0.4,1-0.4c0.5,0,0.8,0.2,1.1,0.5c0.3,0.3,0.4,0.8,0.4,1.4h-2.1c0,0.3,0.1,0.4,0.2,0.6
			c0.1,0.1,0.3,0.2,0.5,0.2c0.1,0,0.2,0,0.3-0.1C-472.5,476.1-472.5,476-472.4,475.8z M-472.4,475c0-0.2-0.1-0.4-0.2-0.6
			c-0.1-0.1-0.3-0.2-0.4-0.2c-0.2,0-0.3,0.1-0.5,0.2c-0.1,0.1-0.2,0.3-0.2,0.5H-472.4z"/>
		<path d="M-470.8,476.8v-4.4h0.8v4.4H-470.8z"/>
		<path d="M-469.1,476.8v-4.4h0.8v4.4H-469.1z"/>
		<path d="M-465.6,475.8l0.8,0.1c-0.1,0.3-0.3,0.5-0.5,0.7c-0.2,0.2-0.5,0.2-0.9,0.2c-0.6,0-1-0.2-1.2-0.5c-0.2-0.3-0.3-0.7-0.3-1.1
			c0-0.5,0.1-0.9,0.4-1.2s0.6-0.4,1-0.4c0.5,0,0.8,0.2,1.1,0.5c0.3,0.3,0.4,0.8,0.4,1.4h-2.1c0,0.3,0.1,0.4,0.2,0.6
			c0.1,0.1,0.3,0.2,0.5,0.2c0.1,0,0.2,0,0.3-0.1C-465.7,476.1-465.6,476-465.6,475.8z M-465.5,475c0-0.2-0.1-0.4-0.2-0.6
			c-0.1-0.1-0.3-0.2-0.4-0.2c-0.2,0-0.3,0.1-0.5,0.2c-0.1,0.1-0.2,0.3-0.2,0.5H-465.5z"/>
		<path d="M-461.1,476.8h-0.8v-1.6c0-0.3,0-0.6-0.1-0.7c0-0.1-0.1-0.2-0.2-0.2c-0.1-0.1-0.2-0.1-0.3-0.1c-0.1,0-0.3,0-0.4,0.1
			c-0.1,0.1-0.2,0.2-0.2,0.3c0,0.1-0.1,0.4-0.1,0.7v1.4h-0.8v-3.2h0.8v0.5c0.3-0.4,0.6-0.5,1.1-0.5c0.2,0,0.4,0,0.5,0.1
			s0.3,0.2,0.4,0.3c0.1,0.1,0.1,0.2,0.2,0.4c0,0.1,0,0.3,0,0.6V476.8z"/>
		<path d="M-458.8,473.6v0.7h-0.6v1.3c0,0.3,0,0.4,0,0.5c0,0,0,0.1,0.1,0.1c0,0,0.1,0,0.1,0c0.1,0,0.2,0,0.3-0.1l0.1,0.7
			c-0.2,0.1-0.4,0.1-0.7,0.1c-0.2,0-0.3,0-0.4-0.1c-0.1-0.1-0.2-0.1-0.3-0.2c-0.1-0.1-0.1-0.2-0.1-0.3c0-0.1,0-0.3,0-0.6v-1.4h-0.4
			v-0.7h0.4V473l0.8-0.5v1.1H-458.8z"/>
	</g>
	<g>
		<path d="M-488.2,480.1v-1.7h1.2v0.2h-1v0.5h1v0.2h-1v0.6h1.1v0.2H-488.2z"/>
		<path d="M-485.5,480.1l-0.7-1.7h0.2l0.4,1.3c0,0.1,0.1,0.2,0.1,0.3c0-0.1,0.1-0.2,0.1-0.3l0.5-1.3h0.2l-0.7,1.7H-485.5z"/>
		<path d="M-483.7,480.1v-1.7h1.2v0.2h-1v0.5h1v0.2h-1v0.6h1.1v0.2H-483.7z"/>
		<path d="M-481.5,480.1v-1.7h0.8c0.2,0,0.3,0,0.4,0c0.1,0,0.1,0.1,0.2,0.2c0,0.1,0.1,0.2,0.1,0.3c0,0.1,0,0.2-0.1,0.3
			c-0.1,0.1-0.2,0.1-0.4,0.2c0.1,0,0.1,0.1,0.1,0.1c0.1,0.1,0.1,0.1,0.2,0.2l0.3,0.5h-0.3l-0.2-0.4c-0.1-0.1-0.1-0.2-0.2-0.2
			c0-0.1-0.1-0.1-0.1-0.1c0,0-0.1,0-0.1,0c0,0-0.1,0-0.1,0h-0.3v0.8H-481.5z M-481.3,479.1h0.5c0.1,0,0.2,0,0.2,0
			c0.1,0,0.1-0.1,0.1-0.1c0,0,0-0.1,0-0.2c0-0.1,0-0.1-0.1-0.2c-0.1-0.1-0.2-0.1-0.3-0.1h-0.5V479.1z"/>
		<path d="M-478.7,480.1v-0.7l-0.7-1h0.3l0.3,0.5c0.1,0.1,0.1,0.2,0.2,0.3c0.1-0.1,0.1-0.2,0.2-0.3l0.3-0.5h0.3l-0.7,1v0.7H-478.7z"
			/>
		<path d="M-475.7,480.1v-1.7h0.2v1.5h0.9v0.2H-475.7z"/>
		<path d="M-473.8,479.2c0-0.3,0.1-0.5,0.2-0.7c0.2-0.2,0.4-0.2,0.6-0.2c0.2,0,0.3,0,0.4,0.1c0.1,0.1,0.2,0.2,0.3,0.3
			c0.1,0.1,0.1,0.3,0.1,0.5c0,0.2,0,0.3-0.1,0.5c-0.1,0.1-0.2,0.2-0.3,0.3c-0.1,0.1-0.3,0.1-0.4,0.1c-0.2,0-0.3,0-0.4-0.1
			c-0.1-0.1-0.2-0.2-0.3-0.3C-473.7,479.5-473.8,479.4-473.8,479.2z M-473.5,479.2c0,0.2,0.1,0.4,0.2,0.5c0.1,0.1,0.3,0.2,0.4,0.2
			c0.2,0,0.3-0.1,0.4-0.2c0.1-0.1,0.2-0.3,0.2-0.5c0-0.1,0-0.3-0.1-0.4c0-0.1-0.1-0.2-0.2-0.2c-0.1-0.1-0.2-0.1-0.3-0.1
			c-0.2,0-0.3,0.1-0.4,0.2C-473.5,478.8-473.5,479-473.5,479.2z"/>
		<path d="M-470.7,480.1l-0.7-1.7h0.2l0.4,1.3c0,0.1,0.1,0.2,0.1,0.3c0-0.1,0.1-0.2,0.1-0.3l0.5-1.3h0.2l-0.7,1.7H-470.7z"/>
		<path d="M-469,480.1v-1.7h1.2v0.2h-1v0.5h1v0.2h-1v0.6h1.1v0.2H-469z"/>
		<path d="M-465.4,480.1v-1.7h0.7c0.1,0,0.2,0,0.3,0c0.1,0,0.2,0,0.2,0.1c0.1,0,0.1,0.1,0.1,0.2c0,0.1,0.1,0.2,0.1,0.2
			c0,0.1,0,0.3-0.1,0.4c-0.1,0.1-0.3,0.2-0.5,0.2h-0.4v0.7H-465.4z M-465.2,479.2h0.4c0.1,0,0.3,0,0.3-0.1c0.1-0.1,0.1-0.1,0.1-0.2
			c0-0.1,0-0.1-0.1-0.2c0-0.1-0.1-0.1-0.1-0.1c0,0-0.1,0-0.2,0h-0.4V479.2z"/>
		<path d="M-463.2,480.1v-1.7h1.2v0.2h-1v0.5h1v0.2h-1v0.6h1.1v0.2H-463.2z"/>
		<path d="M-460.5,480.1v-1.5h-0.6v-0.2h1.4v0.2h-0.6v1.5H-460.5z"/>
	</g>
</g>
<g>
	<g>
		<path d="M-467.9,303.6h-12.1c-3.5,0-6.3,2.8-6.3,6.3v3.4c0,3.5,2.8,6.3,6.3,6.3h12.1c3.5,0,6.3-2.8,6.3-6.3v-3.4
			C-461.6,306.4-464.5,303.6-467.9,303.6z"/>
		<g>
			<path d="M-454,326.6c0,1.8-1.5,3.3-3.3,3.3h-12.1c-1.5,0-2.8-1-3.1-2.4c0-0.3,0.1-0.6,0.1-0.9v-11.3h-0.2h-2.8h-0.2v11.3
				c0,0.3,0,0.6,0.1,0.9c-0.4,1.4-1.6,2.4-3.1,2.4h-12.1c-1.8,0-3.3-1.5-3.3-3.3h-3c0,3.5,2.8,6.3,6.3,6.3h12.1
				c1.1,0,2.2-0.3,3.1-0.8v9.5h3v-9.6c1,0.6,2.1,0.9,3.3,0.9h12.1c3.5,0,6.3-2.8,6.3-6.3H-454z"/>
			<path d="M-467.8,338.8c0,2.7-2.2,4.9-4.9,4.9h-2.6c-2.7,0-4.9-2.2-4.9-4.9v-4.8h-3v4.8c0,4.3,3.5,7.9,7.9,7.9h2.6
				c4.3,0,7.9-3.5,7.9-7.9v-4.8h-3V338.8z"/>
		</g>
	</g>
	<g>
		<path d="M-495.1,341.7l0.9,1.2l-0.7,0.5c0.4,0,0.7,0.1,1,0.2c0.3,0.2,0.6,0.4,0.9,0.7c0.4,0.6,0.5,1.2,0.4,1.9
			c-0.2,0.7-0.6,1.3-1.4,1.9c-0.8,0.6-1.6,0.8-2.3,0.7c-0.7-0.1-1.3-0.4-1.7-1c-0.2-0.3-0.3-0.5-0.4-0.8c0-0.3,0-0.7,0.1-1.1
			l-2.4,1.7l-0.9-1.3L-495.1,341.7z M-496.6,344.6c-0.5,0.4-0.9,0.8-1,1.2c-0.1,0.4,0,0.8,0.2,1.1c0.2,0.3,0.5,0.5,0.9,0.5
			c0.4,0,0.8-0.2,1.4-0.5c0.5-0.4,0.8-0.7,0.9-1.1c0.1-0.4,0-0.7-0.2-1c-0.2-0.3-0.5-0.5-0.9-0.5
			C-495.6,344.1-496.1,344.3-496.6,344.6z"/>
		<path d="M-490.8,352.4l1.1,1.2c-0.5,0.3-1,0.5-1.6,0.4c-0.5,0-1-0.3-1.6-0.7c-0.8-0.7-1.2-1.4-1.1-2.2c0-0.7,0.3-1.3,0.8-2
			c0.6-0.8,1.3-1.2,2.1-1.3c0.8-0.1,1.4,0.1,2,0.6c0.7,0.6,1,1.2,1.1,2c0,0.8-0.3,1.6-1.1,2.5l-3.1-2.5c-0.3,0.4-0.4,0.7-0.4,1.1
			c0,0.4,0.2,0.6,0.5,0.9c0.2,0.2,0.4,0.2,0.6,0.2C-491.3,352.7-491.1,352.6-490.8,352.4z M-489.8,351.3c0.3-0.4,0.4-0.7,0.4-1
			c0-0.3-0.2-0.6-0.4-0.8c-0.3-0.2-0.6-0.3-0.9-0.2c-0.3,0.1-0.6,0.2-0.9,0.6L-489.8,351.3z"/>
		<path d="M-483.5,352.1l-0.6,1.1l-1-0.5l-1.1,2.1c-0.2,0.4-0.3,0.7-0.4,0.8c0,0.1,0,0.2,0,0.2c0,0.1,0.1,0.1,0.2,0.2
			c0.1,0.1,0.3,0.1,0.6,0.2l-0.4,1.1c-0.4,0-0.8-0.2-1.2-0.4c-0.3-0.1-0.5-0.3-0.6-0.5c-0.2-0.2-0.3-0.4-0.3-0.6
			c0-0.2,0-0.4,0.1-0.6c0.1-0.2,0.2-0.5,0.5-1l1.2-2.3l-0.6-0.3l0.6-1.1l0.6,0.3l0.5-1.1l1.8-0.1l-1,1.9L-483.5,352.1z"/>
		<path d="M-478.2,355.6l-1.6-0.1c0-0.3,0-0.6-0.2-0.8c-0.1-0.2-0.3-0.3-0.6-0.4c-0.4-0.1-0.7-0.1-1,0.1c-0.3,0.2-0.5,0.6-0.7,1.2
			c-0.2,0.7-0.2,1.2-0.1,1.5c0.2,0.3,0.4,0.6,0.8,0.7c0.3,0.1,0.5,0.1,0.8,0c0.2-0.1,0.4-0.4,0.6-0.7l1.4,0.7
			c-0.3,0.6-0.8,1.1-1.3,1.3c-0.5,0.2-1.2,0.2-1.9,0c-0.8-0.2-1.4-0.7-1.8-1.4c-0.4-0.7-0.4-1.5-0.1-2.4c0.3-0.9,0.7-1.6,1.4-2
			c0.6-0.4,1.4-0.5,2.3-0.2c0.7,0.2,1.2,0.5,1.5,0.9C-478.3,354.4-478.2,354.9-478.2,355.6z"/>
		<path d="M-473.2,358.1l1.6,0.3c-0.2,0.6-0.5,1-1,1.3c-0.4,0.3-1,0.4-1.6,0.4c-1,0-1.8-0.4-2.3-1.1c-0.4-0.5-0.6-1.2-0.6-2.1
			c0-1,0.3-1.8,0.8-2.3c0.5-0.6,1.2-0.8,2-0.8c0.9,0,1.6,0.3,2.1,0.9c0.5,0.6,0.7,1.5,0.7,2.7l-3.9-0.1c0,0.5,0.1,0.8,0.4,1.1
			c0.2,0.3,0.5,0.4,0.9,0.4c0.2,0,0.5-0.1,0.6-0.2S-473.3,358.4-473.2,358.1z M-473.1,356.5c0-0.5-0.1-0.8-0.3-1
			c-0.2-0.2-0.5-0.4-0.8-0.4c-0.3,0-0.6,0.1-0.9,0.4c-0.2,0.2-0.3,0.6-0.3,1L-473.1,356.5z"/>
		<path d="M-469.4,359.6l-1.5-8.1l1.6-0.3l1.5,8.1L-469.4,359.6z"/>
		<path d="M-465.6,358.8l-2.5-7.8l1.5-0.5l2.5,7.8L-465.6,358.8z"/>
		<path d="M-459.5,354.1l1.5-0.5c0.1,0.6,0,1.1-0.2,1.6c-0.2,0.5-0.6,0.9-1.2,1.2c-0.9,0.5-1.7,0.6-2.5,0.2
			c-0.6-0.3-1.1-0.8-1.5-1.5c-0.5-0.9-0.6-1.7-0.4-2.4c0.2-0.7,0.6-1.3,1.3-1.7c0.8-0.4,1.5-0.5,2.3-0.2c0.7,0.3,1.4,0.9,1.9,2
			l-3.5,1.9c0.2,0.4,0.5,0.7,0.9,0.8c0.3,0.1,0.7,0.1,1-0.1c0.2-0.1,0.4-0.3,0.4-0.5C-459.5,354.6-459.5,354.4-459.5,354.1z
			 M-460.2,352.6c-0.2-0.4-0.5-0.6-0.8-0.7c-0.3-0.1-0.6-0.1-0.9,0.1c-0.3,0.2-0.5,0.4-0.6,0.7c-0.1,0.3,0,0.7,0.2,1.1L-460.2,352.6
			z"/>
		<path d="M-451.1,349.5l-1.1,1.1l-2.1-2.2c-0.4-0.5-0.8-0.7-0.9-0.8c-0.2-0.1-0.4-0.1-0.5-0.1c-0.2,0-0.3,0.1-0.5,0.3
			c-0.2,0.2-0.3,0.4-0.4,0.7c-0.1,0.3,0,0.5,0.1,0.7c0.1,0.2,0.4,0.6,0.9,1.1l1.9,1.9l-1.1,1.1l-4.2-4.3l1-1l0.6,0.6
			c-0.1-0.8,0.1-1.5,0.7-2.1c0.2-0.2,0.5-0.4,0.8-0.5c0.3-0.1,0.6-0.1,0.8-0.1s0.5,0.1,0.7,0.3c0.2,0.1,0.5,0.4,0.8,0.7
			L-451.1,349.5z"/>
		<path d="M-453,341.8l1.1,0.7l-0.6,0.9l2,1.3c0.4,0.3,0.6,0.4,0.7,0.4c0.1,0,0.2,0,0.2,0c0.1,0,0.2-0.1,0.2-0.2
			c0.1-0.1,0.2-0.3,0.2-0.6l1.1,0.6c-0.1,0.4-0.2,0.8-0.5,1.2c-0.2,0.2-0.3,0.4-0.5,0.6c-0.2,0.1-0.4,0.2-0.6,0.2
			c-0.2,0-0.4,0-0.6-0.2c-0.2-0.1-0.5-0.3-1-0.6l-2.2-1.4l-0.4,0.6l-1.1-0.7l0.4-0.6l-1-0.6l0.1-1.8l1.8,1.2L-453,341.8z"/>
	</g>
</g>
<g>
	<g>
		<path d="M-465.9,379.4H-478c-3.5,0-6.3,2.8-6.3,6.3v3.4c0,3.5,2.8,6.3,6.3,6.3h12.1c3.5,0,6.3-2.8,6.3-6.3v-3.4
			C-459.6,382.2-462.4,379.4-465.9,379.4z"/>
		<g>
			<path d="M-452,402.4c0,1.8-1.5,3.3-3.3,3.3h-12.1c-1.5,0-2.8-1-3.1-2.4c0-0.3,0.1-0.6,0.1-0.9v-11.3h-0.2h-2.8h-0.2v11.3
				c0,0.3,0,0.6,0.1,0.9c-0.4,1.4-1.6,2.4-3.1,2.4h-12.1c-1.8,0-3.3-1.5-3.3-3.3h-3c0,3.5,2.8,6.3,6.3,6.3h12.1
				c1.1,0,2.2-0.3,3.1-0.8v9.5h3v-9.6c1,0.6,2.1,0.9,3.3,0.9h12.1c3.5,0,6.3-2.8,6.3-6.3H-452z"/>
			<path d="M-465.8,414.7c0,2.7-2.2,4.9-4.9,4.9h-2.6c-2.7,0-4.9-2.2-4.9-4.9v-4.8h-3v4.8c0,4.3,3.5,7.9,7.9,7.9h2.6
				c4.3,0,7.9-3.5,7.9-7.9v-4.8h-3V414.7z"/>
		</g>
	</g>
	<g>
		<path d="M-493.1,417.5l0.9,1.2l-0.7,0.5c0.4,0,0.7,0.1,1,0.2s0.6,0.4,0.9,0.7c0.4,0.6,0.5,1.2,0.4,1.9c-0.2,0.7-0.6,1.3-1.4,1.9
			c-0.8,0.6-1.6,0.8-2.3,0.7c-0.7-0.1-1.3-0.4-1.7-1c-0.2-0.3-0.3-0.5-0.4-0.8c0-0.3,0-0.7,0.1-1.1l-2.4,1.7l-0.9-1.3L-493.1,417.5z
			 M-494.5,420.5c-0.5,0.4-0.9,0.8-1,1.2c-0.1,0.4,0,0.8,0.2,1.1c0.2,0.3,0.5,0.5,0.9,0.5c0.4,0,0.8-0.2,1.4-0.5
			c0.5-0.4,0.8-0.7,0.9-1.1c0.1-0.4,0-0.7-0.2-1c-0.2-0.3-0.5-0.5-0.9-0.5C-493.6,420-494,420.1-494.5,420.5z"/>
		<path d="M-488.8,428.3l1.1,1.2c-0.5,0.3-1,0.5-1.6,0.4c-0.5,0-1-0.3-1.6-0.7c-0.8-0.7-1.2-1.4-1.1-2.2c0-0.7,0.3-1.3,0.8-2
			c0.6-0.8,1.3-1.2,2.1-1.3c0.8-0.1,1.4,0.1,2,0.6c0.7,0.6,1,1.2,1.1,2c0,0.8-0.3,1.6-1.1,2.5l-3.1-2.5c-0.3,0.4-0.4,0.7-0.4,1.1
			c0,0.4,0.2,0.6,0.5,0.9c0.2,0.2,0.4,0.2,0.6,0.2C-489.3,428.6-489.1,428.5-488.8,428.3z M-487.7,427.1c0.3-0.4,0.4-0.7,0.4-1
			c0-0.3-0.2-0.6-0.4-0.8c-0.3-0.2-0.6-0.3-0.9-0.2c-0.3,0.1-0.6,0.2-0.9,0.6L-487.7,427.1z"/>
		<path d="M-481.5,427.9l-0.6,1.1l-1-0.5l-1.1,2.1c-0.2,0.4-0.3,0.7-0.4,0.8c0,0.1,0,0.2,0,0.2c0,0.1,0.1,0.1,0.2,0.2
			c0.1,0.1,0.3,0.1,0.6,0.2l-0.4,1.1c-0.4,0-0.8-0.2-1.2-0.4c-0.3-0.1-0.5-0.3-0.6-0.5c-0.2-0.2-0.3-0.4-0.3-0.6
			c0-0.2,0-0.4,0.1-0.6c0.1-0.2,0.2-0.5,0.5-1l1.2-2.3l-0.6-0.3l0.6-1.1l0.6,0.3l0.5-1.1l1.8-0.1l-1,1.9L-481.5,427.9z"/>
		<path d="M-476.1,431.4l-1.6-0.1c0-0.3,0-0.6-0.2-0.8c-0.1-0.2-0.3-0.3-0.6-0.4c-0.4-0.1-0.7-0.1-1,0.1c-0.3,0.2-0.5,0.6-0.7,1.2
			c-0.2,0.7-0.2,1.2-0.1,1.5c0.2,0.3,0.4,0.6,0.8,0.7c0.3,0.1,0.5,0.1,0.8,0c0.2-0.1,0.4-0.4,0.6-0.7l1.4,0.7
			c-0.3,0.6-0.8,1.1-1.3,1.3c-0.5,0.2-1.2,0.2-1.9,0c-0.8-0.2-1.4-0.7-1.8-1.4c-0.4-0.7-0.4-1.5-0.1-2.4c0.3-0.9,0.7-1.6,1.4-2
			c0.6-0.4,1.4-0.5,2.3-0.2c0.7,0.2,1.2,0.5,1.5,0.9C-476.3,430.2-476.1,430.8-476.1,431.4z"/>
		<path d="M-471.2,433.9l1.6,0.3c-0.2,0.6-0.5,1-1,1.3c-0.4,0.3-1,0.4-1.6,0.4c-1,0-1.8-0.4-2.3-1.1c-0.4-0.5-0.6-1.2-0.6-2.1
			c0-1,0.3-1.8,0.8-2.3c0.5-0.6,1.2-0.8,2-0.8c0.9,0,1.6,0.3,2.1,0.9c0.5,0.6,0.7,1.5,0.7,2.7l-3.9-0.1c0,0.5,0.1,0.8,0.4,1.1
			c0.2,0.3,0.5,0.4,0.9,0.4c0.2,0,0.5-0.1,0.6-0.2C-471.4,434.4-471.3,434.2-471.2,433.9z M-471.1,432.3c0-0.5-0.1-0.8-0.3-1
			c-0.2-0.2-0.5-0.4-0.8-0.4c-0.3,0-0.6,0.1-0.9,0.4c-0.2,0.2-0.3,0.6-0.3,1L-471.1,432.3z"/>
		<path d="M-467.4,435.5l-1.5-8.1l1.6-0.3l1.5,8.1L-467.4,435.5z"/>
		<path d="M-463.6,434.6l-2.5-7.8l1.5-0.5l2.5,7.8L-463.6,434.6z"/>
		<path d="M-457.5,429.9l1.5-0.5c0.1,0.6,0,1.1-0.2,1.6c-0.2,0.5-0.6,0.9-1.2,1.2c-0.9,0.5-1.7,0.6-2.5,0.2
			c-0.6-0.3-1.1-0.8-1.5-1.5c-0.5-0.9-0.6-1.7-0.4-2.4c0.2-0.7,0.6-1.3,1.3-1.7c0.8-0.4,1.5-0.5,2.3-0.2c0.7,0.3,1.4,0.9,1.9,2
			l-3.5,1.9c0.2,0.4,0.5,0.7,0.9,0.8c0.3,0.1,0.7,0.1,1-0.1c0.2-0.1,0.4-0.3,0.4-0.5C-457.4,430.5-457.4,430.2-457.5,429.9z
			 M-458.2,428.5c-0.2-0.4-0.5-0.6-0.8-0.7c-0.3-0.1-0.6-0.1-0.9,0.1c-0.3,0.2-0.5,0.4-0.6,0.7c-0.1,0.3,0,0.7,0.2,1.1L-458.2,428.5
			z"/>
		<path d="M-449.1,425.4l-1.1,1.1l-2.1-2.2c-0.4-0.5-0.8-0.7-0.9-0.8c-0.2-0.1-0.4-0.1-0.5-0.1c-0.2,0-0.3,0.1-0.5,0.3
			c-0.2,0.2-0.3,0.4-0.4,0.7c-0.1,0.3,0,0.5,0.1,0.7c0.1,0.2,0.4,0.6,0.9,1.1l1.9,1.9l-1.1,1.1l-4.2-4.3l1-1l0.6,0.6
			c-0.1-0.8,0.1-1.5,0.7-2.1c0.2-0.2,0.5-0.4,0.8-0.5c0.3-0.1,0.6-0.1,0.8-0.1s0.5,0.1,0.7,0.3c0.2,0.1,0.5,0.4,0.8,0.7
			L-449.1,425.4z"/>
		<path d="M-451,417.6l1.1,0.7l-0.6,0.9l2,1.3c0.4,0.3,0.6,0.4,0.7,0.4c0.1,0,0.2,0,0.2,0c0.1,0,0.2-0.1,0.2-0.2
			c0.1-0.1,0.2-0.3,0.2-0.6l1.1,0.6c-0.1,0.4-0.2,0.8-0.5,1.2c-0.2,0.2-0.3,0.4-0.5,0.6c-0.2,0.1-0.4,0.2-0.6,0.2
			c-0.2,0-0.4,0-0.6-0.2c-0.2-0.1-0.5-0.3-1-0.6l-2.2-1.4l-0.4,0.6l-1.1-0.7l0.4-0.6l-1-0.6l0.1-1.8l1.8,1.2L-451,417.6z"/>
	</g>
</g>
<g>
	<g>
		<path class="st2" d="M-334.4-25.3h-22.1c-6.3,0-11.5,5.1-11.5,11.5v6.2c0,6.3,5.1,11.5,11.5,11.5h22.1c6.3,0,11.5-5.1,11.5-11.5
			v-6.2C-322.9-20.1-328.1-25.3-334.4-25.3z"/>
		<g>
			<path class="st2" d="M-309,16.7c0,3.3-2.7,6-6,6h-22.1c-2.7,0-5-1.9-5.7-4.4c0.1-0.5,0.1-1,0.1-1.6V-4h-0.4h-5.1h-0.4v20.7
				c0,0.5,0.1,1.1,0.1,1.6c-0.7,2.5-3,4.4-5.7,4.4h-22.1c-3.3,0-6-2.7-6-6h-5.5c0,6.3,5.1,11.5,11.5,11.5h22.1c2,0,4-0.5,5.6-1.5
				v17.3h5.5V26.4c1.7,1.1,3.8,1.7,6,1.7h22.1c6.3,0,11.5-5.1,11.5-11.5H-309z"/>
			<path class="st2" d="M-334.2,39.1c0,4.9-4,8.9-8.9,8.9h-4.7c-4.9,0-8.9-4-8.9-8.9v-8.7h-5.5v8.7c0,7.9,6.4,14.4,14.4,14.4h4.7
				c7.9,0,14.4-6.4,14.4-14.4v-8.7h-5.5V39.1z"/>
		</g>
	</g>
	<g>
		<path class="st2" d="M-308.7,12.1v-28h9.1c3.4,0,5.7,0.1,6.7,0.4c1.6,0.4,2.9,1.3,4,2.7c1.1,1.4,1.6,3.2,1.6,5.4
			c0,1.7-0.3,3.2-0.9,4.3c-0.6,1.2-1.4,2.1-2.4,2.8c-1,0.7-1.9,1.1-2.9,1.3c-1.3,0.3-3.3,0.4-5.9,0.4h-3.7v10.5H-308.7z M-303-11.1
			v7.9h3.1c2.2,0,3.7-0.1,4.5-0.4c0.7-0.3,1.3-0.8,1.8-1.4c0.4-0.6,0.6-1.3,0.6-2.2c0-1-0.3-1.9-0.9-2.5c-0.6-0.7-1.4-1.1-2.3-1.2
			c-0.7-0.1-2-0.2-4.1-0.2H-303z"/>
		<path class="st2" d="M-282.6,12.1v-28h20.7v4.7H-277v6.2h14v4.7h-14v7.6h15.6v4.7H-282.6z"/>
		<path class="st2" d="M-250.3,12.1v-23.2h-8.3v-4.7h22.2v4.7h-8.3v23.2H-250.3z"/>
		<path class="st2" d="M-218-2.1l-5.3,1c-0.2-1.1-0.6-1.8-1.2-2.4c-0.6-0.5-1.4-0.8-2.5-0.8c-1.3,0-2.4,0.5-3.2,1.4
			c-0.8,0.9-1.2,2.5-1.2,4.6c0,2.4,0.4,4.1,1.2,5.1c0.8,1,1.9,1.5,3.3,1.5c1,0,1.8-0.3,2.5-0.9c0.6-0.6,1.1-1.6,1.4-3l5.3,0.9
			c-0.5,2.4-1.6,4.2-3.1,5.5c-1.6,1.2-3.6,1.9-6.2,1.9c-3,0-5.3-0.9-7.1-2.8c-1.8-1.9-2.6-4.5-2.6-7.8c0-3.3,0.9-5.9,2.7-7.8
			c1.8-1.9,4.2-2.8,7.2-2.8c2.5,0,4.4,0.5,5.9,1.6C-219.7-5.9-218.6-4.3-218-2.1z"/>
		<path class="st2" d="M-202.2,5.7l5.3,0.9c-0.7,2-1.8,3.4-3.3,4.5c-1.5,1-3.3,1.5-5.6,1.5c-3.5,0-6.1-1.2-7.8-3.5
			c-1.3-1.8-2-4.2-2-7c0-3.4,0.9-6,2.6-7.9c1.8-1.9,4-2.9,6.7-2.9c3,0,5.4,1,7.1,3c1.7,2,2.6,5,2.5,9.1H-210c0,1.6,0.5,2.8,1.3,3.7
			c0.8,0.9,1.9,1.3,3.1,1.3c0.8,0,1.5-0.2,2.1-0.7C-202.9,7.4-202.5,6.7-202.2,5.7z M-201.9,0.3c0-1.6-0.4-2.7-1.2-3.5
			c-0.8-0.8-1.7-1.2-2.8-1.2c-1.2,0-2.1,0.4-2.9,1.3c-0.8,0.9-1.1,2-1.1,3.5H-201.9z"/>
		<path class="st2" d="M-192.2,12.1v-28h5.4v28H-192.2z"/>
		<path class="st2" d="M-181.4,12.1v-28h5.4v28H-181.4z"/>
		<path class="st2" d="M-158.8,5.7l5.3,0.9c-0.7,2-1.8,3.4-3.3,4.5c-1.5,1-3.3,1.5-5.6,1.5c-3.5,0-6.1-1.2-7.8-3.5
			c-1.3-1.8-2-4.2-2-7c0-3.4,0.9-6,2.6-7.9c1.8-1.9,4-2.9,6.7-2.9c3,0,5.4,1,7.1,3c1.7,2,2.6,5,2.5,9.1h-13.4c0,1.6,0.5,2.8,1.3,3.7
			c0.8,0.9,1.9,1.3,3.1,1.3c0.8,0,1.5-0.2,2.1-0.7C-159.5,7.4-159.1,6.7-158.8,5.7z M-158.5,0.3c0-1.6-0.4-2.7-1.2-3.5
			c-0.8-0.8-1.7-1.2-2.8-1.2c-1.2,0-2.1,0.4-2.9,1.3c-0.8,0.9-1.1,2-1.1,3.5H-158.5z"/>
		<path class="st2" d="M-130.4,12.1h-5.4V1.8c0-2.2-0.1-3.6-0.3-4.2c-0.2-0.6-0.6-1.1-1.1-1.5c-0.5-0.4-1.1-0.5-1.9-0.5
			c-0.9,0-1.8,0.3-2.5,0.8c-0.7,0.5-1.2,1.2-1.5,2c-0.3,0.8-0.4,2.4-0.4,4.7v9.2h-5.4V-8.1h5v3c1.8-2.3,4-3.4,6.7-3.4
			c1.2,0,2.3,0.2,3.2,0.6c1,0.4,1.7,1,2.2,1.6c0.5,0.7,0.9,1.4,1,2.3c0.2,0.8,0.3,2,0.3,3.6V12.1z"/>
		<path class="st2" d="M-115.7-8.1v4.3h-3.7v8.2c0,1.7,0,2.6,0.1,2.9c0.1,0.3,0.2,0.5,0.5,0.7c0.2,0.2,0.5,0.3,0.9,0.3
			c0.5,0,1.2-0.2,2.2-0.5l0.5,4.2c-1.2,0.5-2.7,0.8-4.2,0.8c-1,0-1.8-0.2-2.6-0.5c-0.8-0.3-1.3-0.7-1.7-1.3
			c-0.4-0.5-0.6-1.2-0.8-2.1c-0.1-0.6-0.2-1.9-0.2-3.8v-8.8h-2.5v-4.3h2.5v-4l5.4-3.1v7.2H-115.7z"/>
	</g>
	<g>
		<path class="st2" d="M-295.9,32.8v-11h7.9v1.3h-6.5v3.4h6.1v1.3h-6.1v3.7h6.7v1.3H-295.9z"/>
		<path class="st2" d="M-278.6,32.8l-4.2-11h1.6l2.8,8c0.2,0.6,0.4,1.2,0.6,1.8c0.2-0.6,0.4-1.2,0.6-1.8l3-8h1.5l-4.3,11H-278.6z"/>
		<path class="st2" d="M-267.5,32.8v-11h7.9v1.3h-6.5v3.4h6.1v1.3h-6.1v3.7h6.7v1.3H-267.5z"/>
		<path class="st2" d="M-253.3,32.8v-11h4.9c1,0,1.7,0.1,2.2,0.3c0.5,0.2,0.9,0.5,1.2,1c0.3,0.5,0.5,1,0.5,1.7c0,0.8-0.3,1.4-0.8,2
			c-0.5,0.5-1.3,0.9-2.3,1c0.4,0.2,0.7,0.4,0.9,0.5c0.4,0.4,0.8,0.9,1.2,1.5l1.9,3h-1.8l-1.4-2.3c-0.4-0.7-0.8-1.2-1-1.5
			c-0.3-0.3-0.5-0.6-0.7-0.7c-0.2-0.1-0.4-0.2-0.7-0.3c-0.2,0-0.4-0.1-0.8-0.1h-1.7v4.9H-253.3z M-251.9,26.7h3.1
			c0.7,0,1.2-0.1,1.6-0.2c0.4-0.1,0.7-0.4,0.9-0.7c0.2-0.3,0.3-0.6,0.3-1c0-0.5-0.2-0.9-0.6-1.3c-0.4-0.3-1-0.5-1.8-0.5h-3.5V26.7z"
			/>
		<path class="st2" d="M-235.5,32.8v-4.6l-4.2-6.3h1.8l2.2,3.3c0.4,0.6,0.8,1.2,1.1,1.9c0.3-0.6,0.7-1.2,1.2-1.9l2.1-3.2h1.7
			l-4.4,6.3v4.6H-235.5z"/>
		<path class="st2" d="M-216.5,32.8v-11h1.5v9.7h5.4v1.3H-216.5z"/>
		<path class="st2" d="M-204.4,27.5c0-1.8,0.5-3.2,1.5-4.3c1-1,2.2-1.5,3.8-1.5c1,0,1.9,0.2,2.7,0.7c0.8,0.5,1.4,1.2,1.9,2
			c0.4,0.9,0.6,1.8,0.6,2.9c0,1.1-0.2,2.1-0.7,3c-0.4,0.9-1.1,1.5-1.9,2c-0.8,0.5-1.7,0.7-2.7,0.7c-1,0-2-0.3-2.8-0.7
			c-0.8-0.5-1.4-1.2-1.8-2C-204.2,29.3-204.4,28.4-204.4,27.5z M-202.9,27.5c0,1.3,0.4,2.4,1.1,3.1c0.7,0.8,1.6,1.1,2.7,1.1
			c1.1,0,2-0.4,2.7-1.2c0.7-0.8,1.1-1.9,1.1-3.3c0-0.9-0.1-1.7-0.5-2.3c-0.3-0.7-0.7-1.2-1.3-1.5c-0.6-0.4-1.2-0.5-2-0.5
			c-1,0-1.9,0.4-2.6,1.1C-202.5,24.7-202.9,25.8-202.9,27.5z"/>
		<path class="st2" d="M-185,32.8l-4.2-11h1.6l2.8,8c0.2,0.6,0.4,1.2,0.6,1.8c0.2-0.6,0.4-1.2,0.6-1.8l3-8h1.5l-4.3,11H-185z"/>
		<path class="st2" d="M-173.9,32.8v-11h7.9v1.3h-6.5v3.4h6.1v1.3h-6.1v3.7h6.7v1.3H-173.9z"/>
		<path class="st2" d="M-151.5,32.8v-11h4.1c0.7,0,1.3,0,1.7,0.1c0.5,0.1,1,0.3,1.4,0.5c0.4,0.3,0.7,0.6,0.9,1.1
			c0.2,0.5,0.3,1,0.3,1.5c0,0.9-0.3,1.7-0.9,2.4c-0.6,0.6-1.7,1-3.2,1h-2.8v4.5H-151.5z M-150,27.1h2.8c0.9,0,1.6-0.2,2-0.5
			c0.4-0.3,0.6-0.8,0.6-1.5c0-0.5-0.1-0.9-0.3-1.2c-0.2-0.3-0.5-0.5-0.9-0.6c-0.2-0.1-0.7-0.1-1.4-0.1h-2.8V27.1z"/>
		<path class="st2" d="M-137.2,32.8v-11h7.9v1.3h-6.5v3.4h6.1v1.3h-6.1v3.7h6.7v1.3H-137.2z"/>
		<path class="st2" d="M-120.3,32.8v-9.7h-3.6v-1.3h8.7v1.3h-3.6v9.7H-120.3z"/>
	</g>
</g>
<g>
	<g>
		<path d="M31.6,0.8H21.1c-3,0-5.4,2.4-5.4,5.4v2.9c0,3,2.4,5.4,5.4,5.4h10.5c3,0,5.4-2.4,5.4-5.4V6.2C37,3.2,34.6,0.8,31.6,0.8z"/>
		<g>
			<path d="M43.6,20.6c0,1.6-1.3,2.8-2.8,2.8H30.3c-1.3,0-2.4-0.9-2.7-2.1c0-0.2,0.1-0.5,0.1-0.7v-9.8h-0.2h-2.4h-0.2v9.8
				c0,0.3,0,0.5,0.1,0.7c-0.3,1.2-1.4,2.1-2.7,2.1H11.8c-1.6,0-2.8-1.3-2.8-2.8H6.4c0,3,2.4,5.4,5.4,5.4h10.5c1,0,1.9-0.3,2.6-0.7
				v8.1h2.6v-8.3c0.8,0.5,1.8,0.8,2.8,0.8h10.5c3,0,5.4-2.4,5.4-5.4H43.6z"/>
			<path d="M31.6,31.1c0,2.3-1.9,4.2-4.2,4.2h-2.2c-2.3,0-4.2-1.9-4.2-4.2V27h-2.6v4.1c0,3.7,3,6.8,6.8,6.8h2.2c3.7,0,6.8-3,6.8-6.8
				V27h-2.6V31.1z"/>
		</g>
	</g>
	<g>
		<path d="M8.2,33.5l0.7,1L8.3,35c0.3,0,0.6,0,0.9,0.2c0.3,0.1,0.5,0.3,0.7,0.6c0.3,0.5,0.4,1,0.3,1.6c-0.1,0.6-0.5,1.2-1.2,1.6
			c-0.7,0.5-1.4,0.7-2,0.6c-0.6-0.1-1.1-0.3-1.5-0.8c-0.2-0.2-0.3-0.5-0.3-0.7c0-0.3,0-0.6,0.1-0.9l-2.1,1.5l-0.8-1.1L8.2,33.5z
			 M6.9,36.1c-0.5,0.3-0.8,0.7-0.8,1C6,37.4,6,37.8,6.2,38c0.2,0.3,0.4,0.4,0.8,0.4c0.3,0,0.7-0.1,1.2-0.5c0.4-0.3,0.7-0.6,0.8-1
			c0.1-0.3,0-0.6-0.1-0.9c-0.2-0.3-0.5-0.4-0.8-0.5C7.7,35.7,7.3,35.8,6.9,36.1z"/>
		<path d="M11.8,42.8l0.9,1c-0.4,0.3-0.9,0.4-1.4,0.4c-0.5,0-0.9-0.2-1.3-0.6c-0.7-0.6-1-1.2-1-1.9c0-0.6,0.3-1.1,0.7-1.7
			c0.5-0.7,1.1-1,1.8-1.1c0.6-0.1,1.2,0.1,1.8,0.5c0.6,0.5,0.9,1.1,0.9,1.7c0,0.7-0.3,1.4-1,2.2l-2.6-2.1c-0.2,0.3-0.4,0.6-0.3,0.9
			c0,0.3,0.2,0.6,0.4,0.8C10.9,43,11,43,11.2,43C11.4,43,11.6,43,11.8,42.8z M12.8,41.8c0.2-0.3,0.4-0.6,0.3-0.9
			c0-0.3-0.1-0.5-0.4-0.7C12.5,40,12.3,40,12,40c-0.3,0-0.5,0.2-0.8,0.5L12.8,41.8z"/>
		<path d="M18.1,42.5l-0.5,1L16.8,43l-1,1.8c-0.2,0.4-0.3,0.6-0.3,0.7c0,0.1,0,0.1,0,0.2c0,0.1,0.1,0.1,0.2,0.2
			C15.9,46,16,46,16.3,46l-0.4,1c-0.3,0-0.7-0.1-1-0.3c-0.2-0.1-0.4-0.3-0.5-0.4c-0.1-0.2-0.2-0.3-0.2-0.5c0-0.2,0-0.3,0.1-0.6
			c0-0.2,0.2-0.4,0.4-0.9l1-2l-0.6-0.3l0.5-1l0.6,0.3l0.5-0.9l1.6-0.1l-0.8,1.6L18.1,42.5z"/>
		<path d="M22.8,45.5l-1.4-0.1c0-0.3,0-0.5-0.1-0.7c-0.1-0.2-0.3-0.3-0.5-0.4c-0.3-0.1-0.6-0.1-0.9,0.1c-0.3,0.2-0.5,0.5-0.6,1
			c-0.2,0.6-0.2,1,0,1.3c0.1,0.3,0.4,0.5,0.7,0.6c0.2,0.1,0.5,0.1,0.7,0c0.2-0.1,0.4-0.3,0.5-0.6l1.2,0.6c-0.3,0.6-0.7,0.9-1.1,1.1
			c-0.5,0.2-1,0.2-1.6,0c-0.7-0.2-1.2-0.6-1.5-1.2c-0.3-0.6-0.3-1.3-0.1-2.1c0.2-0.8,0.6-1.4,1.2-1.7c0.6-0.3,1.2-0.4,1.9-0.2
			c0.6,0.2,1,0.4,1.3,0.8C22.6,44.5,22.8,44.9,22.8,45.5z"/>
		<path d="M27,47.7l1.3,0.2c-0.2,0.5-0.5,0.9-0.8,1.1c-0.4,0.3-0.9,0.4-1.4,0.4c-0.9,0-1.5-0.3-2-0.9c-0.3-0.5-0.5-1.1-0.5-1.8
			c0-0.9,0.2-1.5,0.7-2c0.5-0.5,1-0.7,1.7-0.7c0.8,0,1.4,0.3,1.8,0.8c0.4,0.5,0.6,1.3,0.6,2.3L25,47.1c0,0.4,0.1,0.7,0.3,0.9
			c0.2,0.2,0.5,0.3,0.8,0.3c0.2,0,0.4-0.1,0.5-0.2C26.8,48.1,26.9,47.9,27,47.7z M27.1,46.3c0-0.4-0.1-0.7-0.3-0.9
			c-0.2-0.2-0.4-0.3-0.7-0.3c-0.3,0-0.5,0.1-0.7,0.3c-0.2,0.2-0.3,0.5-0.3,0.9L27.1,46.3z"/>
		<path d="M30.3,49L29,42l1.3-0.2l1.3,7L30.3,49z"/>
		<path d="M33.5,48.3l-2.2-6.7l1.3-0.4l2.2,6.7L33.5,48.3z"/>
		<path d="M38.8,44.2l1.3-0.5c0.1,0.5,0,1-0.2,1.4c-0.2,0.4-0.6,0.7-1,1c-0.8,0.4-1.5,0.5-2.2,0.2c-0.5-0.2-1-0.7-1.3-1.3
			C35,44.3,34.9,43.6,35,43c0.2-0.6,0.5-1.1,1.1-1.4c0.7-0.4,1.3-0.4,1.9-0.2c0.6,0.2,1.2,0.8,1.7,1.7l-3,1.6
			c0.2,0.3,0.4,0.6,0.7,0.7c0.3,0.1,0.6,0.1,0.8-0.1c0.2-0.1,0.3-0.2,0.4-0.4C38.8,44.7,38.9,44.5,38.8,44.2z M38.2,43
			c-0.2-0.3-0.4-0.6-0.7-0.6c-0.3-0.1-0.5-0.1-0.8,0.1c-0.3,0.1-0.4,0.4-0.5,0.6c-0.1,0.3,0,0.6,0.2,0.9L38.2,43z"/>
		<path d="M46,40.3l-1,0.9l-1.8-1.9c-0.4-0.4-0.7-0.6-0.8-0.7c-0.2-0.1-0.3-0.1-0.5-0.1c-0.2,0-0.3,0.1-0.4,0.2
			c-0.2,0.2-0.3,0.4-0.3,0.6c0,0.2,0,0.4,0.1,0.6c0.1,0.2,0.3,0.5,0.7,0.9l1.6,1.7l-1,0.9l-3.6-3.7L40,39l0.5,0.5
			c-0.1-0.7,0.1-1.3,0.6-1.8c0.2-0.2,0.4-0.4,0.7-0.5c0.3-0.1,0.5-0.1,0.7-0.1c0.2,0,0.4,0.1,0.6,0.2c0.2,0.1,0.4,0.3,0.7,0.6
			L46,40.3z"/>
		<path d="M44.4,33.6l0.9,0.6L44.8,35l1.7,1.1c0.4,0.2,0.6,0.4,0.6,0.4c0.1,0,0.1,0,0.2,0c0.1,0,0.1-0.1,0.2-0.2
			c0.1-0.1,0.1-0.3,0.2-0.5l0.9,0.5c-0.1,0.3-0.2,0.7-0.4,1c-0.1,0.2-0.3,0.4-0.5,0.5c-0.2,0.1-0.3,0.2-0.5,0.2
			c-0.2,0-0.3,0-0.5-0.1c-0.1-0.1-0.4-0.2-0.8-0.5L44,36.1l-0.3,0.5l-0.9-0.6l0.3-0.5L42.3,35l0.1-1.6l1.5,1L44.4,33.6z"/>
	</g>
</g>
</svg>
