<?xml version="1.0" encoding="utf-8"?>
<!-- Generator: Adobe Illustrator 24.1.1, SVG Export Plug-In . SVG Version: 6.00 Build 0)  -->
<svg version="1.1" id="Layer_1" xmlns="http://www.w3.org/2000/svg" xmlns:xlink="http://www.w3.org/1999/xlink" x="0px" y="0px"
	 viewBox="0 0 286 82" style="enable-background:new 0 0 286 82;" xml:space="preserve">
<style type="text/css">
	.st0{stroke:#000000;stroke-width:3;stroke-linejoin:round;stroke-miterlimit:10;}
	.st1{fill:none;stroke:#000000;stroke-width:3;stroke-linejoin:round;stroke-miterlimit:10;}
	.st2{fill:#905247;}
</style>
<text transform="matrix(1 0 0 1 -122.5276 241.6362)"><tspan x="0" y="0" style="font-family:'Arial-BoldMT'; font-size:49.1468px;">PET</tspan><tspan x="95.6" y="0" style="font-family:'ArialMT'; font-size:49.1468px;">cellent</tspan></text>
<text transform="matrix(1 0 0 1 -122.5276 171.9695)"><tspan x="0" y="0" style="font-family:'Arial-BoldMT'; font-size:49.1468px;">PETex</tspan><tspan x="150.2" y="0" style="font-family:'ArialMT'; font-size:49.1468px;">cellent</tspan></text>
<path class="st0" d="M-60.8,290.3c0,3.3-2.7,6-6,6H-82c-3.3,0-6-2.7-6-6v-8.3c0-3.3,2.7-6,6-6h15.3c3.3,0,6,2.7,6,6V290.3z"/>
<path class="st1" d="M-93,286.3c0,3.3-2.7,6-6,6h-10.3c-3.3,0-6-2.7-6-6v-4.3c0-3.3,2.7-6,6-6H-99c3.3,0,6,2.7,6,6V286.3z"/>
<path class="st1" d="M-60.8,310.1c0,3.3-2.7,6-6,6H-82c-3.3,0-6-2.7-6-6v-22.3c0-3.3,2.7-6,6-6h15.3c3.3,0,6,2.7,6,6"/>
<path class="st1" d="M-115.3,310.1c0,3.3,2.7,6,6,6H-94c3.3,0,6-2.7,6-6v-7.3"/>
<line class="st1" x1="-115.4" y1="306.4" x2="-115.4" y2="280.1"/>
<path class="st1" d="M-32,283.3c0,3.3-2.7,6-6,6h-10.3c-3.3,0-6-2.7-6-6"/>
<line class="st1" x1="-43.1" y1="309" x2="-43.1" y2="289.7"/>
<line class="st1" x1="-51.8" y1="296.3" x2="-50.2" y2="289.8"/>
<line class="st1" x1="-34.2" y1="296.3" x2="-35.8" y2="289.8"/>
<circle class="st1" cx="-104.1" cy="284.2" r="4.7"/>
<circle cx="-74.1" cy="307.4" r="1"/>
<g>
	<circle cx="-79.4" cy="302.8" r="1"/>
	<circle cx="-68.7" cy="302.8" r="1"/>
</g>
<path class="st0" d="M33.6,290.3c0,3.3-2.7,6-6,6H12.4c-3.3,0-6-2.7-6-6v-8.3c0-3.3,2.7-6,6-6h15.3c3.3,0,6,2.7,6,6V290.3z"/>
<path class="st1" d="M-7.3,310.1c0,3.3,2.7,6,6,6H14c3.3,0,6-2.7,6-6v-14.3"/>
<path class="st1" d="M47,310.1c0,3.3-2.7,6-6,6H25.7c-3.3,0-6-2.7-6-6v-14.3"/>
<circle cx="33.9" cy="307.4" r="1"/>
<g>
	<circle cx="28.6" cy="302.8" r="1"/>
	<circle cx="39.3" cy="302.8" r="1"/>
</g>
<circle cx="6.4" cy="307.4" r="1"/>
<g>
	<circle cx="1" cy="302.8" r="1"/>
	<circle cx="11.7" cy="302.8" r="1"/>
</g>
<path class="st1" d="M29.6,319.5v6c0,4.4-3.6,8-8,8h-3.2c-4.4,0-8-3.6-8-8v-6"/>
<line class="st1" x1="19.7" y1="328.8" x2="19.7" y2="314.1"/>
<text transform="matrix(1 0 0 1 6.5052 291.8859)" style="fill:#FFFFFF; font-family:'Arial-BoldMT'; font-size:13.8058px;">PET</text>
<path id="SVGID_x5F_1_x5F_" style="fill:none;" d="M57.6,312.4c0-20.8-16.8-37.6-37.6-37.6c-20.8,0-37.6,16.8-37.6,37.6
	c0,20.8,16.8,37.6,37.6,37.6C40.8,350,57.6,333.2,57.6,312.4z"/>
<text><textPath  xlink:href="#SVGID_x5F_1_x5F_" startOffset="-56.7057%">
<tspan  style="font-family:'Arial-BoldMT'; font-size:14.4321px;">petcellent</tspan></textPath>
</text>
<path class="st0" d="M154.3,293.3c0,3.3-2.7,6-6,6H133c-3.3,0-6-2.7-6-6v-4.3c0-3.3,2.7-6,6-6h15.3c3.3,0,6,2.7,6,6V293.3z"/>
<path class="st1" d="M113.4,310.1c0,3.3,2.7,6,6,6h15.3c3.3,0,6-2.7,6-6v-14.3"/>
<path class="st1" d="M167.7,310.1c0,3.3-2.7,6-6,6h-15.2c-3.3,0-6-2.7-6-6v-14.3"/>
<path class="st1" d="M150.3,319.5v6c0,4.4-3.6,8-8,8h-3.2c-4.4,0-8-3.6-8-8v-6"/>
<line class="st1" x1="140.4" y1="328.8" x2="140.4" y2="314.1"/>
<text transform="matrix(1 0 0 1 127.1716 252.2194)" style="fill:#FFFFFF; font-family:'Arial-BoldMT'; font-size:13.8058px;">PET</text>
<path id="SVGID_x5F_2_x5F_" style="fill:none;" d="M178.2,314.4c0-20.8-16.8-37.6-37.6-37.6c-20.8,0-37.6,16.8-37.6,37.6
	c0,20.8,16.8,37.6,37.6,37.6C161.4,352,178.2,335.2,178.2,314.4z"/>
<text><textPath  xlink:href="#SVGID_x5F_2_x5F_" startOffset="-56.7057%">
<tspan  style="font-family:'Arial-BoldMT'; font-size:14.4321px;">petcellent</tspan></textPath>
</text>
<g>
	<g>
		<path d="M-156.3,194.2h-12.1c-3.5,0-6.3,2.8-6.3,6.3v3.4c0,3.5,2.8,6.3,6.3,6.3h12.1c3.5,0,6.3-2.8,6.3-6.3v-3.4
			C-150,197-152.8,194.2-156.3,194.2z"/>
		<g>
			<path d="M-142.3,217.2c0,1.8-1.5,3.3-3.3,3.3h-12.1c-1.5,0-2.8-1-3.1-2.4c0-0.3,0.1-0.6,0.1-0.9v-11.3h-0.2h-2.8h-0.2v11.3
				c0,0.3,0,0.6,0.1,0.9c-0.4,1.4-1.6,2.4-3.1,2.4h-12.1c-1.8,0-3.3-1.5-3.3-3.3h-3c0,3.5,2.8,6.3,6.3,6.3h12.1
				c1.1,0,2.2-0.3,3.1-0.8v9.5h3v-9.6c1,0.6,2.1,0.9,3.3,0.9h12.1c3.5,0,6.3-2.8,6.3-6.3H-142.3z"/>
			<path d="M-156.2,229.5c0,2.7-2.2,4.9-4.9,4.9h-2.6c-2.7,0-4.9-2.2-4.9-4.9v-4.8h-3v4.8c0,4.3,3.5,7.9,7.9,7.9h2.6
				c4.3,0,7.9-3.5,7.9-7.9v-4.8h-3V229.5z"/>
		</g>
	</g>
	<g>
		<path d="M-183.5,232.3l0.9,1.2l-0.7,0.5c0.4,0,0.7,0.1,1,0.2c0.3,0.2,0.6,0.4,0.9,0.7c0.4,0.6,0.5,1.2,0.4,1.9
			c-0.2,0.7-0.6,1.3-1.4,1.9c-0.8,0.6-1.6,0.8-2.3,0.7c-0.7-0.1-1.3-0.4-1.7-1c-0.2-0.3-0.3-0.5-0.4-0.8c0-0.3,0-0.7,0.1-1.1
			l-2.4,1.7l-0.9-1.3L-183.5,232.3z M-184.9,235.2c-0.5,0.4-0.9,0.8-1,1.2c-0.1,0.4,0,0.8,0.2,1.1c0.2,0.3,0.5,0.5,0.9,0.5
			c0.4,0,0.8-0.2,1.4-0.5c0.5-0.4,0.8-0.7,0.9-1.1c0.1-0.4,0-0.7-0.2-1c-0.2-0.3-0.5-0.5-0.9-0.5
			C-184,234.7-184.4,234.9-184.9,235.2z"/>
		<path d="M-179.2,243l1.1,1.2c-0.5,0.3-1,0.5-1.6,0.4c-0.5,0-1-0.3-1.6-0.7c-0.8-0.7-1.2-1.4-1.1-2.2c0-0.7,0.3-1.3,0.8-2
			c0.6-0.8,1.3-1.2,2.1-1.3c0.8-0.1,1.4,0.1,2,0.6c0.7,0.6,1,1.2,1.1,2c0,0.8-0.3,1.6-1.1,2.5l-3.1-2.5c-0.3,0.4-0.4,0.7-0.4,1.1
			c0,0.4,0.2,0.6,0.5,0.9c0.2,0.2,0.4,0.2,0.6,0.2C-179.7,243.3-179.5,243.2-179.2,243z M-178.1,241.9c0.3-0.4,0.4-0.7,0.4-1
			c0-0.3-0.2-0.6-0.4-0.8c-0.3-0.2-0.6-0.3-0.9-0.2c-0.3,0.1-0.6,0.2-0.9,0.6L-178.1,241.9z"/>
		<path d="M-171.9,242.7l-0.6,1.1l-1-0.5l-1.1,2.1c-0.2,0.4-0.3,0.7-0.4,0.8c0,0.1,0,0.2,0,0.2c0,0.1,0.1,0.1,0.2,0.2
			c0.1,0.1,0.3,0.1,0.6,0.2l-0.4,1.1c-0.4,0-0.8-0.2-1.2-0.4c-0.3-0.1-0.5-0.3-0.6-0.5c-0.2-0.2-0.3-0.4-0.3-0.6
			c0-0.2,0-0.4,0.1-0.6c0.1-0.2,0.2-0.5,0.5-1l1.2-2.3l-0.6-0.3l0.6-1.1l0.6,0.3l0.5-1.1l1.8-0.1l-1,1.9L-171.9,242.7z"/>
		<path d="M-166.5,246.2l-1.6-0.1c0-0.3,0-0.6-0.2-0.8c-0.1-0.2-0.3-0.3-0.6-0.4c-0.4-0.1-0.7-0.1-1,0.1c-0.3,0.2-0.5,0.6-0.7,1.2
			c-0.2,0.7-0.2,1.2-0.1,1.5c0.2,0.3,0.4,0.6,0.8,0.7c0.3,0.1,0.5,0.1,0.8,0c0.2-0.1,0.4-0.4,0.6-0.7l1.4,0.7
			c-0.3,0.6-0.8,1.1-1.3,1.3c-0.5,0.2-1.2,0.2-1.9,0c-0.8-0.2-1.4-0.7-1.8-1.4c-0.4-0.7-0.4-1.5-0.1-2.4c0.3-0.9,0.7-1.6,1.4-2
			c0.6-0.4,1.4-0.5,2.3-0.2c0.7,0.2,1.2,0.5,1.5,0.9C-166.7,245-166.5,245.5-166.5,246.2z"/>
		<path d="M-161.6,248.7l1.6,0.3c-0.2,0.6-0.5,1-1,1.3c-0.4,0.3-1,0.4-1.6,0.4c-1,0-1.8-0.4-2.3-1.1c-0.4-0.5-0.6-1.2-0.6-2.1
			c0-1,0.3-1.8,0.8-2.3c0.5-0.6,1.2-0.8,2-0.8c0.9,0,1.6,0.3,2.1,0.9c0.5,0.6,0.7,1.5,0.7,2.7l-3.9-0.1c0,0.5,0.1,0.8,0.4,1.1
			c0.2,0.3,0.5,0.4,0.9,0.4c0.2,0,0.5-0.1,0.6-0.2C-161.8,249.2-161.7,249-161.6,248.7z M-161.5,247.1c0-0.5-0.1-0.8-0.3-1
			c-0.2-0.2-0.5-0.4-0.8-0.4c-0.3,0-0.6,0.1-0.9,0.4c-0.2,0.2-0.3,0.6-0.3,1L-161.5,247.1z"/>
		<path d="M-157.8,250.2l-1.5-8.1l1.6-0.3l1.5,8.1L-157.8,250.2z"/>
		<path d="M-154,249.4l-2.5-7.8l1.5-0.5l2.5,7.8L-154,249.4z"/>
		<path d="M-147.9,244.7l1.5-0.5c0.1,0.6,0,1.1-0.2,1.6c-0.2,0.5-0.6,0.9-1.2,1.2c-0.9,0.5-1.7,0.6-2.5,0.2
			c-0.6-0.3-1.1-0.8-1.5-1.5c-0.5-0.9-0.6-1.7-0.4-2.4c0.2-0.7,0.6-1.3,1.3-1.7c0.8-0.4,1.5-0.5,2.3-0.2c0.7,0.3,1.4,0.9,1.9,2
			l-3.5,1.9c0.2,0.4,0.5,0.7,0.9,0.8c0.3,0.1,0.7,0.1,1-0.1c0.2-0.1,0.4-0.3,0.4-0.5C-147.8,245.2-147.8,245-147.9,244.7z
			 M-148.6,243.2c-0.2-0.4-0.5-0.6-0.8-0.7c-0.3-0.1-0.6-0.1-0.9,0.1c-0.3,0.2-0.5,0.4-0.6,0.7c-0.1,0.3,0,0.7,0.2,1.1L-148.6,243.2
			z"/>
		<path d="M-139.5,240.1l-1.1,1.1l-2.1-2.2c-0.4-0.5-0.8-0.7-0.9-0.8c-0.2-0.1-0.4-0.1-0.5-0.1c-0.2,0-0.3,0.1-0.5,0.3
			c-0.2,0.2-0.3,0.4-0.4,0.7c-0.1,0.3,0,0.5,0.1,0.7c0.1,0.2,0.4,0.6,0.9,1.1l1.9,1.9l-1.1,1.1l-4.2-4.3l1-1l0.6,0.6
			c-0.1-0.8,0.1-1.5,0.7-2.1c0.2-0.2,0.5-0.4,0.8-0.5c0.3-0.1,0.6-0.1,0.8-0.1s0.5,0.1,0.7,0.3c0.2,0.1,0.5,0.4,0.8,0.7
			L-139.5,240.1z"/>
		<path d="M-141.4,232.4l1.1,0.7l-0.6,0.9l2,1.3c0.4,0.3,0.6,0.4,0.7,0.4c0.1,0,0.2,0,0.2,0c0.1,0,0.2-0.1,0.2-0.2
			c0.1-0.1,0.2-0.3,0.2-0.6l1.1,0.6c-0.1,0.4-0.2,0.8-0.5,1.2c-0.2,0.2-0.3,0.4-0.5,0.6c-0.2,0.1-0.4,0.2-0.6,0.2
			c-0.2,0-0.4,0-0.6-0.2c-0.2-0.1-0.5-0.3-1-0.6l-2.2-1.4l-0.4,0.6l-1.1-0.7l0.4-0.6l-1-0.6l0.1-1.8l1.8,1.2L-141.4,232.4z"/>
	</g>
</g>
<g>
	<path d="M-29.2,373.1h-6.5c-1.9,0-3.4,1.5-3.4,3.4v1.8c0,1.9,1.5,3.4,3.4,3.4h6.5c1.9,0,3.4-1.5,3.4-3.4v-1.8
		C-25.8,374.7-27.3,373.1-29.2,373.1z"/>
	<g>
		<path d="M-21.7,385.5c0,1-0.8,1.8-1.8,1.8H-30c-0.8,0-1.5-0.5-1.7-1.3c0-0.2,0-0.3,0-0.5v-6.1h-0.1h-1.5h-0.1v6.1
			c0,0.2,0,0.3,0,0.5c-0.2,0.7-0.9,1.3-1.7,1.3h-6.5c-1,0-1.8-0.8-1.8-1.8h-1.6c0,1.9,1.5,3.4,3.4,3.4h6.5c0.6,0,1.2-0.2,1.7-0.4
			v5.1h1.6v-5.1c0.5,0.3,1.1,0.5,1.8,0.5h6.5c1.9,0,3.4-1.5,3.4-3.4H-21.7z"/>
		<path d="M-29.1,392.1c0,1.4-1.2,2.6-2.6,2.6h-1.4c-1.4,0-2.6-1.2-2.6-2.6v-2.6h-1.6v2.6c0,2.3,1.9,4.2,4.2,4.2h1.4
			c2.3,0,4.2-1.9,4.2-4.2v-2.6h-1.6V392.1z"/>
	</g>
</g>
<g>
	<path d="M9.9,403.6H3.4c-1.9,0-3.4,1.5-3.4,3.4v1.8c0,1.9,1.5,3.4,3.4,3.4h6.5c1.9,0,3.4-1.5,3.4-3.4V407
		C13.3,405.2,11.8,403.6,9.9,403.6z"/>
	<g>
		<path d="M17.4,416c0,1-0.8,1.8-1.8,1.8H9.1c-0.8,0-1.5-0.5-1.7-1.3c0-0.2,0-0.3,0-0.5v-6.1H7.4H5.9H5.8v6.1c0,0.2,0,0.3,0,0.5
			c-0.2,0.7-0.9,1.3-1.7,1.3h-6.5c-1,0-1.8-0.8-1.8-1.8h-1.6c0,1.9,1.5,3.4,3.4,3.4h6.5c0.6,0,1.2-0.2,1.7-0.4v5.1h1.6v-5.1
			c0.5,0.3,1.1,0.5,1.8,0.5h6.5c1.9,0,3.4-1.5,3.4-3.4H17.4z"/>
		<path d="M10,422.6c0,1.4-1.2,2.6-2.6,2.6H6c-1.4,0-2.6-1.2-2.6-2.6V420H1.8v2.6c0,2.3,1.9,4.2,4.2,4.2h1.4c2.3,0,4.2-1.9,4.2-4.2
			V420H10V422.6z"/>
	</g>
</g>
<path class="st0" d="M-151.5,316.7c0,2.6-2.1,4.8-4.8,4.8h-12.1c-2.6,0-4.8-2.1-4.8-4.8v-3.4c0-2.6,2.1-4.8,4.8-4.8h12.1
	c2.6,0,4.8,2.1,4.8,4.8V316.7z"/>
<path class="st1" d="M-184,330c0,2.6,2.1,4.8,4.8,4.8h12.1c2.6,0,4.8-2.1,4.8-4.8v-11.3"/>
<path class="st1" d="M-140.8,330c0,2.6-2.1,4.8-4.8,4.8h-12.1c-2.6,0-4.8-2.1-4.8-4.8v-11.3"/>
<path class="st1" d="M-154.7,337.5v4.8c0,3.5-2.9,6.4-6.4,6.4h-2.6c-3.5,0-6.4-2.9-6.4-6.4v-4.8"/>
<line class="st1" x1="-162.5" y1="345" x2="-162.5" y2="333.2"/>
<path id="SVGID_x5F_3_x5F_" style="fill:none;" d="M-132.4,333.5c0-16.5-13.4-29.9-29.9-29.9c-16.5,0-29.9,13.4-29.9,29.9
	c0,16.5,13.4,29.9,29.9,29.9C-145.8,363.4-132.4,350-132.4,333.5z"/>
<text><textPath  xlink:href="#SVGID_x5F_3_x5F_" startOffset="-56.7057%">
<tspan  style="font-family:'Arial-BoldMT'; font-size:11.4881px;">petcellent</tspan></textPath>
</text>
<text transform="matrix(1 0 0 1 -22.4556 384.1497)" style="font-family:'Arial-BoldMT'; font-size:11.4881px;">PETcellent</text>
<text transform="matrix(1 0 0 1 -18.3332 390.2318)" style="font-family:'ArialMT'; font-size:4.503px; letter-spacing:1;">EVERY LOVE PET</text>
<g>
	<g>
		<path d="M-35.1,476h-6.5c-1.9,0-3.4,1.5-3.4,3.4v1.8c0,1.9,1.5,3.4,3.4,3.4h6.5c1.9,0,3.4-1.5,3.4-3.4v-1.8
			C-31.7,477.5-33.2,476-35.1,476z"/>
		<g>
			<path d="M-27.6,488.3c0,1-0.8,1.8-1.8,1.8h-6.5c-0.8,0-1.5-0.5-1.7-1.3c0-0.2,0-0.3,0-0.5v-6.1h-0.1h-1.5h-0.1v6.1
				c0,0.2,0,0.3,0,0.5c-0.2,0.7-0.9,1.3-1.7,1.3h-6.5c-1,0-1.8-0.8-1.8-1.8h-1.6c0,1.9,1.5,3.4,3.4,3.4h6.5c0.6,0,1.2-0.2,1.7-0.4
				v5.1h1.6v-5.1c0.5,0.3,1.1,0.5,1.8,0.5h6.5c1.9,0,3.4-1.5,3.4-3.4H-27.6z"/>
			<path d="M-35,494.9c0,1.4-1.2,2.6-2.6,2.6H-39c-1.4,0-2.6-1.2-2.6-2.6v-2.6h-1.6v2.6c0,2.3,1.9,4.2,4.2,4.2h1.4
				c2.3,0,4.2-1.9,4.2-4.2v-2.6H-35V494.9z"/>
		</g>
	</g>
	<g>
		<path d="M-27.5,487v-8.2h2.7c1,0,1.7,0,2,0.1c0.5,0.1,0.9,0.4,1.2,0.8c0.3,0.4,0.5,0.9,0.5,1.6c0,0.5-0.1,0.9-0.3,1.3
			c-0.2,0.3-0.4,0.6-0.7,0.8c-0.3,0.2-0.6,0.3-0.9,0.4c-0.4,0.1-1,0.1-1.7,0.1h-1.1v3.1H-27.5z M-25.8,480.2v2.3h0.9
			c0.7,0,1.1,0,1.3-0.1c0.2-0.1,0.4-0.2,0.5-0.4s0.2-0.4,0.2-0.6c0-0.3-0.1-0.5-0.3-0.7c-0.2-0.2-0.4-0.3-0.7-0.4
			c-0.2,0-0.6-0.1-1.2-0.1H-25.8z"/>
		<path d="M-19.8,487v-8.2h6.1v1.4h-4.4v1.8h4.1v1.4h-4.1v2.2h4.6v1.4H-19.8z"/>
		<path d="M-10.3,487v-6.8h-2.4v-1.4h6.5v1.4h-2.4v6.8H-10.3z"/>
		<path d="M-0.8,482.8l-1.6,0.3c-0.1-0.3-0.2-0.5-0.4-0.7c-0.2-0.2-0.4-0.2-0.7-0.2c-0.4,0-0.7,0.1-0.9,0.4
			c-0.2,0.3-0.4,0.7-0.4,1.4c0,0.7,0.1,1.2,0.4,1.5c0.2,0.3,0.6,0.4,1,0.4c0.3,0,0.5-0.1,0.7-0.3c0.2-0.2,0.3-0.5,0.4-0.9l1.5,0.3
			c-0.2,0.7-0.5,1.2-0.9,1.6c-0.5,0.4-1.1,0.5-1.8,0.5c-0.9,0-1.6-0.3-2.1-0.8c-0.5-0.5-0.8-1.3-0.8-2.3c0-1,0.3-1.7,0.8-2.3
			c0.5-0.5,1.2-0.8,2.1-0.8c0.7,0,1.3,0.2,1.7,0.5C-1.3,481.7-1,482.2-0.8,482.8z"/>
		<path d="M3.8,485.1l1.6,0.3c-0.2,0.6-0.5,1-1,1.3c-0.4,0.3-1,0.5-1.6,0.5c-1,0-1.8-0.3-2.3-1c-0.4-0.5-0.6-1.2-0.6-2.1
			c0-1,0.3-1.8,0.8-2.3c0.5-0.6,1.2-0.8,2-0.8c0.9,0,1.6,0.3,2.1,0.9c0.5,0.6,0.8,1.5,0.7,2.7H1.5c0,0.5,0.1,0.8,0.4,1.1
			c0.2,0.3,0.5,0.4,0.9,0.4c0.2,0,0.5-0.1,0.6-0.2C3.6,485.6,3.7,485.4,3.8,485.1z M3.9,483.5c0-0.5-0.1-0.8-0.4-1
			c-0.2-0.2-0.5-0.4-0.8-0.4c-0.3,0-0.6,0.1-0.9,0.4c-0.2,0.3-0.3,0.6-0.3,1H3.9z"/>
		<path d="M6.8,487v-8.2h1.6v8.2H6.8z"/>
		<path d="M10,487v-8.2h1.6v8.2H10z"/>
		<path d="M16.6,485.1l1.6,0.3c-0.2,0.6-0.5,1-1,1.3c-0.4,0.3-1,0.5-1.6,0.5c-1,0-1.8-0.3-2.3-1c-0.4-0.5-0.6-1.2-0.6-2.1
			c0-1,0.3-1.8,0.8-2.3c0.5-0.6,1.2-0.8,2-0.8c0.9,0,1.6,0.3,2.1,0.9c0.5,0.6,0.8,1.5,0.7,2.7h-3.9c0,0.5,0.1,0.8,0.4,1.1
			c0.2,0.3,0.5,0.4,0.9,0.4c0.2,0,0.5-0.1,0.6-0.2C16.4,485.6,16.5,485.4,16.6,485.1z M16.7,483.5c0-0.5-0.1-0.8-0.4-1
			c-0.2-0.2-0.5-0.4-0.8-0.4c-0.3,0-0.6,0.1-0.9,0.4c-0.2,0.3-0.3,0.6-0.3,1H16.7z"/>
		<path d="M25,487h-1.6v-3c0-0.6,0-1.1-0.1-1.2c-0.1-0.2-0.2-0.3-0.3-0.4c-0.2-0.1-0.3-0.2-0.5-0.2c-0.3,0-0.5,0.1-0.7,0.2
			c-0.2,0.1-0.4,0.3-0.4,0.6c-0.1,0.2-0.1,0.7-0.1,1.4v2.7h-1.6v-6H21v0.9c0.5-0.7,1.2-1,2-1c0.3,0,0.7,0.1,1,0.2
			c0.3,0.1,0.5,0.3,0.7,0.5c0.1,0.2,0.3,0.4,0.3,0.7c0.1,0.2,0.1,0.6,0.1,1.1V487z"/>
		<path d="M29.3,481v1.3h-1.1v2.4c0,0.5,0,0.8,0,0.8c0,0.1,0.1,0.1,0.1,0.2c0.1,0.1,0.2,0.1,0.3,0.1c0.1,0,0.4-0.1,0.6-0.2l0.1,1.2
			c-0.4,0.2-0.8,0.2-1.2,0.2c-0.3,0-0.5,0-0.8-0.1c-0.2-0.1-0.4-0.2-0.5-0.4c-0.1-0.2-0.2-0.4-0.2-0.6c0-0.2-0.1-0.6-0.1-1.1v-2.6
			h-0.7V481h0.7v-1.2l1.6-0.9v2.1H29.3z"/>
	</g>
	<g>
		<path d="M-23.7,493.1v-3.2h2.3v0.4h-1.9v1h1.8v0.4h-1.8v1.1h2v0.4H-23.7z"/>
		<path d="M-18.7,493.1l-1.2-3.2h0.5l0.8,2.3c0.1,0.2,0.1,0.4,0.2,0.5c0-0.2,0.1-0.4,0.2-0.5l0.9-2.3h0.4l-1.3,3.2H-18.7z"/>
		<path d="M-15.4,493.1v-3.2h2.3v0.4H-15v1h1.8v0.4H-15v1.1h2v0.4H-15.4z"/>
		<path d="M-11.2,493.1v-3.2h1.4c0.3,0,0.5,0,0.7,0.1c0.1,0.1,0.3,0.2,0.4,0.3c0.1,0.1,0.1,0.3,0.1,0.5c0,0.2-0.1,0.4-0.2,0.6
			c-0.1,0.2-0.4,0.3-0.7,0.3c0.1,0.1,0.2,0.1,0.3,0.2c0.1,0.1,0.2,0.3,0.4,0.4l0.6,0.9h-0.5l-0.4-0.7c-0.1-0.2-0.2-0.3-0.3-0.4
			c-0.1-0.1-0.2-0.2-0.2-0.2c-0.1,0-0.1-0.1-0.2-0.1c0,0-0.1,0-0.2,0h-0.5v1.4H-11.2z M-10.8,491.3h0.9c0.2,0,0.3,0,0.5-0.1
			c0.1,0,0.2-0.1,0.3-0.2c0.1-0.1,0.1-0.2,0.1-0.3c0-0.2-0.1-0.3-0.2-0.4c-0.1-0.1-0.3-0.1-0.5-0.1h-1V491.3z"/>
		<path d="M-6,493.1v-1.4l-1.2-1.9h0.5l0.6,1c0.1,0.2,0.2,0.4,0.3,0.5c0.1-0.2,0.2-0.4,0.4-0.6l0.6-0.9h0.5l-1.3,1.9v1.4H-6z"/>
		<path d="M-0.4,493.1v-3.2H0v2.8h1.6v0.4H-0.4z"/>
		<path d="M3.2,491.5c0-0.5,0.1-1,0.4-1.3c0.3-0.3,0.7-0.5,1.1-0.5c0.3,0,0.6,0.1,0.8,0.2c0.2,0.1,0.4,0.3,0.5,0.6
			c0.1,0.3,0.2,0.5,0.2,0.9c0,0.3-0.1,0.6-0.2,0.9c-0.1,0.3-0.3,0.5-0.6,0.6c-0.2,0.1-0.5,0.2-0.8,0.2c-0.3,0-0.6-0.1-0.8-0.2
			c-0.2-0.1-0.4-0.3-0.5-0.6C3.2,492.1,3.2,491.8,3.2,491.5z M3.6,491.5c0,0.4,0.1,0.7,0.3,0.9c0.2,0.2,0.5,0.3,0.8,0.3
			c0.3,0,0.6-0.1,0.8-0.3c0.2-0.2,0.3-0.5,0.3-1c0-0.3,0-0.5-0.1-0.7c-0.1-0.2-0.2-0.3-0.4-0.5c-0.2-0.1-0.4-0.2-0.6-0.2
			c-0.3,0-0.6,0.1-0.8,0.3C3.7,490.7,3.6,491,3.6,491.5z"/>
		<path d="M8.9,493.1l-1.2-3.2h0.5l0.8,2.3c0.1,0.2,0.1,0.4,0.2,0.5c0-0.2,0.1-0.4,0.2-0.5l0.9-2.3h0.4l-1.3,3.2H8.9z"/>
		<path d="M12.2,493.1v-3.2h2.3v0.4h-1.9v1h1.8v0.4h-1.8v1.1h2v0.4H12.2z"/>
		<path d="M18.7,493.1v-3.2H20c0.2,0,0.4,0,0.5,0c0.2,0,0.3,0.1,0.4,0.2c0.1,0.1,0.2,0.2,0.3,0.3c0.1,0.1,0.1,0.3,0.1,0.4
			c0,0.3-0.1,0.5-0.3,0.7c-0.2,0.2-0.5,0.3-0.9,0.3h-0.8v1.3H18.7z M19.2,491.4H20c0.3,0,0.5-0.1,0.6-0.2c0.1-0.1,0.2-0.2,0.2-0.4
			c0-0.1,0-0.3-0.1-0.3c-0.1-0.1-0.2-0.2-0.3-0.2c-0.1,0-0.2,0-0.4,0h-0.8V491.4z"/>
		<path d="M22.9,493.1v-3.2h2.3v0.4h-1.9v1h1.8v0.4h-1.8v1.1h2v0.4H22.9z"/>
		<path d="M27.9,493.1v-2.8h-1.1v-0.4h2.6v0.4h-1.1v2.8H27.9z"/>
	</g>
</g>
<text transform="matrix(1 0 0 1 -8.6467 432.8368)" style="font-family:'Arial-BoldMT'; font-size:6.1526px;">PETcellent</text>
<text transform="matrix(1 0 0 1 -7.6277 436.0946)" style="font-family:'ArialMT'; font-size:2.4117px;">EVERY LOVE PET</text>
<g>
	<g>
		<path d="M-76.1,474.3h-6.5c-1.9,0-3.4,1.5-3.4,3.4v1.8c0,1.9,1.5,3.4,3.4,3.4h6.5c1.9,0,3.4-1.5,3.4-3.4v-1.8
			C-72.7,475.9-74.2,474.3-76.1,474.3z"/>
		<g>
			<path d="M-68.6,486.7c0,1-0.8,1.8-1.8,1.8h-6.5c-0.8,0-1.5-0.5-1.7-1.3c0-0.2,0-0.3,0-0.5v-6.1h-0.1h-1.5h-0.1v6.1
				c0,0.2,0,0.3,0,0.5c-0.2,0.7-0.9,1.3-1.7,1.3h-6.5c-1,0-1.8-0.8-1.8-1.8h-1.6c0,1.9,1.5,3.4,3.4,3.4h6.5c0.6,0,1.2-0.2,1.7-0.4
				v5.1h1.6v-5.1c0.5,0.3,1.1,0.5,1.8,0.5h6.5c1.9,0,3.4-1.5,3.4-3.4H-68.6z"/>
			<path d="M-76.1,493.3c0,1.4-1.2,2.6-2.6,2.6H-80c-1.4,0-2.6-1.2-2.6-2.6v-2.6h-1.6v2.6c0,2.3,1.9,4.2,4.2,4.2h1.4
				c2.3,0,4.2-1.9,4.2-4.2v-2.6h-1.6V493.3z"/>
		</g>
	</g>
	<g>
		<path d="M-94.6,503.5v-4.4h1.4c0.5,0,0.9,0,1.1,0.1c0.3,0.1,0.5,0.2,0.6,0.4c0.2,0.2,0.3,0.5,0.3,0.9c0,0.3,0,0.5-0.1,0.7
			c-0.1,0.2-0.2,0.3-0.4,0.4c-0.2,0.1-0.3,0.2-0.5,0.2c-0.2,0-0.5,0.1-0.9,0.1h-0.6v1.7H-94.6z M-93.8,499.9v1.3h0.5
			c0.4,0,0.6,0,0.7-0.1c0.1,0,0.2-0.1,0.3-0.2c0.1-0.1,0.1-0.2,0.1-0.3c0-0.2,0-0.3-0.1-0.4c-0.1-0.1-0.2-0.2-0.4-0.2
			c-0.1,0-0.3,0-0.6,0H-93.8z"/>
		<path d="M-90.5,503.5v-4.4h3.3v0.7h-2.4v1h2.2v0.7h-2.2v1.2h2.5v0.7H-90.5z"/>
		<path d="M-85.4,503.5v-3.7h-1.3v-0.7h3.5v0.7h-1.3v3.7H-85.4z"/>
		<path d="M-80.4,501.3l-0.8,0.2c0-0.2-0.1-0.3-0.2-0.4c-0.1-0.1-0.2-0.1-0.4-0.1c-0.2,0-0.4,0.1-0.5,0.2c-0.1,0.1-0.2,0.4-0.2,0.7
			c0,0.4,0.1,0.6,0.2,0.8c0.1,0.2,0.3,0.2,0.5,0.2c0.2,0,0.3,0,0.4-0.1c0.1-0.1,0.2-0.2,0.2-0.5l0.8,0.1c-0.1,0.4-0.3,0.7-0.5,0.9
			c-0.2,0.2-0.6,0.3-1,0.3c-0.5,0-0.8-0.1-1.1-0.4c-0.3-0.3-0.4-0.7-0.4-1.2c0-0.5,0.1-0.9,0.4-1.2c0.3-0.3,0.7-0.4,1.1-0.4
			c0.4,0,0.7,0.1,0.9,0.3C-80.6,500.7-80.5,500.9-80.4,501.3z"/>
		<path d="M-77.9,502.5l0.8,0.1c-0.1,0.3-0.3,0.5-0.5,0.7c-0.2,0.2-0.5,0.2-0.9,0.2c-0.6,0-1-0.2-1.2-0.5c-0.2-0.3-0.3-0.7-0.3-1.1
			c0-0.5,0.1-0.9,0.4-1.2c0.3-0.3,0.6-0.4,1-0.4c0.5,0,0.8,0.2,1.1,0.5s0.4,0.8,0.4,1.4h-2.1c0,0.3,0.1,0.4,0.2,0.6
			c0.1,0.1,0.3,0.2,0.5,0.2c0.1,0,0.2,0,0.3-0.1C-78,502.8-77.9,502.7-77.9,502.5z M-77.8,501.7c0-0.2-0.1-0.4-0.2-0.6
			c-0.1-0.1-0.3-0.2-0.4-0.2c-0.2,0-0.3,0.1-0.5,0.2c-0.1,0.1-0.2,0.3-0.2,0.5H-77.8z"/>
		<path d="M-76.3,503.5v-4.4h0.8v4.4H-76.3z"/>
		<path d="M-74.6,503.5v-4.4h0.8v4.4H-74.6z"/>
		<path d="M-71,502.5l0.8,0.1c-0.1,0.3-0.3,0.5-0.5,0.7c-0.2,0.2-0.5,0.2-0.9,0.2c-0.6,0-1-0.2-1.2-0.5c-0.2-0.3-0.3-0.7-0.3-1.1
			c0-0.5,0.1-0.9,0.4-1.2c0.3-0.3,0.6-0.4,1-0.4c0.5,0,0.8,0.2,1.1,0.5c0.3,0.3,0.4,0.8,0.4,1.4h-2.1c0,0.3,0.1,0.4,0.2,0.6
			c0.1,0.1,0.3,0.2,0.5,0.2c0.1,0,0.2,0,0.3-0.1C-71.1,502.8-71.1,502.7-71,502.5z M-71,501.7c0-0.2-0.1-0.4-0.2-0.6
			c-0.1-0.1-0.3-0.2-0.4-0.2c-0.2,0-0.3,0.1-0.5,0.2c-0.1,0.1-0.2,0.3-0.2,0.5H-71z"/>
		<path d="M-66.6,503.5h-0.8v-1.6c0-0.3,0-0.6-0.1-0.7c0-0.1-0.1-0.2-0.2-0.2c-0.1-0.1-0.2-0.1-0.3-0.1c-0.1,0-0.3,0-0.4,0.1
			c-0.1,0.1-0.2,0.2-0.2,0.3c0,0.1-0.1,0.4-0.1,0.7v1.4h-0.8v-3.2h0.8v0.5c0.3-0.4,0.6-0.5,1.1-0.5c0.2,0,0.4,0,0.5,0.1
			c0.2,0.1,0.3,0.2,0.4,0.3c0.1,0.1,0.1,0.2,0.2,0.4c0,0.1,0,0.3,0,0.6V503.5z"/>
		<path d="M-64.2,500.3v0.7h-0.6v1.3c0,0.3,0,0.4,0,0.5c0,0,0,0.1,0.1,0.1c0,0,0.1,0,0.1,0c0.1,0,0.2,0,0.3-0.1l0.1,0.7
			c-0.2,0.1-0.4,0.1-0.7,0.1c-0.2,0-0.3,0-0.4-0.1c-0.1-0.1-0.2-0.1-0.3-0.2c-0.1-0.1-0.1-0.2-0.1-0.3c0-0.1,0-0.3,0-0.6V501H-66
			v-0.7h0.4v-0.6l0.8-0.5v1.1H-64.2z"/>
	</g>
	<g>
		<path d="M-93.6,506.8v-1.7h1.2v0.2h-1v0.5h1v0.2h-1v0.6h1.1v0.2H-93.6z"/>
		<path d="M-90.9,506.8l-0.7-1.7h0.2l0.4,1.3c0,0.1,0.1,0.2,0.1,0.3c0-0.1,0.1-0.2,0.1-0.3l0.5-1.3h0.2l-0.7,1.7H-90.9z"/>
		<path d="M-89.2,506.8v-1.7h1.2v0.2h-1v0.5h1v0.2h-1v0.6h1.1v0.2H-89.2z"/>
		<path d="M-86.9,506.8v-1.7h0.8c0.2,0,0.3,0,0.4,0c0.1,0,0.1,0.1,0.2,0.2c0,0.1,0.1,0.2,0.1,0.3c0,0.1,0,0.2-0.1,0.3
			c-0.1,0.1-0.2,0.1-0.4,0.2c0.1,0,0.1,0.1,0.1,0.1c0.1,0.1,0.1,0.1,0.2,0.2l0.3,0.5h-0.3l-0.2-0.4c-0.1-0.1-0.1-0.2-0.2-0.2
			c0-0.1-0.1-0.1-0.1-0.1c0,0-0.1,0-0.1,0c0,0-0.1,0-0.1,0h-0.3v0.8H-86.9z M-86.7,505.8h0.5c0.1,0,0.2,0,0.2,0
			c0.1,0,0.1-0.1,0.1-0.1c0,0,0-0.1,0-0.2c0-0.1,0-0.1-0.1-0.2c-0.1-0.1-0.2-0.1-0.3-0.1h-0.5V505.8z"/>
		<path d="M-84.1,506.8v-0.7l-0.7-1h0.3l0.3,0.5c0.1,0.1,0.1,0.2,0.2,0.3c0.1-0.1,0.1-0.2,0.2-0.3l0.3-0.5h0.3l-0.7,1v0.7H-84.1z"/>
		<path d="M-81.1,506.8v-1.7h0.2v1.5h0.9v0.2H-81.1z"/>
		<path d="M-79.2,506c0-0.3,0.1-0.5,0.2-0.7c0.2-0.2,0.4-0.2,0.6-0.2c0.2,0,0.3,0,0.4,0.1c0.1,0.1,0.2,0.2,0.3,0.3
			c0.1,0.1,0.1,0.3,0.1,0.5c0,0.2,0,0.3-0.1,0.5c-0.1,0.1-0.2,0.2-0.3,0.3c-0.1,0.1-0.3,0.1-0.4,0.1c-0.2,0-0.3,0-0.4-0.1
			c-0.1-0.1-0.2-0.2-0.3-0.3C-79.2,506.2-79.2,506.1-79.2,506z M-79,506c0,0.2,0.1,0.4,0.2,0.5c0.1,0.1,0.3,0.2,0.4,0.2
			c0.2,0,0.3-0.1,0.4-0.2c0.1-0.1,0.2-0.3,0.2-0.5c0-0.1,0-0.3-0.1-0.4c0-0.1-0.1-0.2-0.2-0.2c-0.1-0.1-0.2-0.1-0.3-0.1
			c-0.2,0-0.3,0.1-0.4,0.2C-78.9,505.5-79,505.7-79,506z"/>
		<path d="M-76.2,506.8l-0.7-1.7h0.2l0.4,1.3c0,0.1,0.1,0.2,0.1,0.3c0-0.1,0.1-0.2,0.1-0.3l0.5-1.3h0.2l-0.7,1.7H-76.2z"/>
		<path d="M-74.4,506.8v-1.7h1.2v0.2h-1v0.5h1v0.2h-1v0.6h1.1v0.2H-74.4z"/>
		<path d="M-70.9,506.8v-1.7h0.7c0.1,0,0.2,0,0.3,0c0.1,0,0.2,0,0.2,0.1c0.1,0,0.1,0.1,0.1,0.2c0,0.1,0.1,0.2,0.1,0.2
			c0,0.1,0,0.3-0.1,0.4c-0.1,0.1-0.3,0.2-0.5,0.2h-0.4v0.7H-70.9z M-70.7,505.9h0.4c0.1,0,0.3,0,0.3-0.1c0.1-0.1,0.1-0.1,0.1-0.2
			c0-0.1,0-0.1-0.1-0.2c0-0.1-0.1-0.1-0.1-0.1c0,0-0.1,0-0.2,0h-0.4V505.9z"/>
		<path d="M-68.6,506.8v-1.7h1.2v0.2h-1v0.5h1v0.2h-1v0.6h1.1v0.2H-68.6z"/>
		<path d="M-66,506.8v-1.5h-0.6v-0.2h1.4v0.2h-0.6v1.5H-66z"/>
	</g>
</g>
<g>
	<g>
		<path d="M-73.4,330.3h-12.1c-3.5,0-6.3,2.8-6.3,6.3v3.4c0,3.5,2.8,6.3,6.3,6.3h12.1c3.5,0,6.3-2.8,6.3-6.3v-3.4
			C-67.1,333.1-69.9,330.3-73.4,330.3z"/>
		<g>
			<path d="M-59.4,353.3c0,1.8-1.5,3.3-3.3,3.3h-12.1c-1.5,0-2.8-1-3.1-2.4c0-0.3,0.1-0.6,0.1-0.9v-11.3h-0.2h-2.8h-0.2v11.3
				c0,0.3,0,0.6,0.1,0.9c-0.4,1.4-1.6,2.4-3.1,2.4h-12.1c-1.8,0-3.3-1.5-3.3-3.3h-3c0,3.5,2.8,6.3,6.3,6.3h12.1
				c1.1,0,2.2-0.3,3.1-0.8v9.5h3v-9.6c1,0.6,2.1,0.9,3.3,0.9h12.1c3.5,0,6.3-2.8,6.3-6.3H-59.4z"/>
			<path d="M-73.3,365.6c0,2.7-2.2,4.9-4.9,4.9h-2.6c-2.7,0-4.9-2.2-4.9-4.9v-4.8h-3v4.8c0,4.3,3.5,7.9,7.9,7.9h2.6
				c4.3,0,7.9-3.5,7.9-7.9v-4.8h-3V365.6z"/>
		</g>
	</g>
	<g>
		<path d="M-100.6,368.4l0.9,1.2l-0.7,0.5c0.4,0,0.7,0.1,1,0.2s0.6,0.4,0.9,0.7c0.4,0.6,0.5,1.2,0.4,1.9c-0.2,0.7-0.6,1.3-1.4,1.9
			c-0.8,0.6-1.6,0.8-2.3,0.7c-0.7-0.1-1.3-0.4-1.7-1c-0.2-0.3-0.3-0.5-0.4-0.8c0-0.3,0-0.7,0.1-1.1l-2.4,1.7l-0.9-1.3L-100.6,368.4z
			 M-102,371.3c-0.5,0.4-0.9,0.8-1,1.2c-0.1,0.4,0,0.8,0.2,1.1c0.2,0.3,0.5,0.5,0.9,0.5c0.4,0,0.8-0.2,1.4-0.5
			c0.5-0.4,0.8-0.7,0.9-1.1c0.1-0.4,0-0.7-0.2-1c-0.2-0.3-0.5-0.5-0.9-0.5C-101.1,370.8-101.5,371-102,371.3z"/>
		<path d="M-96.3,379.1l1.1,1.2c-0.5,0.3-1,0.5-1.6,0.4c-0.5,0-1-0.3-1.6-0.7c-0.8-0.7-1.2-1.4-1.1-2.2c0-0.7,0.3-1.3,0.8-2
			c0.6-0.8,1.3-1.2,2.1-1.3c0.8-0.1,1.4,0.1,2,0.6c0.7,0.6,1,1.2,1.1,2c0,0.8-0.3,1.6-1.1,2.5l-3.1-2.5c-0.3,0.4-0.4,0.7-0.4,1.1
			c0,0.4,0.2,0.6,0.5,0.9c0.2,0.2,0.4,0.2,0.6,0.2C-96.8,379.4-96.5,379.3-96.3,379.1z M-95.2,378c0.3-0.4,0.4-0.7,0.4-1
			c0-0.3-0.2-0.6-0.4-0.8c-0.3-0.2-0.6-0.3-0.9-0.2c-0.3,0.1-0.6,0.2-0.9,0.6L-95.2,378z"/>
		<path d="M-89,378.8l-0.6,1.1l-1-0.5l-1.1,2.1c-0.2,0.4-0.3,0.7-0.4,0.8c0,0.1,0,0.2,0,0.2c0,0.1,0.1,0.1,0.2,0.2
			c0.1,0.1,0.3,0.1,0.6,0.2l-0.4,1.1c-0.4,0-0.8-0.2-1.2-0.4c-0.3-0.1-0.5-0.3-0.6-0.5c-0.2-0.2-0.3-0.4-0.3-0.6
			c0-0.2,0-0.4,0.1-0.6c0.1-0.2,0.2-0.5,0.5-1l1.2-2.3l-0.6-0.3l0.6-1.1l0.6,0.3l0.5-1.1l1.8-0.1l-1,1.9L-89,378.8z"/>
		<path d="M-83.6,382.3l-1.6-0.1c0-0.3,0-0.6-0.2-0.8c-0.1-0.2-0.3-0.3-0.6-0.4c-0.4-0.1-0.7-0.1-1,0.1c-0.3,0.2-0.5,0.6-0.7,1.2
			c-0.2,0.7-0.2,1.2-0.1,1.5c0.2,0.3,0.4,0.6,0.8,0.7c0.3,0.1,0.5,0.1,0.8,0c0.2-0.1,0.4-0.4,0.6-0.7l1.4,0.7
			c-0.3,0.6-0.8,1.1-1.3,1.3c-0.5,0.2-1.2,0.2-1.9,0c-0.8-0.2-1.4-0.7-1.8-1.4c-0.4-0.7-0.4-1.5-0.1-2.4c0.3-0.9,0.7-1.6,1.4-2
			c0.6-0.4,1.4-0.5,2.3-0.2c0.7,0.2,1.2,0.5,1.5,0.9C-83.8,381.1-83.6,381.6-83.6,382.3z"/>
		<path d="M-78.7,384.8l1.6,0.3c-0.2,0.6-0.5,1-1,1.3c-0.4,0.3-1,0.4-1.6,0.4c-1,0-1.8-0.4-2.3-1.1c-0.4-0.5-0.6-1.2-0.6-2.1
			c0-1,0.3-1.8,0.8-2.3c0.5-0.6,1.2-0.8,2-0.8c0.9,0,1.6,0.3,2.1,0.9c0.5,0.6,0.7,1.5,0.7,2.7l-3.9-0.1c0,0.5,0.1,0.8,0.4,1.1
			c0.2,0.3,0.5,0.4,0.9,0.4c0.2,0,0.5-0.1,0.6-0.2C-78.9,385.3-78.8,385.1-78.7,384.8z M-78.5,383.2c0-0.5-0.1-0.8-0.3-1
			c-0.2-0.2-0.5-0.4-0.8-0.4c-0.3,0-0.6,0.1-0.9,0.4c-0.2,0.2-0.3,0.6-0.3,1L-78.5,383.2z"/>
		<path d="M-74.9,386.3l-1.5-8.1l1.6-0.3l1.5,8.1L-74.9,386.3z"/>
		<path d="M-71.1,385.5l-2.5-7.8l1.5-0.5l2.5,7.8L-71.1,385.5z"/>
		<path d="M-65,380.8l1.5-0.5c0.1,0.6,0,1.1-0.2,1.6c-0.2,0.5-0.6,0.9-1.2,1.2c-0.9,0.5-1.7,0.6-2.5,0.2c-0.6-0.3-1.1-0.8-1.5-1.5
			c-0.5-0.9-0.6-1.7-0.4-2.4c0.2-0.7,0.6-1.3,1.3-1.7c0.8-0.4,1.5-0.5,2.3-0.2c0.7,0.3,1.4,0.9,1.9,2l-3.5,1.9
			c0.2,0.4,0.5,0.7,0.9,0.8c0.3,0.1,0.7,0.1,1-0.1c0.2-0.1,0.4-0.3,0.4-0.5C-64.9,381.3-64.9,381.1-65,380.8z M-65.7,379.3
			c-0.2-0.4-0.5-0.6-0.8-0.7c-0.3-0.1-0.6-0.1-0.9,0.1c-0.3,0.2-0.5,0.4-0.6,0.7c-0.1,0.3,0,0.7,0.2,1.1L-65.7,379.3z"/>
		<path d="M-56.6,376.2l-1.1,1.1l-2.1-2.2c-0.4-0.5-0.8-0.7-0.9-0.8c-0.2-0.1-0.4-0.1-0.5-0.1c-0.2,0-0.3,0.1-0.5,0.3
			c-0.2,0.2-0.3,0.4-0.4,0.7c-0.1,0.3,0,0.5,0.1,0.7c0.1,0.2,0.4,0.6,0.9,1.1l1.9,1.9l-1.1,1.1l-4.2-4.3l1-1l0.6,0.6
			c-0.1-0.8,0.1-1.5,0.7-2.1c0.2-0.2,0.5-0.4,0.8-0.5c0.3-0.1,0.6-0.1,0.8-0.1c0.2,0,0.5,0.1,0.7,0.3c0.2,0.1,0.5,0.4,0.8,0.7
			L-56.6,376.2z"/>
		<path d="M-58.5,368.5l1.1,0.7l-0.6,0.9l2,1.3c0.4,0.3,0.6,0.4,0.7,0.4c0.1,0,0.2,0,0.2,0c0.1,0,0.2-0.1,0.2-0.2
			c0.1-0.1,0.2-0.3,0.2-0.6l1.1,0.6c-0.1,0.4-0.2,0.8-0.5,1.2c-0.2,0.2-0.3,0.4-0.5,0.6c-0.2,0.1-0.4,0.2-0.6,0.2
			c-0.2,0-0.4,0-0.6-0.2c-0.2-0.1-0.5-0.3-1-0.6l-2.2-1.4l-0.4,0.6l-1.1-0.7l0.4-0.6l-1-0.6l0.1-1.8l1.8,1.2L-58.5,368.5z"/>
	</g>
</g>
<g>
	<g>
		<path d="M-71.3,406.1h-12.1c-3.5,0-6.3,2.8-6.3,6.3v3.4c0,3.5,2.8,6.3,6.3,6.3h12.1c3.5,0,6.3-2.8,6.3-6.3v-3.4
			C-65,409-67.9,406.1-71.3,406.1z"/>
		<g>
			<path d="M-57.4,429.1c0,1.8-1.5,3.3-3.3,3.3h-12.1c-1.5,0-2.8-1-3.1-2.4c0-0.3,0.1-0.6,0.1-0.9v-11.3h-0.2h-2.8h-0.2v11.3
				c0,0.3,0,0.6,0.1,0.9c-0.4,1.4-1.6,2.4-3.1,2.4h-12.1c-1.8,0-3.3-1.5-3.3-3.3h-3c0,3.5,2.8,6.3,6.3,6.3h12.1
				c1.1,0,2.2-0.3,3.1-0.8v9.5h3v-9.6c1,0.6,2.1,0.9,3.3,0.9h12.1c3.5,0,6.3-2.8,6.3-6.3H-57.4z"/>
			<path d="M-71.2,441.4c0,2.7-2.2,4.9-4.9,4.9h-2.6c-2.7,0-4.9-2.2-4.9-4.9v-4.8h-3v4.8c0,4.3,3.5,7.9,7.9,7.9h2.6
				c4.3,0,7.9-3.5,7.9-7.9v-4.8h-3V441.4z"/>
		</g>
	</g>
	<g>
		<path d="M-98.5,444.2l0.9,1.2l-0.7,0.5c0.4,0,0.7,0.1,1,0.2s0.6,0.4,0.9,0.7c0.4,0.6,0.5,1.2,0.4,1.9c-0.2,0.7-0.6,1.3-1.4,1.9
			c-0.8,0.6-1.6,0.8-2.3,0.7c-0.7-0.1-1.3-0.4-1.7-1c-0.2-0.3-0.3-0.5-0.4-0.8c0-0.3,0-0.7,0.1-1.1l-2.4,1.7l-0.9-1.3L-98.5,444.2z
			 M-100,447.2c-0.5,0.4-0.9,0.8-1,1.2c-0.1,0.4,0,0.8,0.2,1.1c0.2,0.3,0.5,0.5,0.9,0.5c0.4,0,0.8-0.2,1.4-0.5
			c0.5-0.4,0.8-0.7,0.9-1.1c0.1-0.4,0-0.7-0.2-1c-0.2-0.3-0.5-0.5-0.9-0.5C-99.1,446.7-99.5,446.8-100,447.2z"/>
		<path d="M-94.3,455l1.1,1.2c-0.5,0.3-1,0.5-1.6,0.4c-0.5,0-1-0.3-1.6-0.7c-0.8-0.7-1.2-1.4-1.1-2.2c0-0.7,0.3-1.3,0.8-2
			c0.6-0.8,1.3-1.2,2.1-1.3c0.8-0.1,1.4,0.1,2,0.6c0.7,0.6,1,1.2,1.1,2c0,0.8-0.3,1.6-1.1,2.5l-3.1-2.5c-0.3,0.4-0.4,0.7-0.4,1.1
			c0,0.4,0.2,0.6,0.5,0.9c0.2,0.2,0.4,0.2,0.6,0.2C-94.7,455.3-94.5,455.2-94.3,455z M-93.2,453.8c0.3-0.4,0.4-0.7,0.4-1
			c0-0.3-0.2-0.6-0.4-0.8c-0.3-0.2-0.6-0.3-0.9-0.2c-0.3,0.1-0.6,0.2-0.9,0.6L-93.2,453.8z"/>
		<path d="M-86.9,454.6l-0.6,1.1l-1-0.5l-1.1,2.1c-0.2,0.4-0.3,0.7-0.4,0.8c0,0.1,0,0.2,0,0.2c0,0.1,0.1,0.1,0.2,0.2
			c0.1,0.1,0.3,0.1,0.6,0.2l-0.4,1.1c-0.4,0-0.8-0.2-1.2-0.4c-0.3-0.1-0.5-0.3-0.6-0.5c-0.2-0.2-0.3-0.4-0.3-0.6
			c0-0.2,0-0.4,0.1-0.6c0.1-0.2,0.2-0.5,0.5-1l1.2-2.3l-0.6-0.3l0.6-1.1l0.6,0.3l0.5-1.1l1.8-0.1l-1,1.9L-86.9,454.6z"/>
		<path d="M-81.6,458.1l-1.6-0.1c0-0.3,0-0.6-0.2-0.8c-0.1-0.2-0.3-0.3-0.6-0.4c-0.4-0.1-0.7-0.1-1,0.1c-0.3,0.2-0.5,0.6-0.7,1.2
			c-0.2,0.7-0.2,1.2-0.1,1.5c0.2,0.3,0.4,0.6,0.8,0.7c0.3,0.1,0.5,0.1,0.8,0c0.2-0.1,0.4-0.4,0.6-0.7l1.4,0.7
			c-0.3,0.6-0.8,1.1-1.3,1.3c-0.5,0.2-1.2,0.2-1.9,0c-0.8-0.2-1.4-0.7-1.8-1.4c-0.4-0.7-0.4-1.5-0.1-2.4c0.3-0.9,0.7-1.6,1.4-2
			c0.6-0.4,1.4-0.5,2.3-0.2c0.7,0.2,1.2,0.5,1.5,0.9C-81.7,456.9-81.6,457.5-81.6,458.1z"/>
		<path d="M-76.6,460.6l1.6,0.3c-0.2,0.6-0.5,1-1,1.3c-0.4,0.3-1,0.4-1.6,0.4c-1,0-1.8-0.4-2.3-1.1c-0.4-0.5-0.6-1.2-0.6-2.1
			c0-1,0.3-1.8,0.8-2.3c0.5-0.6,1.2-0.8,2-0.8c0.9,0,1.6,0.3,2.1,0.9c0.5,0.6,0.7,1.5,0.7,2.7l-3.9-0.1c0,0.5,0.1,0.8,0.4,1.1
			c0.2,0.3,0.5,0.4,0.9,0.4c0.2,0,0.5-0.1,0.6-0.2S-76.7,460.9-76.6,460.6z M-76.5,459c0-0.5-0.1-0.8-0.3-1
			c-0.2-0.2-0.5-0.4-0.8-0.4c-0.3,0-0.6,0.1-0.9,0.4c-0.2,0.2-0.3,0.6-0.3,1L-76.5,459z"/>
		<path d="M-72.8,462.2l-1.5-8.1l1.6-0.3l1.5,8.1L-72.8,462.2z"/>
		<path d="M-69,461.3l-2.5-7.8l1.5-0.5l2.5,7.8L-69,461.3z"/>
		<path d="M-62.9,456.6l1.5-0.5c0.1,0.6,0,1.1-0.2,1.6c-0.2,0.5-0.6,0.9-1.2,1.2c-0.9,0.5-1.7,0.6-2.5,0.2c-0.6-0.3-1.1-0.8-1.5-1.5
			c-0.5-0.9-0.6-1.7-0.4-2.4c0.2-0.7,0.6-1.3,1.3-1.7c0.8-0.4,1.5-0.5,2.3-0.2c0.7,0.3,1.4,0.9,1.9,2l-3.5,1.9
			c0.2,0.4,0.5,0.7,0.9,0.8c0.3,0.1,0.7,0.1,1-0.1c0.2-0.1,0.4-0.3,0.4-0.5C-62.9,457.2-62.9,456.9-62.9,456.6z M-63.6,455.2
			c-0.2-0.4-0.5-0.6-0.8-0.7c-0.3-0.1-0.6-0.1-0.9,0.1c-0.3,0.2-0.5,0.4-0.6,0.7c-0.1,0.3,0,0.7,0.2,1.1L-63.6,455.2z"/>
		<path d="M-54.6,452.1l-1.1,1.1l-2.1-2.2c-0.4-0.5-0.8-0.7-0.9-0.8c-0.2-0.1-0.4-0.1-0.5-0.1c-0.2,0-0.3,0.1-0.5,0.3
			c-0.2,0.2-0.3,0.4-0.4,0.7c-0.1,0.3,0,0.5,0.1,0.7c0.1,0.2,0.4,0.6,0.9,1.1l1.9,1.9l-1.1,1.1l-4.2-4.3l1-1l0.6,0.6
			c-0.1-0.8,0.1-1.5,0.7-2.1c0.2-0.2,0.5-0.4,0.8-0.5c0.3-0.1,0.6-0.1,0.8-0.1c0.2,0,0.5,0.1,0.7,0.3c0.2,0.1,0.5,0.4,0.8,0.7
			L-54.6,452.1z"/>
		<path d="M-56.4,444.3l1.1,0.7l-0.6,0.9l2,1.3c0.4,0.3,0.6,0.4,0.7,0.4c0.1,0,0.2,0,0.2,0c0.1,0,0.2-0.1,0.2-0.2
			c0.1-0.1,0.2-0.3,0.2-0.6l1.1,0.6c-0.1,0.4-0.2,0.8-0.5,1.2c-0.2,0.2-0.3,0.4-0.5,0.6c-0.2,0.1-0.4,0.2-0.6,0.2
			c-0.2,0-0.4,0-0.6-0.2c-0.2-0.1-0.5-0.3-1-0.6l-2.2-1.4l-0.4,0.6l-1.1-0.7l0.4-0.6l-1-0.6l0.1-1.8l1.8,1.2L-56.4,444.3z"/>
	</g>
</g>
<g>
	<g>
		<path class="st2" d="M60.2,1.4H38c-6.3,0-11.5,5.1-11.5,11.5v6.2c0,6.3,5.1,11.5,11.5,11.5h22.1c6.3,0,11.5-5.1,11.5-11.5v-6.2
			C71.6,6.6,66.5,1.4,60.2,1.4z"/>
		<g>
			<path class="st2" d="M85.6,43.4c0,3.3-2.7,6-6,6H57.4c-2.7,0-5-1.9-5.7-4.4c0.1-0.5,0.1-1,0.1-1.6V22.7h-0.4h-5.1H46v20.7
				c0,0.5,0.1,1.1,0.1,1.6c-0.7,2.5-3,4.4-5.7,4.4H18.2c-3.3,0-6-2.7-6-6H6.8c0,6.3,5.1,11.5,11.5,11.5h22.1c2,0,4-0.5,5.6-1.5v17.3
				h5.5V53.1c1.7,1.1,3.8,1.7,6,1.7h22.1c6.3,0,11.5-5.1,11.5-11.5H85.6z"/>
			<path class="st2" d="M60.3,65.8c0,4.9-4,8.9-8.9,8.9h-4.7c-4.9,0-8.9-4-8.9-8.9v-8.7h-5.5v8.7c0,7.9,6.4,14.4,14.4,14.4h4.7
				c7.9,0,14.4-6.4,14.4-14.4v-8.7h-5.5V65.8z"/>
		</g>
	</g>
	<g>
		<path class="st2" d="M85.9,38.8v-28h9.1c3.4,0,5.7,0.1,6.7,0.4c1.6,0.4,2.9,1.3,4,2.7c1.1,1.4,1.6,3.2,1.6,5.4
			c0,1.7-0.3,3.2-0.9,4.3c-0.6,1.2-1.4,2.1-2.4,2.8c-1,0.7-1.9,1.1-2.9,1.3c-1.3,0.3-3.3,0.4-5.9,0.4h-3.7v10.5H85.9z M91.5,15.6
			v7.9h3.1c2.2,0,3.7-0.1,4.5-0.4c0.7-0.3,1.3-0.8,1.8-1.4c0.4-0.6,0.6-1.3,0.6-2.2c0-1-0.3-1.9-0.9-2.5c-0.6-0.7-1.4-1.1-2.3-1.2
			c-0.7-0.1-2-0.2-4.1-0.2H91.5z"/>
		<path class="st2" d="M111.9,38.8v-28h20.7v4.7h-15.1v6.2h14v4.7h-14v7.6h15.6v4.7H111.9z"/>
		<path class="st2" d="M144.3,38.8V15.6H136v-4.7h22.2v4.7h-8.3v23.2H144.3z"/>
		<path class="st2" d="M176.5,24.6l-5.3,1c-0.2-1.1-0.6-1.8-1.2-2.4c-0.6-0.5-1.4-0.8-2.5-0.8c-1.3,0-2.4,0.5-3.2,1.4
			c-0.8,0.9-1.2,2.5-1.2,4.6c0,2.4,0.4,4.1,1.2,5.1c0.8,1,1.9,1.5,3.3,1.5c1,0,1.8-0.3,2.5-0.9c0.6-0.6,1.1-1.6,1.4-3l5.3,0.9
			c-0.5,2.4-1.6,4.2-3.1,5.5c-1.6,1.2-3.6,1.9-6.2,1.9c-3,0-5.3-0.9-7.1-2.8c-1.8-1.9-2.6-4.5-2.6-7.8c0-3.3,0.9-5.9,2.7-7.8
			c1.8-1.9,4.2-2.8,7.2-2.8c2.5,0,4.4,0.5,5.9,1.6C174.9,20.8,175.9,22.4,176.5,24.6z"/>
		<path class="st2" d="M192.3,32.4l5.3,0.9c-0.7,2-1.8,3.4-3.3,4.5c-1.5,1-3.3,1.5-5.6,1.5c-3.5,0-6.1-1.2-7.8-3.5
			c-1.3-1.8-2-4.2-2-7c0-3.4,0.9-6,2.6-7.9c1.8-1.9,4-2.9,6.7-2.9c3,0,5.4,1,7.1,3c1.7,2,2.6,5,2.5,9.1h-13.4c0,1.6,0.5,2.8,1.3,3.7
			c0.8,0.9,1.9,1.3,3.1,1.3c0.8,0,1.5-0.2,2.1-0.7C191.6,34.2,192,33.4,192.3,32.4z M192.6,27c0-1.6-0.4-2.7-1.2-3.5
			c-0.8-0.8-1.7-1.2-2.8-1.2c-1.2,0-2.1,0.4-2.9,1.3c-0.8,0.9-1.1,2-1.1,3.5H192.6z"/>
		<path class="st2" d="M202.3,38.8v-28h5.4v28H202.3z"/>
		<path class="st2" d="M213.2,38.8v-28h5.4v28H213.2z"/>
		<path class="st2" d="M235.8,32.4l5.3,0.9c-0.7,2-1.8,3.4-3.3,4.5c-1.5,1-3.3,1.5-5.6,1.5c-3.5,0-6.1-1.2-7.8-3.5
			c-1.3-1.8-2-4.2-2-7c0-3.4,0.9-6,2.6-7.9c1.8-1.9,4-2.9,6.7-2.9c3,0,5.4,1,7.1,3c1.7,2,2.6,5,2.5,9.1H228c0,1.6,0.5,2.8,1.3,3.7
			c0.8,0.9,1.9,1.3,3.1,1.3c0.8,0,1.5-0.2,2.1-0.7C235,34.2,235.5,33.4,235.8,32.4z M236.1,27c0-1.6-0.4-2.7-1.2-3.5
			c-0.8-0.8-1.7-1.2-2.8-1.2c-1.2,0-2.1,0.4-2.9,1.3c-0.8,0.9-1.1,2-1.1,3.5H236.1z"/>
		<path class="st2" d="M264.2,38.8h-5.4V28.5c0-2.2-0.1-3.6-0.3-4.2c-0.2-0.6-0.6-1.1-1.1-1.5c-0.5-0.4-1.1-0.5-1.9-0.5
			c-0.9,0-1.8,0.3-2.5,0.8c-0.7,0.5-1.2,1.2-1.5,2c-0.3,0.8-0.4,2.4-0.4,4.7v9.2h-5.4V18.6h5v3c1.8-2.3,4-3.4,6.7-3.4
			c1.2,0,2.3,0.2,3.2,0.6c1,0.4,1.7,1,2.2,1.6c0.5,0.7,0.9,1.4,1,2.3c0.2,0.8,0.3,2,0.3,3.6V38.8z"/>
		<path class="st2" d="M278.9,18.6v4.3h-3.7V31c0,1.7,0,2.6,0.1,2.9c0.1,0.3,0.2,0.5,0.5,0.7c0.2,0.2,0.5,0.3,0.9,0.3
			c0.5,0,1.2-0.2,2.2-0.5l0.5,4.2c-1.2,0.5-2.7,0.8-4.2,0.8c-1,0-1.8-0.2-2.6-0.5c-0.8-0.3-1.3-0.7-1.7-1.3
			c-0.4-0.5-0.6-1.2-0.8-2.1c-0.1-0.6-0.2-1.9-0.2-3.8v-8.8h-2.5v-4.3h2.5v-4l5.4-3.1v7.2H278.9z"/>
	</g>
	<g>
		<path class="st2" d="M98.6,59.5v-11h7.9v1.3h-6.5v3.4h6.1v1.3h-6.1v3.7h6.7v1.3H98.6z"/>
		<path class="st2" d="M115.9,59.5l-4.2-11h1.6l2.8,8c0.2,0.6,0.4,1.2,0.6,1.8c0.2-0.6,0.4-1.2,0.6-1.8l3-8h1.5l-4.3,11H115.9z"/>
		<path class="st2" d="M127,59.5v-11h7.9v1.3h-6.5v3.4h6.1v1.3h-6.1v3.7h6.7v1.3H127z"/>
		<path class="st2" d="M141.2,59.5v-11h4.9c1,0,1.7,0.1,2.2,0.3c0.5,0.2,0.9,0.5,1.2,1c0.3,0.5,0.5,1,0.5,1.7c0,0.8-0.3,1.4-0.8,2
			c-0.5,0.5-1.3,0.9-2.3,1c0.4,0.2,0.7,0.4,0.9,0.5c0.4,0.4,0.8,0.9,1.2,1.5l1.9,3H149l-1.4-2.3c-0.4-0.7-0.8-1.2-1-1.5
			c-0.3-0.3-0.5-0.6-0.7-0.7c-0.2-0.1-0.4-0.2-0.7-0.3c-0.2,0-0.4-0.1-0.8-0.1h-1.7v4.9H141.2z M142.7,53.4h3.1
			c0.7,0,1.2-0.1,1.6-0.2c0.4-0.1,0.7-0.4,0.9-0.7c0.2-0.3,0.3-0.6,0.3-1c0-0.5-0.2-0.9-0.6-1.3c-0.4-0.3-1-0.5-1.8-0.5h-3.5V53.4z"
			/>
		<path class="st2" d="M159,59.5v-4.6l-4.2-6.3h1.8l2.2,3.3c0.4,0.6,0.8,1.2,1.1,1.9c0.3-0.6,0.7-1.2,1.2-1.9l2.1-3.2h1.7l-4.4,6.3
			v4.6H159z"/>
		<path class="st2" d="M178,59.5v-11h1.5v9.7h5.4v1.3H178z"/>
		<path class="st2" d="M190.1,54.2c0-1.8,0.5-3.2,1.5-4.3c1-1,2.2-1.5,3.8-1.5c1,0,1.9,0.2,2.7,0.7c0.8,0.5,1.4,1.2,1.9,2
			c0.4,0.9,0.6,1.8,0.6,2.9c0,1.1-0.2,2.1-0.7,3c-0.4,0.9-1.1,1.5-1.9,2c-0.8,0.5-1.7,0.7-2.7,0.7c-1,0-2-0.3-2.8-0.7
			c-0.8-0.5-1.4-1.2-1.8-2C190.3,56.1,190.1,55.1,190.1,54.2z M191.6,54.2c0,1.3,0.4,2.4,1.1,3.1c0.7,0.8,1.6,1.1,2.7,1.1
			c1.1,0,2-0.4,2.7-1.2c0.7-0.8,1.1-1.9,1.1-3.3c0-0.9-0.1-1.7-0.5-2.3c-0.3-0.7-0.7-1.2-1.3-1.5c-0.6-0.4-1.2-0.5-2-0.5
			c-1,0-1.9,0.4-2.6,1.1C192,51.4,191.6,52.6,191.6,54.2z"/>
		<path class="st2" d="M209.6,59.5l-4.2-11h1.6l2.8,8c0.2,0.6,0.4,1.2,0.6,1.8c0.2-0.6,0.4-1.2,0.6-1.8l3-8h1.5l-4.3,11H209.6z"/>
		<path class="st2" d="M220.7,59.5v-11h7.9v1.3h-6.5v3.4h6.1v1.3h-6.1v3.7h6.7v1.3H220.7z"/>
		<path class="st2" d="M243.1,59.5v-11h4.1c0.7,0,1.3,0,1.7,0.1c0.5,0.1,1,0.3,1.4,0.5c0.4,0.3,0.7,0.6,0.9,1.1s0.3,1,0.3,1.5
			c0,0.9-0.3,1.7-0.9,2.4c-0.6,0.6-1.7,1-3.2,1h-2.8v4.5H243.1z M244.5,53.8h2.8c0.9,0,1.6-0.2,2-0.5c0.4-0.3,0.6-0.8,0.6-1.5
			c0-0.5-0.1-0.9-0.3-1.2c-0.2-0.3-0.5-0.5-0.9-0.6c-0.2-0.1-0.7-0.1-1.4-0.1h-2.8V53.8z"/>
		<path class="st2" d="M257.3,59.5v-11h7.9v1.3h-6.5v3.4h6.1v1.3h-6.1v3.7h6.7v1.3H257.3z"/>
		<path class="st2" d="M274.3,59.5v-9.7h-3.6v-1.3h8.7v1.3h-3.6v9.7H274.3z"/>
	</g>
</g>
</svg>
