<?xml version="1.0" encoding="utf-8"?>
<!-- Generator: Adobe Illustrator 24.1.1, SVG Export Plug-In . SVG Version: 6.00 Build 0)  -->
<svg version="1.1" id="Layer_1" xmlns="http://www.w3.org/2000/svg" xmlns:xlink="http://www.w3.org/1999/xlink" x="0px" y="0px"
	 viewBox="0 0 50 50" style="enable-background:new 0 0 50 50;" xml:space="preserve">
<style type="text/css">
	.st0{stroke:#000000;stroke-width:3;stroke-linejoin:round;stroke-miterlimit:10;}
	.st1{fill:none;stroke:#000000;stroke-width:3;stroke-linejoin:round;stroke-miterlimit:10;}
	.st2{fill:#905247;}
	.st3{fill:#FFFFFF;}
</style>
<text transform="matrix(1 0 0 1 -587.2418 214.9219)"><tspan x="0" y="0" style="font-family:'Arial-BoldMT'; font-size:49.1468px;">PET</tspan><tspan x="95.6" y="0" style="font-family:'ArialMT'; font-size:49.1468px;">cellent</tspan></text>
<text transform="matrix(1 0 0 1 -587.2418 145.2552)"><tspan x="0" y="0" style="font-family:'Arial-BoldMT'; font-size:49.1468px;">PETex</tspan><tspan x="150.2" y="0" style="font-family:'ArialMT'; font-size:49.1468px;">cellent</tspan></text>
<path class="st0" d="M-525.5,263.6c0,3.3-2.7,6-6,6h-15.3c-3.3,0-6-2.7-6-6v-8.3c0-3.3,2.7-6,6-6h15.3c3.3,0,6,2.7,6,6V263.6z"/>
<path class="st1" d="M-557.7,259.6c0,3.3-2.7,6-6,6H-574c-3.3,0-6-2.7-6-6v-4.3c0-3.3,2.7-6,6-6h10.3c3.3,0,6,2.7,6,6V259.6z"/>
<path class="st1" d="M-525.5,283.4c0,3.3-2.7,6-6,6h-15.3c-3.3,0-6-2.7-6-6v-22.3c0-3.3,2.7-6,6-6h15.3c3.3,0,6,2.7,6,6"/>
<path class="st1" d="M-580,283.4c0,3.3,2.7,6,6,6h15.3c3.3,0,6-2.7,6-6v-7.3"/>
<line class="st1" x1="-580.1" y1="279.7" x2="-580.1" y2="253.4"/>
<path class="st1" d="M-496.7,256.6c0,3.3-2.7,6-6,6H-513c-3.3,0-6-2.7-6-6"/>
<line class="st1" x1="-507.8" y1="282.2" x2="-507.8" y2="263"/>
<line class="st1" x1="-516.5" y1="269.6" x2="-514.9" y2="263.1"/>
<line class="st1" x1="-498.9" y1="269.6" x2="-500.5" y2="263.1"/>
<circle class="st1" cx="-568.8" cy="257.5" r="4.7"/>
<circle cx="-538.8" cy="280.7" r="1"/>
<g>
	<circle cx="-544.1" cy="276.1" r="1"/>
	<circle cx="-533.4" cy="276.1" r="1"/>
</g>
<path class="st0" d="M-431.1,263.6c0,3.3-2.7,6-6,6h-15.3c-3.3,0-6-2.7-6-6v-8.3c0-3.3,2.7-6,6-6h15.3c3.3,0,6,2.7,6,6V263.6z"/>
<path class="st1" d="M-472,283.4c0,3.3,2.7,6,6,6h15.3c3.3,0,6-2.7,6-6v-14.3"/>
<path class="st1" d="M-417.7,283.4c0,3.3-2.7,6-6,6H-439c-3.3,0-6-2.7-6-6v-14.3"/>
<circle cx="-430.8" cy="280.7" r="1"/>
<g>
	<circle cx="-436.1" cy="276.1" r="1"/>
	<circle cx="-425.4" cy="276.1" r="1"/>
</g>
<circle cx="-458.3" cy="280.7" r="1"/>
<g>
	<circle cx="-463.7" cy="276.1" r="1"/>
	<circle cx="-453" cy="276.1" r="1"/>
</g>
<path class="st1" d="M-435.1,292.8v6c0,4.4-3.6,8-8,8h-3.2c-4.4,0-8-3.6-8-8v-6"/>
<line class="st1" x1="-445" y1="302.1" x2="-445" y2="287.4"/>
<text transform="matrix(1 0 0 1 -458.2091 265.1716)" class="st3" style="font-family:'Arial-BoldMT'; font-size:13.8058px;">PET</text>
<path id="SVGID_x5F_1_x5F_" style="fill:none;" d="M-407.1,285.7c0-20.8-16.8-37.6-37.6-37.6c-20.8,0-37.6,16.8-37.6,37.6
	c0,20.8,16.8,37.6,37.6,37.6C-424,323.3-407.1,306.4-407.1,285.7z"/>
<text><textPath  xlink:href="#SVGID_x5F_1_x5F_" startOffset="-56.7057%">
<tspan  style="font-family:'Arial-BoldMT'; font-size:14.4321px;">petcellent</tspan></textPath>
</text>
<path class="st0" d="M-310.4,266.6c0,3.3-2.7,6-6,6h-15.3c-3.3,0-6-2.7-6-6v-4.3c0-3.3,2.7-6,6-6h15.3c3.3,0,6,2.7,6,6V266.6z"/>
<path class="st1" d="M-351.3,283.4c0,3.3,2.7,6,6,6h15.3c3.3,0,6-2.7,6-6v-14.3"/>
<path class="st1" d="M-297.1,283.4c0,3.3-2.7,6-6,6h-15.2c-3.3,0-6-2.7-6-6v-14.3"/>
<path class="st1" d="M-314.4,292.8v6c0,4.4-3.6,8-8,8h-3.2c-4.4,0-8-3.6-8-8v-6"/>
<line class="st1" x1="-324.3" y1="302.1" x2="-324.3" y2="287.4"/>
<text transform="matrix(1 0 0 1 -337.5426 225.5051)" class="st3" style="font-family:'Arial-BoldMT'; font-size:13.8058px;">PET</text>
<path id="SVGID_x5F_2_x5F_" style="fill:none;" d="M-286.5,287.7c0-20.8-16.8-37.6-37.6-37.6c-20.8,0-37.6,16.8-37.6,37.6
	c0,20.8,16.8,37.6,37.6,37.6C-303.3,325.3-286.5,308.4-286.5,287.7z"/>
<text><textPath  xlink:href="#SVGID_x5F_2_x5F_" startOffset="-56.7057%">
<tspan  style="font-family:'Arial-BoldMT'; font-size:14.4321px;">petcellent</tspan></textPath>
</text>
<g>
	<g>
		<path d="M-621,167.5h-12.1c-3.5,0-6.3,2.8-6.3,6.3v3.4c0,3.5,2.8,6.3,6.3,6.3h12.1c3.5,0,6.3-2.8,6.3-6.3v-3.4
			C-614.7,170.3-617.5,167.5-621,167.5z"/>
		<g>
			<path d="M-607.1,190.5c0,1.8-1.5,3.3-3.3,3.3h-12.1c-1.5,0-2.8-1-3.1-2.4c0-0.3,0.1-0.6,0.1-0.9v-11.3h-0.2h-2.8h-0.2v11.3
				c0,0.3,0,0.6,0.1,0.9c-0.4,1.4-1.6,2.4-3.1,2.4H-644c-1.8,0-3.3-1.5-3.3-3.3h-3c0,3.5,2.8,6.3,6.3,6.3h12.1
				c1.1,0,2.2-0.3,3.1-0.8v9.5h3v-9.6c1,0.6,2.1,0.9,3.3,0.9h12.1c3.5,0,6.3-2.8,6.3-6.3H-607.1z"/>
			<path d="M-620.9,202.7c0,2.7-2.2,4.9-4.9,4.9h-2.6c-2.7,0-4.9-2.2-4.9-4.9V198h-3v4.8c0,4.3,3.5,7.9,7.9,7.9h2.6
				c4.3,0,7.9-3.5,7.9-7.9V198h-3V202.7z"/>
		</g>
	</g>
	<g>
		<path d="M-648.2,205.6l0.9,1.2l-0.7,0.5c0.4,0,0.7,0.1,1,0.2c0.3,0.2,0.6,0.4,0.9,0.7c0.4,0.6,0.5,1.2,0.4,1.9
			c-0.2,0.7-0.6,1.3-1.4,1.9c-0.8,0.6-1.6,0.8-2.3,0.7c-0.7-0.1-1.3-0.4-1.7-1c-0.2-0.3-0.3-0.5-0.4-0.8c0-0.3,0-0.7,0.1-1.1
			l-2.4,1.7l-0.9-1.3L-648.2,205.6z M-649.6,208.5c-0.5,0.4-0.9,0.8-1,1.2c-0.1,0.4,0,0.8,0.2,1.1c0.2,0.3,0.5,0.5,0.9,0.5
			c0.4,0,0.8-0.2,1.4-0.5c0.5-0.4,0.8-0.7,0.9-1.1c0.1-0.4,0-0.7-0.2-1c-0.2-0.3-0.5-0.5-0.9-0.5
			C-648.7,208-649.1,208.2-649.6,208.5z"/>
		<path d="M-643.9,216.3l1.1,1.2c-0.5,0.3-1,0.5-1.6,0.4c-0.5,0-1-0.3-1.6-0.7c-0.8-0.7-1.2-1.4-1.1-2.2c0-0.7,0.3-1.3,0.8-2
			c0.6-0.8,1.3-1.2,2.1-1.3c0.8-0.1,1.4,0.1,2,0.6c0.7,0.6,1,1.2,1.1,2c0,0.8-0.3,1.6-1.1,2.5l-3.1-2.5c-0.3,0.4-0.4,0.7-0.4,1.1
			c0,0.4,0.2,0.6,0.5,0.9c0.2,0.2,0.4,0.2,0.6,0.2C-644.4,216.6-644.2,216.5-643.9,216.3z M-642.8,215.2c0.3-0.4,0.4-0.7,0.4-1
			c0-0.3-0.2-0.6-0.4-0.8c-0.3-0.2-0.6-0.3-0.9-0.2c-0.3,0.1-0.6,0.2-0.9,0.6L-642.8,215.2z"/>
		<path d="M-636.6,216l-0.6,1.1l-1-0.5l-1.1,2.1c-0.2,0.4-0.3,0.7-0.4,0.8c0,0.1,0,0.2,0,0.2c0,0.1,0.1,0.1,0.2,0.2
			c0.1,0.1,0.3,0.1,0.6,0.2l-0.4,1.1c-0.4,0-0.8-0.2-1.2-0.4c-0.3-0.1-0.5-0.3-0.6-0.5c-0.2-0.2-0.3-0.4-0.3-0.6
			c0-0.2,0-0.4,0.1-0.6c0.1-0.2,0.2-0.5,0.5-1l1.2-2.3l-0.6-0.3l0.6-1.1l0.6,0.3l0.5-1.1l1.8-0.1l-1,1.9L-636.6,216z"/>
		<path d="M-631.2,219.5l-1.6-0.1c0-0.3,0-0.6-0.2-0.8c-0.1-0.2-0.3-0.3-0.6-0.4c-0.4-0.1-0.7-0.1-1,0.1c-0.3,0.2-0.5,0.6-0.7,1.2
			c-0.2,0.7-0.2,1.2-0.1,1.5c0.2,0.3,0.4,0.6,0.8,0.7c0.3,0.1,0.5,0.1,0.8,0c0.2-0.1,0.4-0.4,0.6-0.7l1.4,0.7
			c-0.3,0.6-0.8,1.1-1.3,1.3c-0.5,0.2-1.2,0.2-1.9,0c-0.8-0.2-1.4-0.7-1.8-1.4c-0.4-0.7-0.4-1.5-0.1-2.4c0.3-0.9,0.7-1.6,1.4-2
			c0.6-0.4,1.4-0.5,2.3-0.2c0.7,0.2,1.2,0.5,1.5,0.9C-631.4,218.3-631.2,218.8-631.2,219.5z"/>
		<path d="M-626.3,222l1.6,0.3c-0.2,0.6-0.5,1-1,1.3c-0.4,0.3-1,0.4-1.6,0.4c-1,0-1.8-0.4-2.3-1.1c-0.4-0.5-0.6-1.2-0.6-2.1
			c0-1,0.3-1.8,0.8-2.3c0.5-0.6,1.2-0.8,2-0.8c0.9,0,1.6,0.3,2.1,0.9c0.5,0.6,0.7,1.5,0.7,2.7l-3.9-0.1c0,0.5,0.1,0.8,0.4,1.1
			c0.2,0.3,0.5,0.4,0.9,0.4c0.2,0,0.5-0.1,0.6-0.2S-626.4,222.3-626.3,222z M-626.2,220.4c0-0.5-0.1-0.8-0.3-1
			c-0.2-0.2-0.5-0.4-0.8-0.4c-0.3,0-0.6,0.1-0.9,0.4c-0.2,0.2-0.3,0.6-0.3,1L-626.2,220.4z"/>
		<path d="M-622.5,223.5l-1.5-8.1l1.6-0.3l1.5,8.1L-622.5,223.5z"/>
		<path d="M-618.7,222.7l-2.5-7.8l1.5-0.5l2.5,7.8L-618.7,222.7z"/>
		<path d="M-612.6,218l1.5-0.5c0.1,0.6,0,1.1-0.2,1.6c-0.2,0.5-0.6,0.9-1.2,1.2c-0.9,0.5-1.7,0.6-2.5,0.2c-0.6-0.3-1.1-0.8-1.5-1.5
			c-0.5-0.9-0.6-1.7-0.4-2.4c0.2-0.7,0.6-1.3,1.3-1.7c0.8-0.4,1.5-0.5,2.3-0.2c0.7,0.3,1.4,0.9,1.9,2l-3.5,1.9
			c0.2,0.4,0.5,0.7,0.9,0.8c0.3,0.1,0.7,0.1,1-0.1c0.2-0.1,0.4-0.3,0.4-0.5C-612.5,218.5-612.5,218.3-612.6,218z M-613.3,216.5
			c-0.2-0.4-0.5-0.6-0.8-0.7c-0.3-0.1-0.6-0.1-0.9,0.1c-0.3,0.2-0.5,0.4-0.6,0.7c-0.1,0.3,0,0.7,0.2,1.1L-613.3,216.5z"/>
		<path d="M-604.2,213.4l-1.1,1.1l-2.1-2.2c-0.4-0.5-0.8-0.7-0.9-0.8c-0.2-0.1-0.4-0.1-0.5-0.1c-0.2,0-0.3,0.1-0.5,0.3
			c-0.2,0.2-0.3,0.4-0.4,0.7c-0.1,0.3,0,0.5,0.1,0.7c0.1,0.2,0.4,0.6,0.9,1.1l1.9,1.9l-1.1,1.1l-4.2-4.3l1-1l0.6,0.6
			c-0.1-0.8,0.1-1.5,0.7-2.1c0.2-0.2,0.5-0.4,0.8-0.5c0.3-0.1,0.6-0.1,0.8-0.1s0.5,0.1,0.7,0.3c0.2,0.1,0.5,0.4,0.8,0.7
			L-604.2,213.4z"/>
		<path d="M-606.1,205.7l1.1,0.7l-0.6,0.9l2,1.3c0.4,0.3,0.6,0.4,0.7,0.4c0.1,0,0.2,0,0.2,0c0.1,0,0.2-0.1,0.2-0.2
			c0.1-0.1,0.2-0.3,0.2-0.6l1.1,0.6c-0.1,0.4-0.2,0.8-0.5,1.2c-0.2,0.2-0.3,0.4-0.5,0.6c-0.2,0.1-0.4,0.2-0.6,0.2
			c-0.2,0-0.4,0-0.6-0.2c-0.2-0.1-0.5-0.3-1-0.6l-2.2-1.4l-0.4,0.6l-1.1-0.7l0.4-0.6l-1-0.6l0.1-1.8l1.8,1.2L-606.1,205.7z"/>
	</g>
</g>
<g>
	<path d="M-493.9,346.4h-6.5c-1.9,0-3.4,1.5-3.4,3.4v1.8c0,1.9,1.5,3.4,3.4,3.4h6.5c1.9,0,3.4-1.5,3.4-3.4v-1.8
		C-490.5,347.9-492,346.4-493.9,346.4z"/>
	<g>
		<path d="M-486.4,358.8c0,1-0.8,1.8-1.8,1.8h-6.5c-0.8,0-1.5-0.5-1.7-1.3c0-0.2,0-0.3,0-0.5v-6.1h-0.1h-1.5h-0.1v6.1
			c0,0.2,0,0.3,0,0.5c-0.2,0.7-0.9,1.3-1.7,1.3h-6.5c-1,0-1.8-0.8-1.8-1.8h-1.6c0,1.9,1.5,3.4,3.4,3.4h6.5c0.6,0,1.2-0.2,1.7-0.4
			v5.1h1.6v-5.1c0.5,0.3,1.1,0.5,1.8,0.5h6.5c1.9,0,3.4-1.5,3.4-3.4H-486.4z"/>
		<path d="M-493.9,365.4c0,1.4-1.2,2.6-2.6,2.6h-1.4c-1.4,0-2.6-1.2-2.6-2.6v-2.6h-1.6v2.6c0,2.3,1.9,4.2,4.2,4.2h1.4
			c2.3,0,4.2-1.9,4.2-4.2v-2.6h-1.6V365.4z"/>
	</g>
</g>
<g>
	<path d="M-454.8,376.9h-6.5c-1.9,0-3.4,1.5-3.4,3.4v1.8c0,1.9,1.5,3.4,3.4,3.4h6.5c1.9,0,3.4-1.5,3.4-3.4v-1.8
		C-451.4,378.4-452.9,376.9-454.8,376.9z"/>
	<g>
		<path d="M-447.3,389.3c0,1-0.8,1.8-1.8,1.8h-6.5c-0.8,0-1.5-0.5-1.7-1.3c0-0.2,0-0.3,0-0.5v-6.1h-0.1h-1.5h-0.1v6.1
			c0,0.2,0,0.3,0,0.5c-0.2,0.7-0.9,1.3-1.7,1.3h-6.5c-1,0-1.8-0.8-1.8-1.8h-1.6c0,1.9,1.5,3.4,3.4,3.4h6.5c0.6,0,1.2-0.2,1.7-0.4
			v5.1h1.6v-5.1c0.5,0.3,1.1,0.5,1.8,0.5h6.5c1.9,0,3.4-1.5,3.4-3.4H-447.3z"/>
		<path d="M-454.7,395.9c0,1.4-1.2,2.6-2.6,2.6h-1.4c-1.4,0-2.6-1.2-2.6-2.6v-2.6h-1.6v2.6c0,2.3,1.9,4.2,4.2,4.2h1.4
			c2.3,0,4.2-1.9,4.2-4.2v-2.6h-1.6V395.9z"/>
	</g>
</g>
<path class="st0" d="M-616.2,290c0,2.6-2.1,4.8-4.8,4.8h-12.1c-2.6,0-4.8-2.1-4.8-4.8v-3.4c0-2.6,2.1-4.8,4.8-4.8h12.1
	c2.6,0,4.8,2.1,4.8,4.8V290z"/>
<path class="st1" d="M-648.7,303.3c0,2.6,2.1,4.8,4.8,4.8h12.1c2.6,0,4.8-2.1,4.8-4.8V292"/>
<path class="st1" d="M-605.6,303.3c0,2.6-2.1,4.8-4.8,4.8h-12.1c-2.6,0-4.8-2.1-4.8-4.8V292"/>
<path class="st1" d="M-619.4,310.8v4.8c0,3.5-2.9,6.4-6.4,6.4h-2.6c-3.5,0-6.4-2.9-6.4-6.4v-4.8"/>
<line class="st1" x1="-627.3" y1="318.2" x2="-627.3" y2="306.5"/>
<path id="SVGID_x5F_3_x5F_" style="fill:none;" d="M-597.1,306.8c0-16.5-13.4-29.9-29.9-29.9c-16.5,0-29.9,13.4-29.9,29.9
	c0,16.5,13.4,29.9,29.9,29.9C-610.5,336.7-597.1,323.3-597.1,306.8z"/>
<text><textPath  xlink:href="#SVGID_x5F_3_x5F_" startOffset="-56.7057%">
<tspan  style="font-family:'Arial-BoldMT'; font-size:11.4881px;">petcellent</tspan></textPath>
</text>
<text transform="matrix(1 0 0 1 -487.1699 357.4354)" style="font-family:'Arial-BoldMT'; font-size:11.4881px;">PETcellent</text>
<text transform="matrix(1 0 0 1 -483.0475 363.5176)" style="font-family:'ArialMT'; font-size:4.503px; letter-spacing:1;">EVERY LOVE PET</text>
<g>
	<g>
		<path d="M-499.8,449.3h-6.5c-1.9,0-3.4,1.5-3.4,3.4v1.8c0,1.9,1.5,3.4,3.4,3.4h6.5c1.9,0,3.4-1.5,3.4-3.4v-1.8
			C-496.4,450.8-497.9,449.3-499.8,449.3z"/>
		<g>
			<path d="M-492.3,461.6c0,1-0.8,1.8-1.8,1.8h-6.5c-0.8,0-1.5-0.5-1.7-1.3c0-0.2,0-0.3,0-0.5v-6.1h-0.1h-1.5h-0.1v6.1
				c0,0.2,0,0.3,0,0.5c-0.2,0.7-0.9,1.3-1.7,1.3h-6.5c-1,0-1.8-0.8-1.8-1.8h-1.6c0,1.9,1.5,3.4,3.4,3.4h6.5c0.6,0,1.2-0.2,1.7-0.4
				v5.1h1.6v-5.1c0.5,0.3,1.1,0.5,1.8,0.5h6.5c1.9,0,3.4-1.5,3.4-3.4H-492.3z"/>
			<path d="M-499.7,468.2c0,1.4-1.2,2.6-2.6,2.6h-1.4c-1.4,0-2.6-1.2-2.6-2.6v-2.6h-1.6v2.6c0,2.3,1.9,4.2,4.2,4.2h1.4
				c2.3,0,4.2-1.9,4.2-4.2v-2.6h-1.6V468.2z"/>
		</g>
	</g>
	<g>
		<path d="M-492.2,460.3v-8.2h2.7c1,0,1.7,0,2,0.1c0.5,0.1,0.9,0.4,1.2,0.8c0.3,0.4,0.5,0.9,0.5,1.6c0,0.5-0.1,0.9-0.3,1.3
			c-0.2,0.3-0.4,0.6-0.7,0.8c-0.3,0.2-0.6,0.3-0.9,0.4c-0.4,0.1-1,0.1-1.7,0.1h-1.1v3.1H-492.2z M-490.6,453.5v2.3h0.9
			c0.7,0,1.1,0,1.3-0.1c0.2-0.1,0.4-0.2,0.5-0.4c0.1-0.2,0.2-0.4,0.2-0.6c0-0.3-0.1-0.5-0.3-0.7c-0.2-0.2-0.4-0.3-0.7-0.4
			c-0.2,0-0.6-0.1-1.2-0.1H-490.6z"/>
		<path d="M-484.5,460.3v-8.2h6.1v1.4h-4.4v1.8h4.1v1.4h-4.1v2.2h4.6v1.4H-484.5z"/>
		<path d="M-475,460.3v-6.8h-2.4v-1.4h6.5v1.4h-2.4v6.8H-475z"/>
		<path d="M-465.5,456.1l-1.6,0.3c-0.1-0.3-0.2-0.5-0.4-0.7c-0.2-0.2-0.4-0.2-0.7-0.2c-0.4,0-0.7,0.1-0.9,0.4
			c-0.2,0.3-0.4,0.7-0.4,1.4c0,0.7,0.1,1.2,0.4,1.5c0.2,0.3,0.6,0.4,1,0.4c0.3,0,0.5-0.1,0.7-0.3c0.2-0.2,0.3-0.5,0.4-0.9l1.5,0.3
			c-0.2,0.7-0.5,1.2-0.9,1.6c-0.5,0.4-1.1,0.5-1.8,0.5c-0.9,0-1.6-0.3-2.1-0.8c-0.5-0.5-0.8-1.3-0.8-2.3c0-1,0.3-1.7,0.8-2.3
			c0.5-0.5,1.2-0.8,2.1-0.8c0.7,0,1.3,0.2,1.7,0.5C-466,455-465.7,455.5-465.5,456.1z"/>
		<path d="M-460.9,458.4l1.6,0.3c-0.2,0.6-0.5,1-1,1.3c-0.4,0.3-1,0.5-1.6,0.5c-1,0-1.8-0.3-2.3-1c-0.4-0.5-0.6-1.2-0.6-2.1
			c0-1,0.3-1.8,0.8-2.3c0.5-0.6,1.2-0.8,2-0.8c0.9,0,1.6,0.3,2.1,0.9c0.5,0.6,0.8,1.5,0.7,2.7h-3.9c0,0.5,0.1,0.8,0.4,1.1
			c0.2,0.3,0.5,0.4,0.9,0.4c0.2,0,0.5-0.1,0.6-0.2C-461.1,458.9-461,458.7-460.9,458.4z M-460.8,456.8c0-0.5-0.1-0.8-0.4-1
			c-0.2-0.2-0.5-0.4-0.8-0.4c-0.3,0-0.6,0.1-0.9,0.4c-0.2,0.3-0.3,0.6-0.3,1H-460.8z"/>
		<path d="M-458,460.3v-8.2h1.6v8.2H-458z"/>
		<path d="M-454.8,460.3v-8.2h1.6v8.2H-454.8z"/>
		<path d="M-448.1,458.4l1.6,0.3c-0.2,0.6-0.5,1-1,1.3c-0.4,0.3-1,0.5-1.6,0.5c-1,0-1.8-0.3-2.3-1c-0.4-0.5-0.6-1.2-0.6-2.1
			c0-1,0.3-1.8,0.8-2.3c0.5-0.6,1.2-0.8,2-0.8c0.9,0,1.6,0.3,2.1,0.9c0.5,0.6,0.8,1.5,0.7,2.7h-3.9c0,0.5,0.1,0.8,0.4,1.1
			c0.2,0.3,0.5,0.4,0.9,0.4c0.2,0,0.5-0.1,0.6-0.2C-448.3,458.9-448.2,458.7-448.1,458.4z M-448,456.8c0-0.5-0.1-0.8-0.4-1
			c-0.2-0.2-0.5-0.4-0.8-0.4c-0.3,0-0.6,0.1-0.9,0.4c-0.2,0.3-0.3,0.6-0.3,1H-448z"/>
		<path d="M-439.8,460.3h-1.6v-3c0-0.6,0-1.1-0.1-1.2c-0.1-0.2-0.2-0.3-0.3-0.4c-0.2-0.1-0.3-0.2-0.5-0.2c-0.3,0-0.5,0.1-0.7,0.2
			c-0.2,0.1-0.4,0.3-0.4,0.6c-0.1,0.2-0.1,0.7-0.1,1.4v2.7h-1.6v-6h1.5v0.9c0.5-0.7,1.2-1,2-1c0.3,0,0.7,0.1,1,0.2
			c0.3,0.1,0.5,0.3,0.7,0.5c0.1,0.2,0.3,0.4,0.3,0.7c0.1,0.2,0.1,0.6,0.1,1.1V460.3z"/>
		<path d="M-435.4,454.3v1.3h-1.1v2.4c0,0.5,0,0.8,0,0.8c0,0.1,0.1,0.1,0.1,0.2c0.1,0.1,0.2,0.1,0.3,0.1c0.1,0,0.4-0.1,0.6-0.2
			l0.1,1.2c-0.4,0.2-0.8,0.2-1.2,0.2c-0.3,0-0.5,0-0.8-0.1c-0.2-0.1-0.4-0.2-0.5-0.4c-0.1-0.2-0.2-0.4-0.2-0.6
			c0-0.2-0.1-0.6-0.1-1.1v-2.6h-0.7v-1.3h0.7v-1.2l1.6-0.9v2.1H-435.4z"/>
	</g>
	<g>
		<path d="M-488.5,466.4v-3.2h2.3v0.4h-1.9v1h1.8v0.4h-1.8v1.1h2v0.4H-488.5z"/>
		<path d="M-483.4,466.4l-1.2-3.2h0.5l0.8,2.3c0.1,0.2,0.1,0.4,0.2,0.5c0-0.2,0.1-0.4,0.2-0.5l0.9-2.3h0.4l-1.3,3.2H-483.4z"/>
		<path d="M-480.1,466.4v-3.2h2.3v0.4h-1.9v1h1.8v0.4h-1.8v1.1h2v0.4H-480.1z"/>
		<path d="M-475.9,466.4v-3.2h1.4c0.3,0,0.5,0,0.7,0.1c0.1,0.1,0.3,0.2,0.4,0.3c0.1,0.1,0.1,0.3,0.1,0.5c0,0.2-0.1,0.4-0.2,0.6
			c-0.1,0.2-0.4,0.3-0.7,0.3c0.1,0.1,0.2,0.1,0.3,0.2c0.1,0.1,0.2,0.3,0.4,0.4l0.6,0.9h-0.5l-0.4-0.7c-0.1-0.2-0.2-0.3-0.3-0.4
			c-0.1-0.1-0.2-0.2-0.2-0.2c-0.1,0-0.1-0.1-0.2-0.1c0,0-0.1,0-0.2,0h-0.5v1.4H-475.9z M-475.5,464.6h0.9c0.2,0,0.3,0,0.5-0.1
			c0.1,0,0.2-0.1,0.3-0.2c0.1-0.1,0.1-0.2,0.1-0.3c0-0.2-0.1-0.3-0.2-0.4c-0.1-0.1-0.3-0.1-0.5-0.1h-1V464.6z"/>
		<path d="M-470.7,466.4V465l-1.2-1.9h0.5l0.6,1c0.1,0.2,0.2,0.4,0.3,0.5c0.1-0.2,0.2-0.4,0.4-0.6l0.6-0.9h0.5l-1.3,1.9v1.4H-470.7z
			"/>
		<path d="M-465.1,466.4v-3.2h0.4v2.8h1.6v0.4H-465.1z"/>
		<path d="M-461.5,464.8c0-0.5,0.1-1,0.4-1.3c0.3-0.3,0.7-0.5,1.1-0.5c0.3,0,0.6,0.1,0.8,0.2c0.2,0.1,0.4,0.3,0.5,0.6
			c0.1,0.3,0.2,0.5,0.2,0.9c0,0.3-0.1,0.6-0.2,0.9c-0.1,0.3-0.3,0.5-0.6,0.6c-0.2,0.1-0.5,0.2-0.8,0.2c-0.3,0-0.6-0.1-0.8-0.2
			c-0.2-0.1-0.4-0.3-0.5-0.6C-461.5,465.4-461.5,465.1-461.5,464.8z M-461.1,464.8c0,0.4,0.1,0.7,0.3,0.9c0.2,0.2,0.5,0.3,0.8,0.3
			c0.3,0,0.6-0.1,0.8-0.3c0.2-0.2,0.3-0.5,0.3-1c0-0.3,0-0.5-0.1-0.7c-0.1-0.2-0.2-0.3-0.4-0.5c-0.2-0.1-0.4-0.2-0.6-0.2
			c-0.3,0-0.6,0.1-0.8,0.3C-461,464-461.1,464.3-461.1,464.8z"/>
		<path d="M-455.8,466.4l-1.2-3.2h0.5l0.8,2.3c0.1,0.2,0.1,0.4,0.2,0.5c0-0.2,0.1-0.4,0.2-0.5l0.9-2.3h0.4l-1.3,3.2H-455.8z"/>
		<path d="M-452.6,466.4v-3.2h2.3v0.4h-1.9v1h1.8v0.4h-1.8v1.1h2v0.4H-452.6z"/>
		<path d="M-446,466.4v-3.2h1.2c0.2,0,0.4,0,0.5,0c0.2,0,0.3,0.1,0.4,0.2c0.1,0.1,0.2,0.2,0.3,0.3s0.1,0.3,0.1,0.4
			c0,0.3-0.1,0.5-0.3,0.7c-0.2,0.2-0.5,0.3-0.9,0.3h-0.8v1.3H-446z M-445.5,464.7h0.8c0.3,0,0.5-0.1,0.6-0.2
			c0.1-0.1,0.2-0.2,0.2-0.4c0-0.1,0-0.3-0.1-0.3c-0.1-0.1-0.2-0.2-0.3-0.2c-0.1,0-0.2,0-0.4,0h-0.8V464.7z"/>
		<path d="M-441.8,466.4v-3.2h2.3v0.4h-1.9v1h1.8v0.4h-1.8v1.1h2v0.4H-441.8z"/>
		<path d="M-436.8,466.4v-2.8h-1.1v-0.4h2.6v0.4h-1.1v2.8H-436.8z"/>
	</g>
</g>
<text transform="matrix(1 0 0 1 -473.361 406.1226)" style="font-family:'Arial-BoldMT'; font-size:6.1526px;">PETcellent</text>
<text transform="matrix(1 0 0 1 -472.3419 409.3804)" style="font-family:'ArialMT'; font-size:2.4117px;">EVERY LOVE PET</text>
<g>
	<g>
		<path d="M-540.8,447.6h-6.5c-1.9,0-3.4,1.5-3.4,3.4v1.8c0,1.9,1.5,3.4,3.4,3.4h6.5c1.9,0,3.4-1.5,3.4-3.4V451
			C-537.4,449.1-539,447.6-540.8,447.6z"/>
		<g>
			<path d="M-533.3,460c0,1-0.8,1.8-1.8,1.8h-6.5c-0.8,0-1.5-0.5-1.7-1.3c0-0.2,0-0.3,0-0.5v-6.1h-0.1h-1.5h-0.1v6.1
				c0,0.2,0,0.3,0,0.5c-0.2,0.7-0.9,1.3-1.7,1.3h-6.5c-1,0-1.8-0.8-1.8-1.8h-1.6c0,1.9,1.5,3.4,3.4,3.4h6.5c0.6,0,1.2-0.2,1.7-0.4
				v5.1h1.6v-5.1c0.5,0.3,1.1,0.5,1.8,0.5h6.5c1.9,0,3.4-1.5,3.4-3.4H-533.3z"/>
			<path d="M-540.8,466.6c0,1.4-1.2,2.6-2.6,2.6h-1.4c-1.4,0-2.6-1.2-2.6-2.6V464h-1.6v2.6c0,2.3,1.9,4.2,4.2,4.2h1.4
				c2.3,0,4.2-1.9,4.2-4.2V464h-1.6V466.6z"/>
		</g>
	</g>
	<g>
		<path d="M-559.4,476.8v-4.4h1.4c0.5,0,0.9,0,1.1,0.1c0.3,0.1,0.5,0.2,0.6,0.4c0.2,0.2,0.3,0.5,0.3,0.9c0,0.3,0,0.5-0.1,0.7
			s-0.2,0.3-0.4,0.4c-0.2,0.1-0.3,0.2-0.5,0.2c-0.2,0-0.5,0.1-0.9,0.1h-0.6v1.7H-559.4z M-558.5,473.2v1.3h0.5c0.4,0,0.6,0,0.7-0.1
			c0.1,0,0.2-0.1,0.3-0.2c0.1-0.1,0.1-0.2,0.1-0.3c0-0.2,0-0.3-0.1-0.4c-0.1-0.1-0.2-0.2-0.4-0.2c-0.1,0-0.3,0-0.6,0H-558.5z"/>
		<path d="M-555.3,476.8v-4.4h3.3v0.7h-2.4v1h2.2v0.7h-2.2v1.2h2.5v0.7H-555.3z"/>
		<path d="M-550.2,476.8v-3.7h-1.3v-0.7h3.5v0.7h-1.3v3.7H-550.2z"/>
		<path d="M-545.1,474.6l-0.8,0.2c0-0.2-0.1-0.3-0.2-0.4c-0.1-0.1-0.2-0.1-0.4-0.1c-0.2,0-0.4,0.1-0.5,0.2c-0.1,0.1-0.2,0.4-0.2,0.7
			c0,0.4,0.1,0.6,0.2,0.8c0.1,0.2,0.3,0.2,0.5,0.2c0.2,0,0.3,0,0.4-0.1c0.1-0.1,0.2-0.2,0.2-0.5l0.8,0.1c-0.1,0.4-0.3,0.7-0.5,0.9
			c-0.2,0.2-0.6,0.3-1,0.3c-0.5,0-0.8-0.1-1.1-0.4c-0.3-0.3-0.4-0.7-0.4-1.2c0-0.5,0.1-0.9,0.4-1.2c0.3-0.3,0.7-0.4,1.1-0.4
			c0.4,0,0.7,0.1,0.9,0.3C-545.3,474-545.2,474.2-545.1,474.6z"/>
		<path d="M-542.6,475.8l0.8,0.1c-0.1,0.3-0.3,0.5-0.5,0.7c-0.2,0.2-0.5,0.2-0.9,0.2c-0.6,0-1-0.2-1.2-0.5c-0.2-0.3-0.3-0.7-0.3-1.1
			c0-0.5,0.1-0.9,0.4-1.2c0.3-0.3,0.6-0.4,1-0.4c0.5,0,0.8,0.2,1.1,0.5c0.3,0.3,0.4,0.8,0.4,1.4h-2.1c0,0.3,0.1,0.4,0.2,0.6
			c0.1,0.1,0.3,0.2,0.5,0.2c0.1,0,0.2,0,0.3-0.1C-542.7,476.1-542.6,476-542.6,475.8z M-542.5,475c0-0.2-0.1-0.4-0.2-0.6
			c-0.1-0.1-0.3-0.2-0.4-0.2c-0.2,0-0.3,0.1-0.5,0.2c-0.1,0.1-0.2,0.3-0.2,0.5H-542.5z"/>
		<path d="M-541,476.8v-4.4h0.8v4.4H-541z"/>
		<path d="M-539.3,476.8v-4.4h0.8v4.4H-539.3z"/>
		<path d="M-535.7,475.8l0.8,0.1c-0.1,0.3-0.3,0.5-0.5,0.7c-0.2,0.2-0.5,0.2-0.9,0.2c-0.6,0-1-0.2-1.2-0.5c-0.2-0.3-0.3-0.7-0.3-1.1
			c0-0.5,0.1-0.9,0.4-1.2c0.3-0.3,0.6-0.4,1-0.4c0.5,0,0.8,0.2,1.1,0.5c0.3,0.3,0.4,0.8,0.4,1.4h-2.1c0,0.3,0.1,0.4,0.2,0.6
			c0.1,0.1,0.3,0.2,0.5,0.2c0.1,0,0.2,0,0.3-0.1C-535.9,476.1-535.8,476-535.7,475.8z M-535.7,475c0-0.2-0.1-0.4-0.2-0.6
			c-0.1-0.1-0.3-0.2-0.4-0.2c-0.2,0-0.3,0.1-0.5,0.2c-0.1,0.1-0.2,0.3-0.2,0.5H-535.7z"/>
		<path d="M-531.3,476.8h-0.8v-1.6c0-0.3,0-0.6-0.1-0.7c0-0.1-0.1-0.2-0.2-0.2c-0.1-0.1-0.2-0.1-0.3-0.1c-0.1,0-0.3,0-0.4,0.1
			c-0.1,0.1-0.2,0.2-0.2,0.3c0,0.1-0.1,0.4-0.1,0.7v1.4h-0.8v-3.2h0.8v0.5c0.3-0.4,0.6-0.5,1.1-0.5c0.2,0,0.4,0,0.5,0.1
			s0.3,0.2,0.4,0.3c0.1,0.1,0.1,0.2,0.2,0.4c0,0.1,0,0.3,0,0.6V476.8z"/>
		<path d="M-528.9,473.6v0.7h-0.6v1.3c0,0.3,0,0.4,0,0.5c0,0,0,0.1,0.1,0.1c0,0,0.1,0,0.1,0c0.1,0,0.2,0,0.3-0.1l0.1,0.7
			c-0.2,0.1-0.4,0.1-0.7,0.1c-0.2,0-0.3,0-0.4-0.1c-0.1-0.1-0.2-0.1-0.3-0.2c-0.1-0.1-0.1-0.2-0.1-0.3c0-0.1,0-0.3,0-0.6v-1.4h-0.4
			v-0.7h0.4V473l0.8-0.5v1.1H-528.9z"/>
	</g>
	<g>
		<path d="M-558.4,480.1v-1.7h1.2v0.2h-1v0.5h1v0.2h-1v0.6h1.1v0.2H-558.4z"/>
		<path d="M-555.6,480.1l-0.7-1.7h0.2l0.4,1.3c0,0.1,0.1,0.2,0.1,0.3c0-0.1,0.1-0.2,0.1-0.3l0.5-1.3h0.2l-0.7,1.7H-555.6z"/>
		<path d="M-553.9,480.1v-1.7h1.2v0.2h-1v0.5h1v0.2h-1v0.6h1.1v0.2H-553.9z"/>
		<path d="M-551.6,480.1v-1.7h0.8c0.2,0,0.3,0,0.4,0c0.1,0,0.1,0.1,0.2,0.2c0,0.1,0.1,0.2,0.1,0.3c0,0.1,0,0.2-0.1,0.3
			c-0.1,0.1-0.2,0.1-0.4,0.2c0.1,0,0.1,0.1,0.1,0.1c0.1,0.1,0.1,0.1,0.2,0.2l0.3,0.5h-0.3l-0.2-0.4c-0.1-0.1-0.1-0.2-0.2-0.2
			c0-0.1-0.1-0.1-0.1-0.1c0,0-0.1,0-0.1,0c0,0-0.1,0-0.1,0h-0.3v0.8H-551.6z M-551.4,479.1h0.5c0.1,0,0.2,0,0.2,0
			c0.1,0,0.1-0.1,0.1-0.1c0,0,0-0.1,0-0.2c0-0.1,0-0.1-0.1-0.2c-0.1-0.1-0.2-0.1-0.3-0.1h-0.5V479.1z"/>
		<path d="M-548.8,480.1v-0.7l-0.7-1h0.3l0.3,0.5c0.1,0.1,0.1,0.2,0.2,0.3c0.1-0.1,0.1-0.2,0.2-0.3l0.3-0.5h0.3l-0.7,1v0.7H-548.8z"
			/>
		<path d="M-545.8,480.1v-1.7h0.2v1.5h0.9v0.2H-545.8z"/>
		<path d="M-543.9,479.2c0-0.3,0.1-0.5,0.2-0.7c0.2-0.2,0.4-0.2,0.6-0.2c0.2,0,0.3,0,0.4,0.1c0.1,0.1,0.2,0.2,0.3,0.3
			c0.1,0.1,0.1,0.3,0.1,0.5c0,0.2,0,0.3-0.1,0.5c-0.1,0.1-0.2,0.2-0.3,0.3c-0.1,0.1-0.3,0.1-0.4,0.1c-0.2,0-0.3,0-0.4-0.1
			c-0.1-0.1-0.2-0.2-0.3-0.3C-543.9,479.5-543.9,479.4-543.9,479.2z M-543.7,479.2c0,0.2,0.1,0.4,0.2,0.5c0.1,0.1,0.3,0.2,0.4,0.2
			c0.2,0,0.3-0.1,0.4-0.2c0.1-0.1,0.2-0.3,0.2-0.5c0-0.1,0-0.3-0.1-0.4c0-0.1-0.1-0.2-0.2-0.2c-0.1-0.1-0.2-0.1-0.3-0.1
			c-0.2,0-0.3,0.1-0.4,0.2C-543.6,478.8-543.7,479-543.7,479.2z"/>
		<path d="M-540.9,480.1l-0.7-1.7h0.2l0.4,1.3c0,0.1,0.1,0.2,0.1,0.3c0-0.1,0.1-0.2,0.1-0.3l0.5-1.3h0.2l-0.7,1.7H-540.9z"/>
		<path d="M-539.1,480.1v-1.7h1.2v0.2h-1v0.5h1v0.2h-1v0.6h1.1v0.2H-539.1z"/>
		<path d="M-535.6,480.1v-1.7h0.7c0.1,0,0.2,0,0.3,0c0.1,0,0.2,0,0.2,0.1c0.1,0,0.1,0.1,0.1,0.2c0,0.1,0.1,0.2,0.1,0.2
			c0,0.1,0,0.3-0.1,0.4c-0.1,0.1-0.3,0.2-0.5,0.2h-0.4v0.7H-535.6z M-535.4,479.2h0.4c0.1,0,0.3,0,0.3-0.1c0.1-0.1,0.1-0.1,0.1-0.2
			c0-0.1,0-0.1-0.1-0.2c0-0.1-0.1-0.1-0.1-0.1c0,0-0.1,0-0.2,0h-0.4V479.2z"/>
		<path d="M-533.4,480.1v-1.7h1.2v0.2h-1v0.5h1v0.2h-1v0.6h1.1v0.2H-533.4z"/>
		<path d="M-530.7,480.1v-1.5h-0.6v-0.2h1.4v0.2h-0.6v1.5H-530.7z"/>
	</g>
</g>
<g>
	<g>
		<path d="M-538.1,303.6h-12.1c-3.5,0-6.3,2.8-6.3,6.3v3.4c0,3.5,2.8,6.3,6.3,6.3h12.1c3.5,0,6.3-2.8,6.3-6.3v-3.4
			C-531.8,306.4-534.6,303.6-538.1,303.6z"/>
		<g>
			<path d="M-524.2,326.6c0,1.8-1.5,3.3-3.3,3.3h-12.1c-1.5,0-2.8-1-3.1-2.4c0-0.3,0.1-0.6,0.1-0.9v-11.3h-0.2h-2.8h-0.2v11.3
				c0,0.3,0,0.6,0.1,0.9c-0.4,1.4-1.6,2.4-3.1,2.4h-12.1c-1.8,0-3.3-1.5-3.3-3.3h-3c0,3.5,2.8,6.3,6.3,6.3h12.1
				c1.1,0,2.2-0.3,3.1-0.8v9.5h3v-9.6c1,0.6,2.1,0.9,3.3,0.9h12.1c3.5,0,6.3-2.8,6.3-6.3H-524.2z"/>
			<path d="M-538,338.8c0,2.7-2.2,4.9-4.9,4.9h-2.6c-2.7,0-4.9-2.2-4.9-4.9v-4.8h-3v4.8c0,4.3,3.5,7.9,7.9,7.9h2.6
				c4.3,0,7.9-3.5,7.9-7.9v-4.8h-3V338.8z"/>
		</g>
	</g>
	<g>
		<path d="M-565.3,341.7l0.9,1.2l-0.7,0.5c0.4,0,0.7,0.1,1,0.2c0.3,0.2,0.6,0.4,0.9,0.7c0.4,0.6,0.5,1.2,0.4,1.9
			c-0.2,0.7-0.6,1.3-1.4,1.9c-0.8,0.6-1.6,0.8-2.3,0.7c-0.7-0.1-1.3-0.4-1.7-1c-0.2-0.3-0.3-0.5-0.4-0.8c0-0.3,0-0.7,0.1-1.1
			l-2.4,1.7l-0.9-1.3L-565.3,341.7z M-566.7,344.6c-0.5,0.4-0.9,0.8-1,1.2c-0.1,0.4,0,0.8,0.2,1.1c0.2,0.3,0.5,0.5,0.9,0.5
			c0.4,0,0.8-0.2,1.4-0.5c0.5-0.4,0.8-0.7,0.9-1.1c0.1-0.4,0-0.7-0.2-1c-0.2-0.3-0.5-0.5-0.9-0.5
			C-565.8,344.1-566.2,344.3-566.7,344.6z"/>
		<path d="M-561,352.4l1.1,1.2c-0.5,0.3-1,0.5-1.6,0.4c-0.5,0-1-0.3-1.6-0.7c-0.8-0.7-1.2-1.4-1.1-2.2c0-0.7,0.3-1.3,0.8-2
			c0.6-0.8,1.3-1.2,2.1-1.3c0.8-0.1,1.4,0.1,2,0.6c0.7,0.6,1,1.2,1.1,2c0,0.8-0.3,1.6-1.1,2.5l-3.1-2.5c-0.3,0.4-0.4,0.7-0.4,1.1
			c0,0.4,0.2,0.6,0.5,0.9c0.2,0.2,0.4,0.2,0.6,0.2C-561.5,352.7-561.3,352.6-561,352.4z M-559.9,351.3c0.3-0.4,0.4-0.7,0.4-1
			c0-0.3-0.2-0.6-0.4-0.8c-0.3-0.2-0.6-0.3-0.9-0.2c-0.3,0.1-0.6,0.2-0.9,0.6L-559.9,351.3z"/>
		<path d="M-553.7,352.1l-0.6,1.1l-1-0.5l-1.1,2.1c-0.2,0.4-0.3,0.7-0.4,0.8c0,0.1,0,0.2,0,0.2c0,0.1,0.1,0.1,0.2,0.2
			c0.1,0.1,0.3,0.1,0.6,0.2l-0.4,1.1c-0.4,0-0.8-0.2-1.2-0.4c-0.3-0.1-0.5-0.3-0.6-0.5c-0.2-0.2-0.3-0.4-0.3-0.6
			c0-0.2,0-0.4,0.1-0.6c0.1-0.2,0.2-0.5,0.5-1l1.2-2.3l-0.6-0.3l0.6-1.1l0.6,0.3l0.5-1.1l1.8-0.1l-1,1.9L-553.7,352.1z"/>
		<path d="M-548.3,355.6l-1.6-0.1c0-0.3,0-0.6-0.2-0.8c-0.1-0.2-0.3-0.3-0.6-0.4c-0.4-0.1-0.7-0.1-1,0.1c-0.3,0.2-0.5,0.6-0.7,1.2
			c-0.2,0.7-0.2,1.2-0.1,1.5c0.2,0.3,0.4,0.6,0.8,0.7c0.3,0.1,0.5,0.1,0.8,0c0.2-0.1,0.4-0.4,0.6-0.7l1.4,0.7
			c-0.3,0.6-0.8,1.1-1.3,1.3c-0.5,0.2-1.2,0.2-1.9,0c-0.8-0.2-1.4-0.7-1.8-1.4c-0.4-0.7-0.4-1.5-0.1-2.4c0.3-0.9,0.7-1.6,1.4-2
			c0.6-0.4,1.4-0.5,2.3-0.2c0.7,0.2,1.2,0.5,1.5,0.9C-548.5,354.4-548.3,354.9-548.3,355.6z"/>
		<path d="M-543.4,358.1l1.6,0.3c-0.2,0.6-0.5,1-1,1.3c-0.4,0.3-1,0.4-1.6,0.4c-1,0-1.8-0.4-2.3-1.1c-0.4-0.5-0.6-1.2-0.6-2.1
			c0-1,0.3-1.8,0.8-2.3c0.5-0.6,1.2-0.8,2-0.8c0.9,0,1.6,0.3,2.1,0.9c0.5,0.6,0.7,1.5,0.7,2.7l-3.9-0.1c0,0.5,0.1,0.8,0.4,1.1
			c0.2,0.3,0.5,0.4,0.9,0.4c0.2,0,0.5-0.1,0.6-0.2S-543.5,358.4-543.4,358.1z M-543.3,356.5c0-0.5-0.1-0.8-0.3-1
			c-0.2-0.2-0.5-0.4-0.8-0.4c-0.3,0-0.6,0.1-0.9,0.4c-0.2,0.2-0.3,0.6-0.3,1L-543.3,356.5z"/>
		<path d="M-539.6,359.6l-1.5-8.1l1.6-0.3l1.5,8.1L-539.6,359.6z"/>
		<path d="M-535.8,358.8l-2.5-7.8l1.5-0.5l2.5,7.8L-535.8,358.8z"/>
		<path d="M-529.7,354.1l1.5-0.5c0.1,0.6,0,1.1-0.2,1.6c-0.2,0.5-0.6,0.9-1.2,1.2c-0.9,0.5-1.7,0.6-2.5,0.2
			c-0.6-0.3-1.1-0.8-1.5-1.5c-0.5-0.9-0.6-1.7-0.4-2.4c0.2-0.7,0.6-1.3,1.3-1.7c0.8-0.4,1.5-0.5,2.3-0.2c0.7,0.3,1.4,0.9,1.9,2
			l-3.5,1.9c0.2,0.4,0.5,0.7,0.9,0.8c0.3,0.1,0.7,0.1,1-0.1c0.2-0.1,0.4-0.3,0.4-0.5C-529.6,354.6-529.6,354.4-529.7,354.1z
			 M-530.4,352.6c-0.2-0.4-0.5-0.6-0.8-0.7c-0.3-0.1-0.6-0.1-0.9,0.1c-0.3,0.2-0.5,0.4-0.6,0.7c-0.1,0.3,0,0.7,0.2,1.1L-530.4,352.6
			z"/>
		<path d="M-521.3,349.5l-1.1,1.1l-2.1-2.2c-0.4-0.5-0.8-0.7-0.9-0.8c-0.2-0.1-0.4-0.1-0.5-0.1c-0.2,0-0.3,0.1-0.5,0.3
			c-0.2,0.2-0.3,0.4-0.4,0.7c-0.1,0.3,0,0.5,0.1,0.7c0.1,0.2,0.4,0.6,0.9,1.1l1.9,1.9l-1.1,1.1l-4.2-4.3l1-1l0.6,0.6
			c-0.1-0.8,0.1-1.5,0.7-2.1c0.2-0.2,0.5-0.4,0.8-0.5c0.3-0.1,0.6-0.1,0.8-0.1c0.2,0,0.5,0.1,0.7,0.3c0.2,0.1,0.5,0.4,0.8,0.7
			L-521.3,349.5z"/>
		<path d="M-523.2,341.8l1.1,0.7l-0.6,0.9l2,1.3c0.4,0.3,0.6,0.4,0.7,0.4c0.1,0,0.2,0,0.2,0c0.1,0,0.2-0.1,0.2-0.2
			c0.1-0.1,0.2-0.3,0.2-0.6l1.1,0.6c-0.1,0.4-0.2,0.8-0.5,1.2c-0.2,0.2-0.3,0.4-0.5,0.6c-0.2,0.1-0.4,0.2-0.6,0.2
			c-0.2,0-0.4,0-0.6-0.2c-0.2-0.1-0.5-0.3-1-0.6l-2.2-1.4l-0.4,0.6l-1.1-0.7l0.4-0.6l-1-0.6l0.1-1.8l1.8,1.2L-523.2,341.8z"/>
	</g>
</g>
<g>
	<g>
		<path d="M-536,379.4h-12.1c-3.5,0-6.3,2.8-6.3,6.3v3.4c0,3.5,2.8,6.3,6.3,6.3h12.1c3.5,0,6.3-2.8,6.3-6.3v-3.4
			C-529.8,382.2-532.6,379.4-536,379.4z"/>
		<g>
			<path d="M-522.1,402.4c0,1.8-1.5,3.3-3.3,3.3h-12.1c-1.5,0-2.8-1-3.1-2.4c0-0.3,0.1-0.6,0.1-0.9v-11.3h-0.2h-2.8h-0.2v11.3
				c0,0.3,0,0.6,0.1,0.9c-0.4,1.4-1.6,2.4-3.1,2.4H-559c-1.8,0-3.3-1.5-3.3-3.3h-3c0,3.5,2.8,6.3,6.3,6.3h12.1
				c1.1,0,2.2-0.3,3.1-0.8v9.5h3v-9.6c1,0.6,2.1,0.9,3.3,0.9h12.1c3.5,0,6.3-2.8,6.3-6.3H-522.1z"/>
			<path d="M-536,414.7c0,2.7-2.2,4.9-4.9,4.9h-2.6c-2.7,0-4.9-2.2-4.9-4.9v-4.8h-3v4.8c0,4.3,3.5,7.9,7.9,7.9h2.6
				c4.3,0,7.9-3.5,7.9-7.9v-4.8h-3V414.7z"/>
		</g>
	</g>
	<g>
		<path d="M-563.2,417.5l0.9,1.2l-0.7,0.5c0.4,0,0.7,0.1,1,0.2c0.3,0.2,0.6,0.4,0.9,0.7c0.4,0.6,0.5,1.2,0.4,1.9
			c-0.2,0.7-0.6,1.3-1.4,1.9c-0.8,0.6-1.6,0.8-2.3,0.7c-0.7-0.1-1.3-0.4-1.7-1c-0.2-0.3-0.3-0.5-0.4-0.8c0-0.3,0-0.7,0.1-1.1
			l-2.4,1.7l-0.9-1.3L-563.2,417.5z M-564.7,420.5c-0.5,0.4-0.9,0.8-1,1.2c-0.1,0.4,0,0.8,0.2,1.1c0.2,0.3,0.5,0.5,0.9,0.5
			c0.4,0,0.8-0.2,1.4-0.5c0.5-0.4,0.8-0.7,0.9-1.1c0.1-0.4,0-0.7-0.2-1c-0.2-0.3-0.5-0.5-0.9-0.5
			C-563.8,420-564.2,420.1-564.7,420.5z"/>
		<path d="M-559,428.3l1.1,1.2c-0.5,0.3-1,0.5-1.6,0.4c-0.5,0-1-0.3-1.6-0.7c-0.8-0.7-1.2-1.4-1.1-2.2c0-0.7,0.3-1.3,0.8-2
			c0.6-0.8,1.3-1.2,2.1-1.3c0.8-0.1,1.4,0.1,2,0.6c0.7,0.6,1,1.2,1.1,2c0,0.8-0.3,1.6-1.1,2.5l-3.1-2.5c-0.3,0.4-0.4,0.7-0.4,1.1
			c0,0.4,0.2,0.6,0.5,0.9c0.2,0.2,0.4,0.2,0.6,0.2C-559.5,428.6-559.2,428.5-559,428.3z M-557.9,427.1c0.3-0.4,0.4-0.7,0.4-1
			c0-0.3-0.2-0.6-0.4-0.8c-0.3-0.2-0.6-0.3-0.9-0.2c-0.3,0.1-0.6,0.2-0.9,0.6L-557.9,427.1z"/>
		<path d="M-551.6,427.9l-0.6,1.1l-1-0.5l-1.1,2.1c-0.2,0.4-0.3,0.7-0.4,0.8c0,0.1,0,0.2,0,0.2c0,0.1,0.1,0.1,0.2,0.2
			c0.1,0.1,0.3,0.1,0.6,0.2l-0.4,1.1c-0.4,0-0.8-0.2-1.2-0.4c-0.3-0.1-0.5-0.3-0.6-0.5c-0.2-0.2-0.3-0.4-0.3-0.6
			c0-0.2,0-0.4,0.1-0.6c0.1-0.2,0.2-0.5,0.5-1l1.2-2.3l-0.6-0.3l0.6-1.1l0.6,0.3l0.5-1.1l1.8-0.1l-1,1.9L-551.6,427.9z"/>
		<path d="M-546.3,431.4l-1.6-0.1c0-0.3,0-0.6-0.2-0.8c-0.1-0.2-0.3-0.3-0.6-0.4c-0.4-0.1-0.7-0.1-1,0.1c-0.3,0.2-0.5,0.6-0.7,1.2
			c-0.2,0.7-0.2,1.2-0.1,1.5c0.2,0.3,0.4,0.6,0.8,0.7c0.3,0.1,0.5,0.1,0.8,0c0.2-0.1,0.4-0.4,0.6-0.7l1.4,0.7
			c-0.3,0.6-0.8,1.1-1.3,1.3c-0.5,0.2-1.2,0.2-1.9,0c-0.8-0.2-1.4-0.7-1.8-1.4c-0.4-0.7-0.4-1.5-0.1-2.4c0.3-0.9,0.7-1.6,1.4-2
			c0.6-0.4,1.4-0.5,2.3-0.2c0.7,0.2,1.2,0.5,1.5,0.9C-546.5,430.2-546.3,430.8-546.3,431.4z"/>
		<path d="M-541.3,433.9l1.6,0.3c-0.2,0.6-0.5,1-1,1.3c-0.4,0.3-1,0.4-1.6,0.4c-1,0-1.8-0.4-2.3-1.1c-0.4-0.5-0.6-1.2-0.6-2.1
			c0-1,0.3-1.8,0.8-2.3c0.5-0.6,1.2-0.8,2-0.8c0.9,0,1.6,0.3,2.1,0.9c0.5,0.6,0.7,1.5,0.7,2.7l-3.9-0.1c0,0.5,0.1,0.8,0.4,1.1
			c0.2,0.3,0.5,0.4,0.9,0.4c0.2,0,0.5-0.1,0.6-0.2C-541.6,434.4-541.4,434.2-541.3,433.9z M-541.2,432.3c0-0.5-0.1-0.8-0.3-1
			c-0.2-0.2-0.5-0.4-0.8-0.4c-0.3,0-0.6,0.1-0.9,0.4c-0.2,0.2-0.3,0.6-0.3,1L-541.2,432.3z"/>
		<path d="M-537.5,435.5l-1.5-8.1l1.6-0.3l1.5,8.1L-537.5,435.5z"/>
		<path d="M-533.7,434.6l-2.5-7.8l1.5-0.5l2.5,7.8L-533.7,434.6z"/>
		<path d="M-527.7,429.9l1.5-0.5c0.1,0.6,0,1.1-0.2,1.6c-0.2,0.5-0.6,0.9-1.2,1.2c-0.9,0.5-1.7,0.6-2.5,0.2
			c-0.6-0.3-1.1-0.8-1.5-1.5c-0.5-0.9-0.6-1.7-0.4-2.4c0.2-0.7,0.6-1.3,1.3-1.7c0.8-0.4,1.5-0.5,2.3-0.2c0.7,0.3,1.4,0.9,1.9,2
			l-3.5,1.9c0.2,0.4,0.5,0.7,0.9,0.8c0.3,0.1,0.7,0.1,1-0.1c0.2-0.1,0.4-0.3,0.4-0.5C-527.6,430.5-527.6,430.2-527.7,429.9z
			 M-528.3,428.5c-0.2-0.4-0.5-0.6-0.8-0.7c-0.3-0.1-0.6-0.1-0.9,0.1c-0.3,0.2-0.5,0.4-0.6,0.7c-0.1,0.3,0,0.7,0.2,1.1L-528.3,428.5
			z"/>
		<path d="M-519.3,425.4l-1.1,1.1l-2.1-2.2c-0.4-0.5-0.8-0.7-0.9-0.8c-0.2-0.1-0.4-0.1-0.5-0.1c-0.2,0-0.3,0.1-0.5,0.3
			c-0.2,0.2-0.3,0.4-0.4,0.7c-0.1,0.3,0,0.5,0.1,0.7c0.1,0.2,0.4,0.6,0.9,1.1l1.9,1.9l-1.1,1.1l-4.2-4.3l1-1l0.6,0.6
			c-0.1-0.8,0.1-1.5,0.7-2.1c0.2-0.2,0.5-0.4,0.8-0.5c0.3-0.1,0.6-0.1,0.8-0.1s0.5,0.1,0.7,0.3c0.2,0.1,0.5,0.4,0.8,0.7
			L-519.3,425.4z"/>
		<path d="M-521.2,417.6l1.1,0.7l-0.6,0.9l2,1.3c0.4,0.3,0.6,0.4,0.7,0.4c0.1,0,0.2,0,0.2,0c0.1,0,0.2-0.1,0.2-0.2
			c0.1-0.1,0.2-0.3,0.2-0.6l1.1,0.6c-0.1,0.4-0.2,0.8-0.5,1.2c-0.2,0.2-0.3,0.4-0.5,0.6c-0.2,0.1-0.4,0.2-0.6,0.2
			c-0.2,0-0.4,0-0.6-0.2c-0.2-0.1-0.5-0.3-1-0.6l-2.2-1.4l-0.4,0.6l-1.1-0.7l0.4-0.6l-1-0.6l0.1-1.8l1.8,1.2L-521.2,417.6z"/>
	</g>
</g>
<g>
	<g>
		<path class="st2" d="M-404.5-25.3h-22.1c-6.3,0-11.5,5.1-11.5,11.5v6.2c0,6.3,5.1,11.5,11.5,11.5h22.1c6.3,0,11.5-5.1,11.5-11.5
			v-6.2C-393.1-20.1-398.2-25.3-404.5-25.3z"/>
		<g>
			<path class="st2" d="M-379.1,16.7c0,3.3-2.7,6-6,6h-22.1c-2.7,0-5-1.9-5.7-4.4c0.1-0.5,0.1-1,0.1-1.6V-4h-0.4h-5.1h-0.4v20.7
				c0,0.5,0.1,1.1,0.1,1.6c-0.7,2.5-3,4.4-5.7,4.4h-22.1c-3.3,0-6-2.7-6-6h-5.5c0,6.3,5.1,11.5,11.5,11.5h22.1c2,0,4-0.5,5.6-1.5
				v17.3h5.5V26.4c1.7,1.1,3.8,1.7,6,1.7h22.1c6.3,0,11.5-5.1,11.5-11.5H-379.1z"/>
			<path class="st2" d="M-404.4,39.1c0,4.9-4,8.9-8.9,8.9h-4.7c-4.9,0-8.9-4-8.9-8.9v-8.7h-5.5v8.7c0,7.9,6.4,14.4,14.4,14.4h4.7
				c7.9,0,14.4-6.4,14.4-14.4v-8.7h-5.5V39.1z"/>
		</g>
	</g>
	<g>
		<path class="st2" d="M-378.8,12.1v-28h9.1c3.4,0,5.7,0.1,6.7,0.4c1.6,0.4,2.9,1.3,4,2.7c1.1,1.4,1.6,3.2,1.6,5.4
			c0,1.7-0.3,3.2-0.9,4.3c-0.6,1.2-1.4,2.1-2.4,2.8c-1,0.7-1.9,1.1-2.9,1.3c-1.3,0.3-3.3,0.4-5.9,0.4h-3.7v10.5H-378.8z
			 M-373.2-11.1v7.9h3.1c2.2,0,3.7-0.1,4.5-0.4c0.7-0.3,1.3-0.8,1.8-1.4c0.4-0.6,0.6-1.3,0.6-2.2c0-1-0.3-1.9-0.9-2.5
			c-0.6-0.7-1.4-1.1-2.3-1.2c-0.7-0.1-2-0.2-4.1-0.2H-373.2z"/>
		<path class="st2" d="M-352.8,12.1v-28h20.7v4.7h-15.1v6.2h14v4.7h-14v7.6h15.6v4.7H-352.8z"/>
		<path class="st2" d="M-320.5,12.1v-23.2h-8.3v-4.7h22.2v4.7h-8.3v23.2H-320.5z"/>
		<path class="st2" d="M-288.2-2.1l-5.3,1c-0.2-1.1-0.6-1.8-1.2-2.4c-0.6-0.5-1.4-0.8-2.5-0.8c-1.3,0-2.4,0.5-3.2,1.4
			c-0.8,0.9-1.2,2.5-1.2,4.6c0,2.4,0.4,4.1,1.2,5.1c0.8,1,1.9,1.5,3.3,1.5c1,0,1.8-0.3,2.5-0.9c0.6-0.6,1.1-1.6,1.4-3l5.3,0.9
			c-0.5,2.4-1.6,4.2-3.1,5.5c-1.6,1.2-3.6,1.9-6.2,1.9c-3,0-5.3-0.9-7.1-2.8c-1.8-1.9-2.6-4.5-2.6-7.8c0-3.3,0.9-5.9,2.7-7.8
			c1.8-1.9,4.2-2.8,7.2-2.8c2.5,0,4.4,0.5,5.9,1.6C-289.9-5.9-288.8-4.3-288.2-2.1z"/>
		<path class="st2" d="M-272.4,5.7l5.3,0.9c-0.7,2-1.8,3.4-3.3,4.5c-1.5,1-3.3,1.5-5.6,1.5c-3.5,0-6.1-1.2-7.8-3.5
			c-1.3-1.8-2-4.2-2-7c0-3.4,0.9-6,2.6-7.9c1.8-1.9,4-2.9,6.7-2.9c3,0,5.4,1,7.1,3c1.7,2,2.6,5,2.5,9.1h-13.4c0,1.6,0.5,2.8,1.3,3.7
			c0.8,0.9,1.9,1.3,3.1,1.3c0.8,0,1.5-0.2,2.1-0.7C-273.1,7.4-272.7,6.7-272.4,5.7z M-272.1,0.3c0-1.6-0.4-2.7-1.2-3.5
			c-0.8-0.8-1.7-1.2-2.8-1.2c-1.2,0-2.1,0.4-2.9,1.3c-0.8,0.9-1.1,2-1.1,3.5H-272.1z"/>
		<path class="st2" d="M-262.4,12.1v-28h5.4v28H-262.4z"/>
		<path class="st2" d="M-251.5,12.1v-28h5.4v28H-251.5z"/>
		<path class="st2" d="M-229,5.7l5.3,0.9c-0.7,2-1.8,3.4-3.3,4.5c-1.5,1-3.3,1.5-5.6,1.5c-3.5,0-6.1-1.2-7.8-3.5c-1.3-1.8-2-4.2-2-7
			c0-3.4,0.9-6,2.6-7.9c1.8-1.9,4-2.9,6.7-2.9c3,0,5.4,1,7.1,3c1.7,2,2.6,5,2.5,9.1h-13.4c0,1.6,0.5,2.8,1.3,3.7
			c0.8,0.9,1.9,1.3,3.1,1.3c0.8,0,1.5-0.2,2.1-0.7C-229.7,7.4-229.3,6.7-229,5.7z M-228.7,0.3c0-1.6-0.4-2.7-1.2-3.5
			c-0.8-0.8-1.7-1.2-2.8-1.2c-1.2,0-2.1,0.4-2.9,1.3c-0.8,0.9-1.1,2-1.1,3.5H-228.7z"/>
		<path class="st2" d="M-200.5,12.1h-5.4V1.8c0-2.2-0.1-3.6-0.3-4.2c-0.2-0.6-0.6-1.1-1.1-1.5c-0.5-0.4-1.1-0.5-1.9-0.5
			c-0.9,0-1.8,0.3-2.5,0.8c-0.7,0.5-1.2,1.2-1.5,2c-0.3,0.8-0.4,2.4-0.4,4.7v9.2h-5.4V-8.1h5v3c1.8-2.3,4-3.4,6.7-3.4
			c1.2,0,2.3,0.2,3.2,0.6c1,0.4,1.7,1,2.2,1.6c0.5,0.7,0.9,1.4,1,2.3c0.2,0.8,0.3,2,0.3,3.6V12.1z"/>
		<path class="st2" d="M-185.8-8.1v4.3h-3.7v8.2c0,1.7,0,2.6,0.1,2.9c0.1,0.3,0.2,0.5,0.5,0.7c0.2,0.2,0.5,0.3,0.9,0.3
			c0.5,0,1.2-0.2,2.2-0.5l0.5,4.2c-1.2,0.5-2.7,0.8-4.2,0.8c-1,0-1.8-0.2-2.6-0.5c-0.8-0.3-1.3-0.7-1.7-1.3
			c-0.4-0.5-0.6-1.2-0.8-2.1c-0.1-0.6-0.2-1.9-0.2-3.8v-8.8h-2.5v-4.3h2.5v-4l5.4-3.1v7.2H-185.8z"/>
	</g>
	<g>
		<path class="st2" d="M-366.1,32.8v-11h7.9v1.3h-6.5v3.4h6.1v1.3h-6.1v3.7h6.7v1.3H-366.1z"/>
		<path class="st2" d="M-348.8,32.8l-4.2-11h1.6l2.8,8c0.2,0.6,0.4,1.2,0.6,1.8c0.2-0.6,0.4-1.2,0.6-1.8l3-8h1.5l-4.3,11H-348.8z"/>
		<path class="st2" d="M-337.7,32.8v-11h7.9v1.3h-6.5v3.4h6.1v1.3h-6.1v3.7h6.7v1.3H-337.7z"/>
		<path class="st2" d="M-323.5,32.8v-11h4.9c1,0,1.7,0.1,2.2,0.3c0.5,0.2,0.9,0.5,1.2,1c0.3,0.5,0.5,1,0.5,1.7c0,0.8-0.3,1.4-0.8,2
			c-0.5,0.5-1.3,0.9-2.3,1c0.4,0.2,0.7,0.4,0.9,0.5c0.4,0.4,0.8,0.9,1.2,1.5l1.9,3h-1.8l-1.4-2.3c-0.4-0.7-0.8-1.2-1-1.5
			c-0.3-0.3-0.5-0.6-0.7-0.7c-0.2-0.1-0.4-0.2-0.7-0.3c-0.2,0-0.4-0.1-0.8-0.1h-1.7v4.9H-323.5z M-322.1,26.7h3.1
			c0.7,0,1.2-0.1,1.6-0.2c0.4-0.1,0.7-0.4,0.9-0.7c0.2-0.3,0.3-0.6,0.3-1c0-0.5-0.2-0.9-0.6-1.3c-0.4-0.3-1-0.5-1.8-0.5h-3.5V26.7z"
			/>
		<path class="st2" d="M-305.7,32.8v-4.6l-4.2-6.3h1.8l2.2,3.3c0.4,0.6,0.8,1.2,1.1,1.9c0.3-0.6,0.7-1.2,1.2-1.9l2.1-3.2h1.7
			l-4.4,6.3v4.6H-305.7z"/>
		<path class="st2" d="M-286.7,32.8v-11h1.5v9.7h5.4v1.3H-286.7z"/>
		<path class="st2" d="M-274.6,27.5c0-1.8,0.5-3.2,1.5-4.3c1-1,2.2-1.5,3.8-1.5c1,0,1.9,0.2,2.7,0.7c0.8,0.5,1.4,1.2,1.9,2
			c0.4,0.9,0.6,1.8,0.6,2.9c0,1.1-0.2,2.1-0.7,3c-0.4,0.9-1.1,1.5-1.9,2c-0.8,0.5-1.7,0.7-2.7,0.7c-1,0-2-0.3-2.8-0.7
			c-0.8-0.5-1.4-1.2-1.8-2C-274.4,29.3-274.6,28.4-274.6,27.5z M-273.1,27.5c0,1.3,0.4,2.4,1.1,3.1c0.7,0.8,1.6,1.1,2.7,1.1
			c1.1,0,2-0.4,2.7-1.2c0.7-0.8,1.1-1.9,1.1-3.3c0-0.9-0.1-1.7-0.5-2.3c-0.3-0.7-0.7-1.2-1.3-1.5c-0.6-0.4-1.2-0.5-2-0.5
			c-1,0-1.9,0.4-2.6,1.1C-272.7,24.7-273.1,25.8-273.1,27.5z"/>
		<path class="st2" d="M-255.1,32.8l-4.2-11h1.6l2.8,8c0.2,0.6,0.4,1.2,0.6,1.8c0.2-0.6,0.4-1.2,0.6-1.8l3-8h1.5l-4.3,11H-255.1z"/>
		<path class="st2" d="M-244,32.8v-11h7.9v1.3h-6.5v3.4h6.1v1.3h-6.1v3.7h6.7v1.3H-244z"/>
		<path class="st2" d="M-221.6,32.8v-11h4.1c0.7,0,1.3,0,1.7,0.1c0.5,0.1,1,0.3,1.4,0.5c0.4,0.3,0.7,0.6,0.9,1.1
			c0.2,0.5,0.3,1,0.3,1.5c0,0.9-0.3,1.7-0.9,2.4c-0.6,0.6-1.7,1-3.2,1h-2.8v4.5H-221.6z M-220.2,27.1h2.8c0.9,0,1.6-0.2,2-0.5
			c0.4-0.3,0.6-0.8,0.6-1.5c0-0.5-0.1-0.9-0.3-1.2c-0.2-0.3-0.5-0.5-0.9-0.6c-0.2-0.1-0.7-0.1-1.4-0.1h-2.8V27.1z"/>
		<path class="st2" d="M-207.4,32.8v-11h7.9v1.3h-6.5v3.4h6.1v1.3h-6.1v3.7h6.7v1.3H-207.4z"/>
		<path class="st2" d="M-190.5,32.8v-9.7h-3.6v-1.3h8.7v1.3h-3.6v9.7H-190.5z"/>
	</g>
</g>
<g>
	<g>
		<path d="M-38.6,0.8H-49c-3,0-5.4,2.4-5.4,5.4v2.9c0,3,2.4,5.4,5.4,5.4h10.5c3,0,5.4-2.4,5.4-5.4V6.2C-33.2,3.2-35.6,0.8-38.6,0.8z
			"/>
		<g>
			<path d="M-26.6,20.6c0,1.6-1.3,2.8-2.8,2.8h-10.5c-1.3,0-2.4-0.9-2.7-2.1c0-0.2,0.1-0.5,0.1-0.7v-9.8h-0.2h-2.4h-0.2v9.8
				c0,0.3,0,0.5,0.1,0.7c-0.3,1.2-1.4,2.1-2.7,2.1h-10.5c-1.6,0-2.8-1.3-2.8-2.8h-2.6c0,3,2.4,5.4,5.4,5.4h10.5c1,0,1.9-0.3,2.6-0.7
				v8.1h2.6v-8.3c0.8,0.5,1.8,0.8,2.8,0.8h10.5c3,0,5.4-2.4,5.4-5.4H-26.6z"/>
			<path d="M-38.5,31.1c0,2.3-1.9,4.2-4.2,4.2h-2.2c-2.3,0-4.2-1.9-4.2-4.2V27h-2.6v4.1c0,3.7,3,6.8,6.8,6.8h2.2
				c3.7,0,6.8-3,6.8-6.8V27h-2.6V31.1z"/>
		</g>
	</g>
	<g>
		<path d="M-62,33.5l0.7,1l-0.6,0.4c0.3,0,0.6,0,0.9,0.2c0.3,0.1,0.5,0.3,0.7,0.6c0.3,0.5,0.4,1,0.3,1.6c-0.1,0.6-0.5,1.2-1.2,1.6
			c-0.7,0.5-1.4,0.7-2,0.6c-0.6-0.1-1.1-0.3-1.5-0.8c-0.2-0.2-0.3-0.5-0.3-0.7c0-0.3,0-0.6,0.1-0.9l-2.1,1.5l-0.8-1.1L-62,33.5z
			 M-63.2,36.1c-0.5,0.3-0.8,0.7-0.8,1c-0.1,0.3,0,0.7,0.1,0.9c0.2,0.3,0.4,0.4,0.8,0.4c0.3,0,0.7-0.1,1.2-0.5
			c0.4-0.3,0.7-0.6,0.8-1c0.1-0.3,0-0.6-0.1-0.9c-0.2-0.3-0.5-0.4-0.8-0.5C-62.5,35.7-62.8,35.8-63.2,36.1z"/>
		<path d="M-58.3,42.8l0.9,1c-0.4,0.3-0.9,0.4-1.4,0.4c-0.5,0-0.9-0.2-1.3-0.6c-0.7-0.6-1-1.2-1-1.9c0-0.6,0.3-1.1,0.7-1.7
			c0.5-0.7,1.1-1,1.8-1.1c0.6-0.1,1.2,0.1,1.8,0.5c0.6,0.5,0.9,1.1,0.9,1.7c0,0.7-0.3,1.4-1,2.2l-2.6-2.1c-0.2,0.3-0.4,0.6-0.3,0.9
			c0,0.3,0.2,0.6,0.4,0.8c0.2,0.1,0.3,0.2,0.5,0.2C-58.7,43-58.5,43-58.3,42.8z M-57.4,41.8c0.2-0.3,0.4-0.6,0.3-0.9
			c0-0.3-0.1-0.5-0.4-0.7c-0.2-0.2-0.5-0.3-0.8-0.2c-0.3,0-0.5,0.2-0.8,0.5L-57.4,41.8z"/>
		<path d="M-52,42.5l-0.5,1l-0.8-0.4l-1,1.8c-0.2,0.4-0.3,0.6-0.3,0.7c0,0.1,0,0.1,0,0.2c0,0.1,0.1,0.1,0.2,0.2
			c0.1,0.1,0.3,0.1,0.5,0.1l-0.4,1c-0.3,0-0.7-0.1-1-0.3c-0.2-0.1-0.4-0.3-0.5-0.4c-0.1-0.2-0.2-0.3-0.2-0.5c0-0.2,0-0.3,0.1-0.6
			c0-0.2,0.2-0.4,0.4-0.9l1-2l-0.6-0.3l0.5-1l0.6,0.3l0.5-0.9l1.6-0.1l-0.8,1.6L-52,42.5z"/>
		<path d="M-47.4,45.5l-1.4-0.1c0-0.3,0-0.5-0.1-0.7c-0.1-0.2-0.3-0.3-0.5-0.4c-0.3-0.1-0.6-0.1-0.9,0.1c-0.3,0.2-0.5,0.5-0.6,1
			c-0.2,0.6-0.2,1,0,1.3c0.1,0.3,0.4,0.5,0.7,0.6c0.2,0.1,0.5,0.1,0.7,0c0.2-0.1,0.4-0.3,0.5-0.6l1.2,0.6c-0.3,0.6-0.7,0.9-1.1,1.1
			c-0.5,0.2-1,0.2-1.6,0c-0.7-0.2-1.2-0.6-1.5-1.2c-0.3-0.6-0.3-1.3-0.1-2.1c0.2-0.8,0.6-1.4,1.2-1.7c0.6-0.3,1.2-0.4,1.9-0.2
			c0.6,0.2,1,0.4,1.3,0.8C-47.6,44.5-47.4,44.9-47.4,45.5z"/>
		<path d="M-43.1,47.7l1.3,0.2c-0.2,0.5-0.5,0.9-0.8,1.1c-0.4,0.3-0.9,0.4-1.4,0.4c-0.9,0-1.5-0.3-2-0.9c-0.3-0.5-0.5-1.1-0.5-1.8
			c0-0.9,0.2-1.5,0.7-2c0.5-0.5,1-0.7,1.7-0.7c0.8,0,1.4,0.3,1.8,0.8c0.4,0.5,0.6,1.3,0.6,2.3l-3.4-0.1c0,0.4,0.1,0.7,0.3,0.9
			c0.2,0.2,0.5,0.3,0.8,0.3c0.2,0,0.4-0.1,0.5-0.2C-43.3,48.1-43.2,47.9-43.1,47.7z M-43,46.3c0-0.4-0.1-0.7-0.3-0.9
			c-0.2-0.2-0.4-0.3-0.7-0.3c-0.3,0-0.5,0.1-0.7,0.3c-0.2,0.2-0.3,0.5-0.3,0.9L-43,46.3z"/>
		<path d="M-39.9,49l-1.3-7l1.3-0.2l1.3,7L-39.9,49z"/>
		<path d="M-36.6,48.3l-2.2-6.7l1.3-0.4l2.2,6.7L-36.6,48.3z"/>
		<path d="M-31.4,44.2l1.3-0.5c0.1,0.5,0,1-0.2,1.4c-0.2,0.4-0.6,0.7-1,1c-0.8,0.4-1.5,0.5-2.2,0.2c-0.5-0.2-1-0.7-1.3-1.3
			c-0.4-0.7-0.5-1.4-0.4-2.1c0.2-0.6,0.5-1.1,1.1-1.4c0.7-0.4,1.3-0.4,1.9-0.2c0.6,0.2,1.2,0.8,1.7,1.7l-3,1.6
			c0.2,0.3,0.4,0.6,0.7,0.7c0.3,0.1,0.6,0.1,0.8-0.1c0.2-0.1,0.3-0.2,0.4-0.4C-31.3,44.7-31.3,44.5-31.4,44.2z M-32,43
			c-0.2-0.3-0.4-0.6-0.7-0.6c-0.3-0.1-0.5-0.1-0.8,0.1c-0.3,0.1-0.4,0.4-0.5,0.6c-0.1,0.3,0,0.6,0.2,0.9L-32,43z"/>
		<path d="M-24.1,40.3l-1,0.9l-1.8-1.9c-0.4-0.4-0.7-0.6-0.8-0.7c-0.2-0.1-0.3-0.1-0.5-0.1c-0.2,0-0.3,0.1-0.4,0.2
			c-0.2,0.2-0.3,0.4-0.3,0.6c0,0.2,0,0.4,0.1,0.6c0.1,0.2,0.3,0.5,0.7,0.9l1.6,1.7l-1,0.9l-3.6-3.7l0.9-0.9l0.5,0.5
			c-0.1-0.7,0.1-1.3,0.6-1.8c0.2-0.2,0.4-0.4,0.7-0.5c0.3-0.1,0.5-0.1,0.7-0.1c0.2,0,0.4,0.1,0.6,0.2c0.2,0.1,0.4,0.3,0.7,0.6
			L-24.1,40.3z"/>
		<path d="M-25.8,33.6l0.9,0.6l-0.5,0.8l1.7,1.1c0.4,0.2,0.6,0.4,0.6,0.4c0.1,0,0.1,0,0.2,0c0.1,0,0.1-0.1,0.2-0.2
			c0.1-0.1,0.1-0.3,0.2-0.5l0.9,0.5c-0.1,0.3-0.2,0.7-0.4,1c-0.1,0.2-0.3,0.4-0.5,0.5c-0.2,0.1-0.3,0.2-0.5,0.2
			c-0.2,0-0.3,0-0.5-0.1c-0.1-0.1-0.4-0.2-0.8-0.5l-1.9-1.2l-0.3,0.5l-0.9-0.6l0.3-0.5l-0.9-0.6l0.1-1.6l1.5,1L-25.8,33.6z"/>
	</g>
</g>
<g>
	<g>
		<path class="st3" d="M30,1.5h-9.5c-2.7,0-4.9,2.2-4.9,4.9V9c0,2.7,2.2,4.9,4.9,4.9H30c2.7,0,4.9-2.2,4.9-4.9V6.4
			C34.8,3.7,32.6,1.5,30,1.5z"/>
		<g>
			<path class="st3" d="M40.8,19.4c0,1.4-1.1,2.6-2.6,2.6h-9.5c-1.2,0-2.2-0.8-2.5-1.9c0-0.2,0.1-0.4,0.1-0.7v-8.8h-0.2h-2.2h-0.2
				v8.8c0,0.2,0,0.5,0.1,0.7c-0.3,1.1-1.3,1.9-2.5,1.9H12c-1.4,0-2.6-1.1-2.6-2.6H7.1c0,2.7,2.2,4.9,4.9,4.9h9.5
				c0.9,0,1.7-0.2,2.4-0.6V31h2.3v-7.5c0.7,0.5,1.6,0.7,2.6,0.7h9.5c2.7,0,4.9-2.2,4.9-4.9H40.8z"/>
			<path class="st3" d="M30,29c0,2.1-1.7,3.8-3.8,3.8h-2c-2.1,0-3.8-1.7-3.8-3.8v-3.7h-2.3V29c0,3.4,2.8,6.1,6.1,6.1h2
				c3.4,0,6.1-2.8,6.1-6.1v-3.7H30V29z"/>
		</g>
	</g>
	<g>
		<path class="st3" d="M3,43.9v-6.4h2.1c0.8,0,1.3,0,1.5,0.1c0.4,0.1,0.7,0.3,0.9,0.6c0.2,0.3,0.4,0.7,0.4,1.2c0,0.4-0.1,0.7-0.2,1
			c-0.1,0.3-0.3,0.5-0.5,0.6c-0.2,0.2-0.4,0.3-0.7,0.3c-0.3,0.1-0.8,0.1-1.3,0.1H4.3v2.4H3z M4.3,38.6v1.8H5c0.5,0,0.8,0,1-0.1
			c0.2-0.1,0.3-0.2,0.4-0.3c0.1-0.1,0.1-0.3,0.1-0.5c0-0.2-0.1-0.4-0.2-0.6c-0.1-0.2-0.3-0.2-0.5-0.3c-0.2,0-0.5,0-0.9,0H4.3z"/>
		<path class="st3" d="M9,43.9v-6.4h4.7v1.1h-3.5V40h3.2v1.1h-3.2v1.7h3.6v1.1H9z"/>
		<path class="st3" d="M16.4,43.9v-5.3h-1.9v-1.1h5.1v1.1h-1.9v5.3H16.4z"/>
		<path class="st3" d="M23.8,40.6l-1.2,0.2c0-0.2-0.1-0.4-0.3-0.5c-0.1-0.1-0.3-0.2-0.6-0.2c-0.3,0-0.5,0.1-0.7,0.3
			c-0.2,0.2-0.3,0.6-0.3,1.1c0,0.6,0.1,0.9,0.3,1.2c0.2,0.2,0.4,0.3,0.7,0.3c0.2,0,0.4-0.1,0.6-0.2c0.1-0.1,0.3-0.4,0.3-0.7l1.2,0.2
			c-0.1,0.6-0.4,1-0.7,1.3c-0.4,0.3-0.8,0.4-1.4,0.4c-0.7,0-1.2-0.2-1.6-0.6c-0.4-0.4-0.6-1-0.6-1.8c0-0.8,0.2-1.4,0.6-1.8
			c0.4-0.4,1-0.6,1.6-0.6c0.6,0,1,0.1,1.3,0.4C23.4,39.7,23.6,40.1,23.8,40.6z"/>
		<path class="st3" d="M27.4,42.4l1.2,0.2c-0.2,0.4-0.4,0.8-0.7,1c-0.3,0.2-0.8,0.4-1.3,0.4c-0.8,0-1.4-0.3-1.8-0.8
			c-0.3-0.4-0.5-1-0.5-1.6c0-0.8,0.2-1.4,0.6-1.8c0.4-0.4,0.9-0.7,1.5-0.7c0.7,0,1.2,0.2,1.6,0.7s0.6,1.2,0.6,2.1h-3.1
			c0,0.4,0.1,0.6,0.3,0.8c0.2,0.2,0.4,0.3,0.7,0.3c0.2,0,0.4-0.1,0.5-0.2C27.2,42.8,27.3,42.6,27.4,42.4z M27.4,41.2
			c0-0.4-0.1-0.6-0.3-0.8c-0.2-0.2-0.4-0.3-0.6-0.3c-0.3,0-0.5,0.1-0.7,0.3c-0.2,0.2-0.3,0.5-0.3,0.8H27.4z"/>
		<path class="st3" d="M29.7,43.9v-6.4h1.2v6.4H29.7z"/>
		<path class="st3" d="M32.1,43.9v-6.4h1.2v6.4H32.1z"/>
		<path class="st3" d="M37.3,42.4l1.2,0.2c-0.2,0.4-0.4,0.8-0.7,1C37.4,43.9,37,44,36.5,44c-0.8,0-1.4-0.3-1.8-0.8
			c-0.3-0.4-0.5-1-0.5-1.6c0-0.8,0.2-1.4,0.6-1.8c0.4-0.4,0.9-0.7,1.5-0.7c0.7,0,1.2,0.2,1.6,0.7s0.6,1.2,0.6,2.1h-3.1
			c0,0.4,0.1,0.6,0.3,0.8c0.2,0.2,0.4,0.3,0.7,0.3c0.2,0,0.4-0.1,0.5-0.2C37.1,42.8,37.2,42.6,37.3,42.4z M37.4,41.2
			c0-0.4-0.1-0.6-0.3-0.8c-0.2-0.2-0.4-0.3-0.6-0.3c-0.3,0-0.5,0.1-0.7,0.3c-0.2,0.2-0.3,0.5-0.3,0.8H37.4z"/>
		<path class="st3" d="M43.8,43.9h-1.2v-2.4c0-0.5,0-0.8-0.1-1c-0.1-0.1-0.1-0.3-0.3-0.3c-0.1-0.1-0.3-0.1-0.4-0.1
			c-0.2,0-0.4,0.1-0.6,0.2c-0.2,0.1-0.3,0.3-0.3,0.5c-0.1,0.2-0.1,0.5-0.1,1.1v2.1h-1.2v-4.6h1.1v0.7c0.4-0.5,0.9-0.8,1.5-0.8
			c0.3,0,0.5,0,0.7,0.1c0.2,0.1,0.4,0.2,0.5,0.4c0.1,0.2,0.2,0.3,0.2,0.5c0,0.2,0.1,0.5,0.1,0.8V43.9z"/>
		<path class="st3" d="M47.2,39.2v1h-0.8v1.9c0,0.4,0,0.6,0,0.7c0,0.1,0.1,0.1,0.1,0.2c0.1,0,0.1,0.1,0.2,0.1c0.1,0,0.3,0,0.5-0.1
			l0.1,1c-0.3,0.1-0.6,0.2-1,0.2c-0.2,0-0.4,0-0.6-0.1c-0.2-0.1-0.3-0.2-0.4-0.3c-0.1-0.1-0.1-0.3-0.2-0.5c0-0.1,0-0.4,0-0.9v-2
			h-0.6v-1h0.6v-0.9l1.2-0.7v1.6H47.2z"/>
	</g>
	<g>
		<path class="st3" d="M4.5,48.6v-2.5h1.8v0.3H4.8v0.8h1.4v0.3H4.8v0.9h1.5v0.3H4.5z"/>
		<path class="st3" d="M8.4,48.6l-1-2.5h0.4l0.7,1.8c0.1,0.1,0.1,0.3,0.1,0.4c0-0.1,0.1-0.3,0.1-0.4l0.7-1.8h0.3l-1,2.5H8.4z"/>
		<path class="st3" d="M11,48.6v-2.5h1.8v0.3h-1.5v0.8h1.4v0.3h-1.4v0.9h1.5v0.3H11z"/>
		<path class="st3" d="M14.2,48.6v-2.5h1.1c0.2,0,0.4,0,0.5,0.1c0.1,0,0.2,0.1,0.3,0.2c0.1,0.1,0.1,0.2,0.1,0.4
			c0,0.2-0.1,0.3-0.2,0.4c-0.1,0.1-0.3,0.2-0.5,0.2c0.1,0,0.2,0.1,0.2,0.1c0.1,0.1,0.2,0.2,0.3,0.3l0.4,0.7H16l-0.3-0.5
			c-0.1-0.2-0.2-0.3-0.2-0.3c-0.1-0.1-0.1-0.1-0.2-0.2c0,0-0.1-0.1-0.2-0.1c0,0-0.1,0-0.2,0h-0.4v1.1H14.2z M14.5,47.2h0.7
			c0.2,0,0.3,0,0.4,0c0.1,0,0.2-0.1,0.2-0.2c0-0.1,0.1-0.1,0.1-0.2c0-0.1,0-0.2-0.1-0.3c-0.1-0.1-0.2-0.1-0.4-0.1h-0.8V47.2z"/>
		<path class="st3" d="M18.3,48.6v-1.1l-1-1.4h0.4l0.5,0.8c0.1,0.1,0.2,0.3,0.3,0.4c0.1-0.1,0.2-0.3,0.3-0.4l0.5-0.7h0.4l-1,1.4v1.1
			H18.3z"/>
		<path class="st3" d="M22.6,48.6v-2.5H23v2.2h1.2v0.3H22.6z"/>
		<path class="st3" d="M25.4,47.4c0-0.4,0.1-0.7,0.3-1c0.2-0.2,0.5-0.4,0.9-0.4c0.2,0,0.4,0.1,0.6,0.2c0.2,0.1,0.3,0.3,0.4,0.5
			c0.1,0.2,0.1,0.4,0.1,0.7c0,0.3-0.1,0.5-0.2,0.7c-0.1,0.2-0.2,0.4-0.4,0.5c-0.2,0.1-0.4,0.2-0.6,0.2c-0.2,0-0.4-0.1-0.6-0.2
			c-0.2-0.1-0.3-0.3-0.4-0.5C25.5,47.8,25.4,47.6,25.4,47.4z M25.7,47.4c0,0.3,0.1,0.5,0.2,0.7c0.2,0.2,0.4,0.3,0.6,0.3
			c0.2,0,0.5-0.1,0.6-0.3c0.2-0.2,0.2-0.4,0.2-0.7c0-0.2,0-0.4-0.1-0.5c-0.1-0.2-0.2-0.3-0.3-0.4c-0.1-0.1-0.3-0.1-0.4-0.1
			c-0.2,0-0.4,0.1-0.6,0.2C25.8,46.7,25.7,47,25.7,47.4z"/>
		<path class="st3" d="M29.9,48.6l-1-2.5h0.4l0.7,1.8c0.1,0.1,0.1,0.3,0.1,0.4c0-0.1,0.1-0.3,0.1-0.4l0.7-1.8h0.3l-1,2.5H29.9z"/>
		<path class="st3" d="M32.4,48.6v-2.5h1.8v0.3h-1.5v0.8h1.4v0.3h-1.4v0.9h1.5v0.3H32.4z"/>
		<path class="st3" d="M37.5,48.6v-2.5h0.9c0.2,0,0.3,0,0.4,0c0.1,0,0.2,0.1,0.3,0.1c0.1,0.1,0.2,0.1,0.2,0.2
			c0.1,0.1,0.1,0.2,0.1,0.3c0,0.2-0.1,0.4-0.2,0.5c-0.1,0.1-0.4,0.2-0.7,0.2h-0.6v1H37.5z M37.9,47.3h0.6c0.2,0,0.4,0,0.5-0.1
			c0.1-0.1,0.1-0.2,0.1-0.3c0-0.1,0-0.2-0.1-0.3c-0.1-0.1-0.1-0.1-0.2-0.1c-0.1,0-0.2,0-0.3,0h-0.6V47.3z"/>
		<path class="st3" d="M40.8,48.6v-2.5h1.8v0.3h-1.5v0.8h1.4v0.3h-1.4v0.9h1.5v0.3H40.8z"/>
		<path class="st3" d="M44.7,48.6v-2.2h-0.8v-0.3h2v0.3H45v2.2H44.7z"/>
	</g>
</g>
</svg>
