<?xml version="1.0" encoding="utf-8"?>
<!-- Generator: Adobe Illustrator 24.1.1, SVG Export Plug-In . SVG Version: 6.00 Build 0)  -->
<svg version="1.1" id="Layer_1" xmlns="http://www.w3.org/2000/svg" xmlns:xlink="http://www.w3.org/1999/xlink" x="0px" y="0px"
	 viewBox="0 0 50 50" style="enable-background:new 0 0 50 50;" xml:space="preserve">
<style type="text/css">
	.st0{fill:#FFFFFF;}
</style>
<g id="Guides_For_Artboard">
</g>
<g>
	<path class="st0" d="M25.6,68.6c-7.2,0-12.9,5.8-12.9,12.9c0,7.2,5.8,12.9,12.9,12.9s12.9-5.8,12.9-12.9S32.7,68.6,25.6,68.6z
		 M25.6,90c-4.6,0-8.4-3.8-8.4-8.4s3.8-8.4,8.4-8.4S34,77,34,81.6C33.9,86.2,30.2,90,25.6,90z"/>
	<path class="st0" d="M38.9,65.1c-1.7,0-3,1.4-3,3c0,1.7,1.4,3,3,3c1.7,0,3-1.4,3-3S40.6,65.1,38.9,65.1z"/>
	<path class="st0" d="M36.1,56.5H15c-8,0-14.4,6.4-14.4,14.4V92c0,8,6.4,14.4,14.4,14.4h21.1c8,0,14.4-6.4,14.4-14.4V70.9
		C50.5,62.9,44,56.5,36.1,56.5z M45.9,92.4c0,5.3-4.3,9.6-9.6,9.6H14.8c-5.3,0-9.6-4.3-9.6-9.6V70.8c0-5.3,4.3-9.6,9.6-9.6h21.6
		c5.3,0,9.6,4.3,9.6,9.6L45.9,92.4L45.9,92.4z"/>
</g>
<path class="st0" d="M43.3,8.1c-1.9-0.3-10.9-0.6-18-0.6c-7.2,0-16.2,0.4-18,0.6c-3.3,0.5-5,2-6,5.8C0.9,15.1,0.4,22,0.4,24.7v0.6
	c0,2.7,0.4,9.6,0.8,10.9c0.9,3.8,2.7,5.2,6,5.8c1.9,0.3,10.9,0.6,18.1,0.6l0,0c7.2,0,16.2-0.4,18.1-0.6c3.3-0.5,5-2,6-5.8
	c0.3-1.3,0.8-8.2,0.8-10.9v-0.6c0-2.7-0.4-9.6-0.8-10.9C48.3,10,46.5,8.6,43.3,8.1z M19.3,31.3V18.6l11.9,6.2L19.3,31.3z"/>
<path class="st0" d="M49-105.3c-1.9,1.1-4.1,2-6.4,2.4c-1.8-1.9-4.4-3.2-7.3-3.2c-5.5,0-10,4.5-10,10c0,0.8,0.1,1.6,0.3,2.3
	c-8.3-0.4-15.7-4.4-20.7-10.5c-0.9,1.5-1.4,3.2-1.4,5c0,3.5,1.8,6.6,4.5,8.4c-1.6-0.1-3.2-0.5-4.5-1.3v0.1c0,4.9,3.5,8.9,8,9.8
	C10.7-82.1,9.8-82,8.9-82c-0.7,0-1.3-0.1-1.9-0.2c1.3,4,5,6.9,9.4,7c-3.4,2.7-7.8,4.3-12.5,4.3c-0.8,0-1.6,0-2.4-0.1
	c4.4,2.8,9.7,4.5,15.4,4.5c18.5,0,28.5-15.3,28.5-28.5c0-0.4,0-0.9,0-1.3c2-1.4,3.7-3.2,5-5.2c-1.8,0.8-3.7,1.3-5.8,1.6
	C46.6-101,48.2-102.9,49-105.3z"/>
<path class="st0" d="M29.7-8.2v-22.7h7.7l1.1-8.9h-8.8v-5.7c0-2.6,0.7-4.3,4.4-4.3h4.7v-8c-0.8-0.1-3.6-0.4-6.9-0.4
	c-6.8,0-11.5,4.2-11.5,11.8v6.6h-7.7v8.9h7.7v22.7C20.4-8.2,29.7-8.2,29.7-8.2z"/>
</svg>
